<ttFont>
    <TTGlyph name=".notdef" xMin="91" yMin="2" xMax="631" yMax="818">
      <contour>
        <pt x="610" y="815" on="1"/>
        <pt x="623" y="814" on="0"/>
        <pt x="631" y="792" on="0"/>
        <pt x="631" y="780" on="1"/>
        <pt x="630" y="688" on="0"/>
        <pt x="629" y="507" on="0"/>
        <pt x="628" y="324" on="0"/>
        <pt x="628" y="136" on="0"/>
        <pt x="628" y="37" on="1"/>
        <pt x="628" y="16" on="0"/>
        <pt x="618" y="2" on="0"/>
        <pt x="609" y="2" on="1"/>
        <pt x="112" y="2" on="1"/>
        <pt x="103" y="2" on="0"/>
        <pt x="93" y="16" on="0"/>
        <pt x="93" y="37" on="1"/>
        <pt x="93" y="136" on="0"/>
        <pt x="92" y="324" on="0"/>
        <pt x="92" y="507" on="0"/>
        <pt x="91" y="688" on="0"/>
        <pt x="91" y="780" on="1"/>
        <pt x="91" y="814" on="0"/>
        <pt x="113" y="815" on="1"/>
        <pt x="129" y="816" on="0"/>
        <pt x="183" y="817" on="0"/>
        <pt x="240" y="818" on="0"/>
        <pt x="291" y="818" on="0"/>
        <pt x="304" y="818" on="1"/>
        <pt x="331" y="818" on="0"/>
        <pt x="418" y="818" on="0"/>
        <pt x="509" y="817" on="0"/>
        <pt x="590" y="816" on="0"/>
      </contour>
      <contour>
        <pt x="529" y="72" on="1"/>
        <pt x="548" y="72" on="0"/>
        <pt x="548" y="93" on="1"/>
        <pt x="548" y="714" on="1"/>
        <pt x="548" y="726" on="0"/>
        <pt x="536" y="741" on="0"/>
        <pt x="519" y="741" on="1"/>
        <pt x="201" y="741" on="1"/>
        <pt x="184" y="741" on="0"/>
        <pt x="173" y="728" on="0"/>
        <pt x="173" y="708" on="1"/>
        <pt x="173" y="90" on="1"/>
        <pt x="173" y="79" on="0"/>
        <pt x="181" y="72" on="0"/>
        <pt x="192" y="72" on="1"/>
      </contour>
      <contour>
        <pt x="489" y="204" on="1"/>
        <pt x="489" y="198" on="0"/>
        <pt x="480" y="181" on="0"/>
        <pt x="467" y="165" on="0"/>
        <pt x="453" y="153" on="0"/>
        <pt x="448" y="153" on="1"/>
        <pt x="444" y="153" on="0"/>
        <pt x="436" y="163" on="0"/>
        <pt x="420" y="185" on="0"/>
        <pt x="395" y="217" on="0"/>
        <pt x="374" y="240" on="1"/>
        <pt x="320" y="183" on="0"/>
        <pt x="269" y="126" on="0"/>
        <pt x="260" y="126" on="1"/>
        <pt x="257" y="126" on="0"/>
        <pt x="245" y="136" on="0"/>
        <pt x="233" y="149" on="0"/>
        <pt x="225" y="162" on="0"/>
        <pt x="225" y="165" on="1"/>
        <pt x="225" y="174" on="0"/>
        <pt x="243" y="192" on="0"/>
        <pt x="251" y="203" on="1"/>
        <pt x="276" y="234" on="0"/>
        <pt x="300" y="262" on="0"/>
        <pt x="312" y="276" on="0"/>
        <pt x="319" y="284" on="0"/>
        <pt x="328" y="296" on="1"/>
        <pt x="296" y="338" on="0"/>
        <pt x="253" y="395" on="0"/>
        <pt x="226" y="430" on="0"/>
        <pt x="214" y="448" on="0"/>
        <pt x="214" y="452" on="1"/>
        <pt x="214" y="455" on="0"/>
        <pt x="223" y="469" on="0"/>
        <pt x="236" y="484" on="0"/>
        <pt x="248" y="496" on="0"/>
        <pt x="251" y="496" on="1"/>
        <pt x="263" y="496" on="0"/>
        <pt x="285" y="465" on="0"/>
        <pt x="302" y="445" on="1"/>
        <pt x="306" y="440" on="0"/>
        <pt x="339" y="397" on="0"/>
        <pt x="371" y="355" on="1"/>
        <pt x="401" y="397" on="1"/>
        <pt x="424" y="429" on="0"/>
        <pt x="448" y="450" on="0"/>
        <pt x="456" y="450" on="1"/>
        <pt x="459" y="450" on="0"/>
        <pt x="471" y="440" on="0"/>
        <pt x="483" y="426" on="0"/>
        <pt x="493" y="413" on="0"/>
        <pt x="493" y="409" on="1"/>
        <pt x="493" y="401" on="0"/>
        <pt x="487" y="394" on="1"/>
        <pt x="475" y="380" on="0"/>
        <pt x="458" y="357" on="0"/>
        <pt x="443" y="336" on="0"/>
        <pt x="426" y="314" on="0"/>
        <pt x="416" y="300" on="1"/>
        <pt x="456" y="254" on="0"/>
        <pt x="489" y="210" on="0"/>
      </contour>
    </TTGlyph>
    <TTGlyph name="A" xMin="-28" yMin="-55" xMax="777" yMax="838">
      <contour>
        <pt x="613" y="35" on="1"/>
        <pt x="615" y="26" on="0"/>
        <pt x="626" y="14" on="0"/>
        <pt x="652" y="6" on="0"/>
        <pt x="697" y="3" on="0"/>
        <pt x="733" y="3" on="1"/>
        <pt x="747" y="3" on="0"/>
        <pt x="777" y="-8" on="0"/>
        <pt x="777" y="-25" on="1"/>
        <pt x="777" y="-43" on="0"/>
        <pt x="759" y="-55" on="0"/>
        <pt x="742" y="-55" on="1"/>
        <pt x="495" y="-55" on="1"/>
        <pt x="477" y="-55" on="0"/>
        <pt x="464" y="-41" on="0"/>
        <pt x="464" y="-33" on="1"/>
        <pt x="464" y="-17" on="0"/>
        <pt x="481" y="-8" on="0"/>
        <pt x="500" y="-1" on="0"/>
        <pt x="517" y="14" on="0"/>
        <pt x="517" y="35" on="1"/>
        <pt x="517" y="42" on="0"/>
        <pt x="505" y="92" on="0"/>
        <pt x="489" y="150" on="0"/>
        <pt x="473" y="203" on="0"/>
        <pt x="470" y="214" on="1"/>
        <pt x="238" y="214" on="1"/>
        <pt x="231" y="197" on="0"/>
        <pt x="218" y="156" on="0"/>
        <pt x="208" y="117" on="0"/>
        <pt x="202" y="85" on="0"/>
        <pt x="202" y="77" on="1"/>
        <pt x="202" y="69" on="0"/>
        <pt x="239" y="61" on="0"/>
        <pt x="274" y="61" on="1"/>
        <pt x="290" y="61" on="0"/>
        <pt x="307" y="47" on="0"/>
        <pt x="307" y="29" on="1"/>
        <pt x="307" y="18" on="0"/>
        <pt x="293" y="0" on="0"/>
        <pt x="273" y="0" on="1"/>
        <pt x="-5" y="0" on="1"/>
        <pt x="-14" y="0" on="0"/>
        <pt x="-28" y="16" on="0"/>
        <pt x="-28" y="30" on="1"/>
        <pt x="-28" y="43" on="0"/>
        <pt x="-9" y="57" on="0"/>
        <pt x="1" y="57" on="1"/>
        <pt x="3" y="57" on="0"/>
        <pt x="19" y="59" on="0"/>
        <pt x="39" y="61" on="0"/>
        <pt x="56" y="63" on="0"/>
        <pt x="58" y="63" on="1"/>
        <pt x="76" y="65" on="0"/>
        <pt x="100" y="81" on="0"/>
        <pt x="107" y="101" on="1"/>
        <pt x="121" y="142" on="0"/>
        <pt x="156" y="259" on="0"/>
        <pt x="194" y="391" on="0"/>
        <pt x="232" y="529" on="0"/>
        <pt x="266" y="655" on="0"/>
        <pt x="295" y="760" on="0"/>
        <pt x="305" y="792" on="1"/>
        <pt x="312" y="815" on="0"/>
        <pt x="333" y="838" on="0"/>
        <pt x="359" y="838" on="1"/>
        <pt x="380" y="838" on="0"/>
        <pt x="404" y="816" on="0"/>
        <pt x="410" y="793" on="1"/>
      </contour>
      <contour>
        <pt x="362" y="691" on="1"/>
        <pt x="355" y="664" on="0"/>
        <pt x="330" y="565" on="0"/>
        <pt x="301" y="451" on="0"/>
        <pt x="273" y="338" on="0"/>
        <pt x="262" y="298" on="1"/>
        <pt x="277" y="298" on="0"/>
        <pt x="300" y="297" on="0"/>
        <pt x="320" y="296" on="0"/>
        <pt x="343" y="296" on="0"/>
        <pt x="358" y="296" on="1"/>
        <pt x="367" y="296" on="0"/>
        <pt x="392" y="296" on="0"/>
        <pt x="419" y="297" on="0"/>
        <pt x="444" y="298" on="0"/>
        <pt x="453" y="298" on="1"/>
        <pt x="441" y="342" on="0"/>
        <pt x="416" y="440" on="0"/>
        <pt x="393" y="541" on="0"/>
        <pt x="371" y="643" on="0"/>
      </contour>
    </TTGlyph>
    <TTGlyph name="AE" xMin="-42" yMin="0" xMax="1043" yMax="821">
      <contour>
        <pt x="1002" y="326" on="1"/>
        <pt x="1015" y="326" on="0"/>
        <pt x="1032" y="315" on="0"/>
        <pt x="1040" y="300" on="0"/>
        <pt x="1043" y="283" on="0"/>
        <pt x="1043" y="277" on="1"/>
        <pt x="1043" y="268" on="0"/>
        <pt x="1041" y="213" on="0"/>
        <pt x="1037" y="141" on="0"/>
        <pt x="1031" y="63" on="0"/>
        <pt x="1027" y="33" on="1"/>
        <pt x="1025" y="16" on="0"/>
        <pt x="1007" y="0" on="0"/>
        <pt x="985" y="0" on="1"/>
        <pt x="911" y="0" on="0"/>
        <pt x="771" y="2" on="0"/>
        <pt x="697" y="2" on="1"/>
        <pt x="636" y="2" on="0"/>
        <pt x="515" y="0" on="0"/>
        <pt x="454" y="0" on="1"/>
        <pt x="439" y="0" on="0"/>
        <pt x="408" y="14" on="0"/>
        <pt x="408" y="32" on="1"/>
        <pt x="408" y="49" on="0"/>
        <pt x="427" y="60" on="0"/>
        <pt x="447" y="60" on="1"/>
        <pt x="494" y="60" on="0"/>
        <pt x="528" y="75" on="0"/>
        <pt x="528" y="96" on="1"/>
        <pt x="528" y="135" on="0"/>
        <pt x="529" y="186" on="0"/>
        <pt x="529" y="214" on="1"/>
        <pt x="321" y="214" on="1"/>
        <pt x="308" y="193" on="0"/>
        <pt x="280" y="145" on="0"/>
        <pt x="257" y="102" on="0"/>
        <pt x="242" y="71" on="0"/>
        <pt x="242" y="68" on="1"/>
        <pt x="242" y="64" on="0"/>
        <pt x="258" y="61" on="0"/>
        <pt x="270" y="60" on="1"/>
        <pt x="280" y="59" on="0"/>
        <pt x="293" y="46" on="0"/>
        <pt x="293" y="31" on="1"/>
        <pt x="293" y="11" on="0"/>
        <pt x="268" y="0" on="0"/>
        <pt x="248" y="0" on="1"/>
        <pt x="216" y="0" on="0"/>
        <pt x="161" y="2" on="0"/>
        <pt x="129" y="2" on="1"/>
        <pt x="97" y="2" on="0"/>
        <pt x="27" y="0" on="0"/>
        <pt x="-5" y="0" on="1"/>
        <pt x="-22" y="0" on="0"/>
        <pt x="-42" y="12" on="0"/>
        <pt x="-42" y="27" on="1"/>
        <pt x="-42" y="43" on="0"/>
        <pt x="-19" y="57" on="0"/>
        <pt x="-3" y="57" on="1"/>
        <pt x="9" y="57" on="0"/>
        <pt x="42" y="59" on="0"/>
        <pt x="72" y="61" on="0"/>
        <pt x="95" y="63" on="0"/>
        <pt x="98" y="63" on="1"/>
        <pt x="120" y="65" on="0"/>
        <pt x="144" y="83" on="0"/>
        <pt x="155" y="101" on="1"/>
        <pt x="179" y="140" on="0"/>
        <pt x="234" y="245" on="0"/>
        <pt x="294" y="365" on="0"/>
        <pt x="355" y="491" on="0"/>
        <pt x="412" y="610" on="0"/>
        <pt x="463" y="713" on="0"/>
        <pt x="483" y="751" on="1"/>
        <pt x="472" y="756" on="0"/>
        <pt x="445" y="757" on="0"/>
        <pt x="434" y="757" on="1"/>
        <pt x="430" y="757" on="0"/>
        <pt x="416" y="759" on="0"/>
        <pt x="403" y="765" on="0"/>
        <pt x="394" y="776" on="0"/>
        <pt x="394" y="785" on="1"/>
        <pt x="394" y="798" on="0"/>
        <pt x="406" y="813" on="0"/>
        <pt x="424" y="820" on="0"/>
        <pt x="444" y="821" on="0"/>
        <pt x="452" y="821" on="1"/>
        <pt x="485" y="821" on="0"/>
        <pt x="555" y="820" on="0"/>
        <pt x="619" y="820" on="0"/>
        <pt x="674" y="819" on="0"/>
        <pt x="693" y="819" on="1"/>
        <pt x="738" y="819" on="0"/>
        <pt x="796" y="820" on="0"/>
        <pt x="850" y="820" on="0"/>
        <pt x="917" y="821" on="0"/>
        <pt x="971" y="821" on="1"/>
        <pt x="985" y="821" on="0"/>
        <pt x="999" y="806" on="0"/>
        <pt x="999" y="785" on="1"/>
        <pt x="999" y="651" on="1"/>
        <pt x="999" y="632" on="0"/>
        <pt x="980" y="599" on="0"/>
        <pt x="955" y="599" on="1"/>
        <pt x="940" y="599" on="0"/>
        <pt x="922" y="608" on="0"/>
        <pt x="913" y="622" on="0"/>
        <pt x="911" y="638" on="0"/>
        <pt x="911" y="645" on="1"/>
        <pt x="911" y="709" on="1"/>
        <pt x="911" y="726" on="0"/>
        <pt x="892" y="737" on="0"/>
        <pt x="874" y="737" on="1"/>
        <pt x="622" y="737" on="1"/>
        <pt x="622" y="464" on="1"/>
        <pt x="638" y="463" on="0"/>
        <pt x="668" y="461" on="0"/>
        <pt x="685" y="461" on="1"/>
        <pt x="699" y="461" on="0"/>
        <pt x="733" y="462" on="0"/>
        <pt x="764" y="463" on="0"/>
        <pt x="788" y="464" on="0"/>
        <pt x="793" y="464" on="1"/>
        <pt x="803" y="464" on="0"/>
        <pt x="810" y="499" on="0"/>
        <pt x="810" y="530" on="1"/>
        <pt x="810" y="556" on="0"/>
        <pt x="837" y="570" on="0"/>
        <pt x="854" y="570" on="1"/>
        <pt x="877" y="570" on="0"/>
        <pt x="895" y="544" on="0"/>
        <pt x="895" y="533" on="1"/>
        <pt x="895" y="504" on="0"/>
        <pt x="893" y="449" on="0"/>
        <pt x="893" y="420" on="1"/>
        <pt x="893" y="391" on="0"/>
        <pt x="895" y="335" on="0"/>
        <pt x="895" y="307" on="1"/>
        <pt x="895" y="293" on="0"/>
        <pt x="877" y="270" on="0"/>
        <pt x="853" y="270" on="1"/>
        <pt x="832" y="270" on="0"/>
        <pt x="812" y="296" on="0"/>
        <pt x="812" y="309" on="1"/>
        <pt x="812" y="319" on="0"/>
        <pt x="808" y="343" on="0"/>
        <pt x="798" y="364" on="0"/>
        <pt x="779" y="378" on="0"/>
        <pt x="764" y="378" on="1"/>
        <pt x="750" y="378" on="0"/>
        <pt x="714" y="379" on="0"/>
        <pt x="685" y="379" on="1"/>
        <pt x="669" y="379" on="0"/>
        <pt x="638" y="378" on="0"/>
        <pt x="622" y="377" on="1"/>
        <pt x="622" y="84" on="1"/>
        <pt x="900" y="84" on="1"/>
        <pt x="907" y="84" on="0"/>
        <pt x="922" y="86" on="0"/>
        <pt x="934" y="93" on="0"/>
        <pt x="942" y="108" on="0"/>
        <pt x="943" y="121" on="1"/>
        <pt x="943" y="126" on="0"/>
        <pt x="947" y="162" on="0"/>
        <pt x="951" y="207" on="0"/>
        <pt x="955" y="255" on="0"/>
        <pt x="956" y="273" on="1"/>
        <pt x="957" y="293" on="0"/>
        <pt x="976" y="326" on="0"/>
      </contour>
      <contour>
        <pt x="413" y="296" on="1"/>
        <pt x="442" y="296" on="0"/>
        <pt x="500" y="296" on="0"/>
        <pt x="529" y="297" on="1"/>
        <pt x="530" y="321" on="0"/>
        <pt x="530" y="382" on="0"/>
        <pt x="530" y="425" on="1"/>
        <pt x="530" y="481" on="0"/>
        <pt x="528" y="543" on="0"/>
        <pt x="526" y="586" on="0"/>
        <pt x="524" y="626" on="0"/>
        <pt x="524" y="660" on="1"/>
        <pt x="524" y="664" on="1"/>
        <pt x="513" y="635" on="0"/>
        <pt x="465" y="546" on="0"/>
        <pt x="410" y="445" on="0"/>
        <pt x="357" y="341" on="0"/>
        <pt x="341" y="298" on="1"/>
        <pt x="358" y="297" on="0"/>
        <pt x="395" y="296" on="0"/>
      </contour>
    </TTGlyph>
    <TTGlyph name="AEacute" xMin="-42" yMin="0" xMax="1043" yMax="972">
      <contour>
        <pt x="671" y="936" on="1"/>
        <pt x="671" y="921" on="0"/>
        <pt x="643" y="888" on="0"/>
        <pt x="605" y="860" on="0"/>
        <pt x="565" y="841" on="0"/>
        <pt x="552" y="841" on="1"/>
        <pt x="536" y="841" on="0"/>
        <pt x="516" y="860" on="0"/>
        <pt x="516" y="871" on="1"/>
        <pt x="516" y="881" on="0"/>
        <pt x="541" y="916" on="0"/>
        <pt x="577" y="948" on="0"/>
        <pt x="616" y="972" on="0"/>
        <pt x="630" y="972" on="1"/>
        <pt x="650" y="972" on="0"/>
        <pt x="671" y="949" on="0"/>
      </contour>
      <contour>
        <pt x="1002" y="326" on="1"/>
        <pt x="1015" y="326" on="0"/>
        <pt x="1032" y="315" on="0"/>
        <pt x="1040" y="300" on="0"/>
        <pt x="1043" y="283" on="0"/>
        <pt x="1043" y="277" on="1"/>
        <pt x="1043" y="268" on="0"/>
        <pt x="1041" y="213" on="0"/>
        <pt x="1037" y="141" on="0"/>
        <pt x="1031" y="63" on="0"/>
        <pt x="1027" y="33" on="1"/>
        <pt x="1025" y="16" on="0"/>
        <pt x="1007" y="0" on="0"/>
        <pt x="985" y="0" on="1"/>
        <pt x="911" y="0" on="0"/>
        <pt x="771" y="2" on="0"/>
        <pt x="697" y="2" on="1"/>
        <pt x="636" y="2" on="0"/>
        <pt x="515" y="0" on="0"/>
        <pt x="454" y="0" on="1"/>
        <pt x="439" y="0" on="0"/>
        <pt x="408" y="14" on="0"/>
        <pt x="408" y="32" on="1"/>
        <pt x="408" y="49" on="0"/>
        <pt x="427" y="60" on="0"/>
        <pt x="447" y="60" on="1"/>
        <pt x="494" y="60" on="0"/>
        <pt x="528" y="75" on="0"/>
        <pt x="528" y="96" on="1"/>
        <pt x="528" y="135" on="0"/>
        <pt x="529" y="186" on="0"/>
        <pt x="529" y="214" on="1"/>
        <pt x="321" y="214" on="1"/>
        <pt x="308" y="193" on="0"/>
        <pt x="280" y="145" on="0"/>
        <pt x="257" y="102" on="0"/>
        <pt x="242" y="71" on="0"/>
        <pt x="242" y="68" on="1"/>
        <pt x="242" y="64" on="0"/>
        <pt x="258" y="61" on="0"/>
        <pt x="270" y="60" on="1"/>
        <pt x="280" y="59" on="0"/>
        <pt x="293" y="46" on="0"/>
        <pt x="293" y="31" on="1"/>
        <pt x="293" y="11" on="0"/>
        <pt x="268" y="0" on="0"/>
        <pt x="248" y="0" on="1"/>
        <pt x="216" y="0" on="0"/>
        <pt x="161" y="2" on="0"/>
        <pt x="129" y="2" on="1"/>
        <pt x="97" y="2" on="0"/>
        <pt x="27" y="0" on="0"/>
        <pt x="-5" y="0" on="1"/>
        <pt x="-22" y="0" on="0"/>
        <pt x="-42" y="12" on="0"/>
        <pt x="-42" y="27" on="1"/>
        <pt x="-42" y="43" on="0"/>
        <pt x="-19" y="57" on="0"/>
        <pt x="-3" y="57" on="1"/>
        <pt x="9" y="57" on="0"/>
        <pt x="42" y="59" on="0"/>
        <pt x="72" y="61" on="0"/>
        <pt x="95" y="63" on="0"/>
        <pt x="98" y="63" on="1"/>
        <pt x="120" y="65" on="0"/>
        <pt x="144" y="83" on="0"/>
        <pt x="155" y="101" on="1"/>
        <pt x="179" y="140" on="0"/>
        <pt x="234" y="245" on="0"/>
        <pt x="294" y="365" on="0"/>
        <pt x="355" y="491" on="0"/>
        <pt x="412" y="610" on="0"/>
        <pt x="463" y="713" on="0"/>
        <pt x="483" y="751" on="1"/>
        <pt x="472" y="756" on="0"/>
        <pt x="445" y="757" on="0"/>
        <pt x="434" y="757" on="1"/>
        <pt x="430" y="757" on="0"/>
        <pt x="416" y="759" on="0"/>
        <pt x="403" y="765" on="0"/>
        <pt x="394" y="776" on="0"/>
        <pt x="394" y="785" on="1"/>
        <pt x="394" y="798" on="0"/>
        <pt x="406" y="813" on="0"/>
        <pt x="424" y="820" on="0"/>
        <pt x="444" y="821" on="0"/>
        <pt x="452" y="821" on="1"/>
        <pt x="485" y="821" on="0"/>
        <pt x="555" y="820" on="0"/>
        <pt x="619" y="820" on="0"/>
        <pt x="674" y="819" on="0"/>
        <pt x="693" y="819" on="1"/>
        <pt x="738" y="819" on="0"/>
        <pt x="796" y="820" on="0"/>
        <pt x="850" y="820" on="0"/>
        <pt x="917" y="821" on="0"/>
        <pt x="971" y="821" on="1"/>
        <pt x="985" y="821" on="0"/>
        <pt x="999" y="806" on="0"/>
        <pt x="999" y="785" on="1"/>
        <pt x="999" y="651" on="1"/>
        <pt x="999" y="632" on="0"/>
        <pt x="980" y="599" on="0"/>
        <pt x="955" y="599" on="1"/>
        <pt x="940" y="599" on="0"/>
        <pt x="922" y="608" on="0"/>
        <pt x="913" y="622" on="0"/>
        <pt x="911" y="638" on="0"/>
        <pt x="911" y="645" on="1"/>
        <pt x="911" y="709" on="1"/>
        <pt x="911" y="726" on="0"/>
        <pt x="892" y="737" on="0"/>
        <pt x="874" y="737" on="1"/>
        <pt x="622" y="737" on="1"/>
        <pt x="622" y="464" on="1"/>
        <pt x="638" y="463" on="0"/>
        <pt x="668" y="461" on="0"/>
        <pt x="685" y="461" on="1"/>
        <pt x="699" y="461" on="0"/>
        <pt x="733" y="462" on="0"/>
        <pt x="764" y="463" on="0"/>
        <pt x="788" y="464" on="0"/>
        <pt x="793" y="464" on="1"/>
        <pt x="803" y="464" on="0"/>
        <pt x="810" y="499" on="0"/>
        <pt x="810" y="530" on="1"/>
        <pt x="810" y="556" on="0"/>
        <pt x="837" y="570" on="0"/>
        <pt x="854" y="570" on="1"/>
        <pt x="877" y="570" on="0"/>
        <pt x="895" y="544" on="0"/>
        <pt x="895" y="533" on="1"/>
        <pt x="895" y="504" on="0"/>
        <pt x="893" y="449" on="0"/>
        <pt x="893" y="420" on="1"/>
        <pt x="893" y="391" on="0"/>
        <pt x="895" y="335" on="0"/>
        <pt x="895" y="307" on="1"/>
        <pt x="895" y="293" on="0"/>
        <pt x="877" y="270" on="0"/>
        <pt x="853" y="270" on="1"/>
        <pt x="832" y="270" on="0"/>
        <pt x="812" y="296" on="0"/>
        <pt x="812" y="309" on="1"/>
        <pt x="812" y="319" on="0"/>
        <pt x="808" y="343" on="0"/>
        <pt x="798" y="364" on="0"/>
        <pt x="779" y="378" on="0"/>
        <pt x="764" y="378" on="1"/>
        <pt x="750" y="378" on="0"/>
        <pt x="714" y="379" on="0"/>
        <pt x="685" y="379" on="1"/>
        <pt x="669" y="379" on="0"/>
        <pt x="638" y="378" on="0"/>
        <pt x="622" y="377" on="1"/>
        <pt x="622" y="84" on="1"/>
        <pt x="900" y="84" on="1"/>
        <pt x="907" y="84" on="0"/>
        <pt x="922" y="86" on="0"/>
        <pt x="934" y="93" on="0"/>
        <pt x="942" y="108" on="0"/>
        <pt x="943" y="121" on="1"/>
        <pt x="943" y="126" on="0"/>
        <pt x="947" y="162" on="0"/>
        <pt x="951" y="207" on="0"/>
        <pt x="955" y="255" on="0"/>
        <pt x="956" y="273" on="1"/>
        <pt x="957" y="293" on="0"/>
        <pt x="976" y="326" on="0"/>
      </contour>
      <contour>
        <pt x="413" y="296" on="1"/>
        <pt x="442" y="296" on="0"/>
        <pt x="500" y="296" on="0"/>
        <pt x="529" y="297" on="1"/>
        <pt x="530" y="321" on="0"/>
        <pt x="530" y="382" on="0"/>
        <pt x="530" y="425" on="1"/>
        <pt x="530" y="481" on="0"/>
        <pt x="528" y="543" on="0"/>
        <pt x="526" y="586" on="0"/>
        <pt x="524" y="626" on="0"/>
        <pt x="524" y="660" on="1"/>
        <pt x="524" y="664" on="1"/>
        <pt x="513" y="635" on="0"/>
        <pt x="465" y="546" on="0"/>
        <pt x="410" y="445" on="0"/>
        <pt x="357" y="341" on="0"/>
        <pt x="341" y="298" on="1"/>
        <pt x="358" y="297" on="0"/>
        <pt x="395" y="296" on="0"/>
      </contour>
    </TTGlyph>
    <TTGlyph name="Aacute" xMin="-28" yMin="-55" xMax="777" yMax="972">
      <contour>
        <pt x="449" y="936" on="1"/>
        <pt x="449" y="921" on="0"/>
        <pt x="421" y="888" on="0"/>
        <pt x="382" y="860" on="0"/>
        <pt x="342" y="841" on="0"/>
        <pt x="329" y="841" on="1"/>
        <pt x="314" y="841" on="0"/>
        <pt x="294" y="860" on="0"/>
        <pt x="294" y="872" on="1"/>
        <pt x="294" y="882" on="0"/>
        <pt x="319" y="916" on="0"/>
        <pt x="355" y="949" on="0"/>
        <pt x="394" y="972" on="0"/>
        <pt x="408" y="972" on="1"/>
        <pt x="428" y="972" on="0"/>
        <pt x="449" y="949" on="0"/>
      </contour>
      <contour>
        <pt x="613" y="35" on="1"/>
        <pt x="615" y="26" on="0"/>
        <pt x="626" y="14" on="0"/>
        <pt x="652" y="6" on="0"/>
        <pt x="697" y="3" on="0"/>
        <pt x="733" y="3" on="1"/>
        <pt x="747" y="3" on="0"/>
        <pt x="777" y="-8" on="0"/>
        <pt x="777" y="-25" on="1"/>
        <pt x="777" y="-43" on="0"/>
        <pt x="759" y="-55" on="0"/>
        <pt x="742" y="-55" on="1"/>
        <pt x="495" y="-55" on="1"/>
        <pt x="477" y="-55" on="0"/>
        <pt x="464" y="-41" on="0"/>
        <pt x="464" y="-33" on="1"/>
        <pt x="464" y="-17" on="0"/>
        <pt x="481" y="-8" on="0"/>
        <pt x="500" y="-1" on="0"/>
        <pt x="517" y="14" on="0"/>
        <pt x="517" y="35" on="1"/>
        <pt x="517" y="42" on="0"/>
        <pt x="505" y="92" on="0"/>
        <pt x="489" y="150" on="0"/>
        <pt x="473" y="203" on="0"/>
        <pt x="470" y="214" on="1"/>
        <pt x="238" y="214" on="1"/>
        <pt x="231" y="197" on="0"/>
        <pt x="218" y="156" on="0"/>
        <pt x="208" y="117" on="0"/>
        <pt x="202" y="85" on="0"/>
        <pt x="202" y="77" on="1"/>
        <pt x="202" y="69" on="0"/>
        <pt x="239" y="61" on="0"/>
        <pt x="274" y="61" on="1"/>
        <pt x="290" y="61" on="0"/>
        <pt x="307" y="47" on="0"/>
        <pt x="307" y="29" on="1"/>
        <pt x="307" y="18" on="0"/>
        <pt x="293" y="0" on="0"/>
        <pt x="273" y="0" on="1"/>
        <pt x="-5" y="0" on="1"/>
        <pt x="-14" y="0" on="0"/>
        <pt x="-28" y="16" on="0"/>
        <pt x="-28" y="30" on="1"/>
        <pt x="-28" y="43" on="0"/>
        <pt x="-9" y="57" on="0"/>
        <pt x="1" y="57" on="1"/>
        <pt x="3" y="57" on="0"/>
        <pt x="19" y="59" on="0"/>
        <pt x="39" y="61" on="0"/>
        <pt x="56" y="63" on="0"/>
        <pt x="58" y="63" on="1"/>
        <pt x="76" y="65" on="0"/>
        <pt x="100" y="81" on="0"/>
        <pt x="107" y="101" on="1"/>
        <pt x="121" y="142" on="0"/>
        <pt x="156" y="259" on="0"/>
        <pt x="194" y="391" on="0"/>
        <pt x="232" y="529" on="0"/>
        <pt x="266" y="655" on="0"/>
        <pt x="295" y="760" on="0"/>
        <pt x="305" y="792" on="1"/>
        <pt x="312" y="815" on="0"/>
        <pt x="333" y="838" on="0"/>
        <pt x="359" y="838" on="1"/>
        <pt x="380" y="838" on="0"/>
        <pt x="404" y="816" on="0"/>
        <pt x="410" y="793" on="1"/>
      </contour>
      <contour>
        <pt x="362" y="691" on="1"/>
        <pt x="355" y="664" on="0"/>
        <pt x="330" y="565" on="0"/>
        <pt x="301" y="451" on="0"/>
        <pt x="273" y="338" on="0"/>
        <pt x="262" y="298" on="1"/>
        <pt x="277" y="298" on="0"/>
        <pt x="300" y="297" on="0"/>
        <pt x="320" y="296" on="0"/>
        <pt x="343" y="296" on="0"/>
        <pt x="358" y="296" on="1"/>
        <pt x="367" y="296" on="0"/>
        <pt x="392" y="296" on="0"/>
        <pt x="419" y="297" on="0"/>
        <pt x="444" y="298" on="0"/>
        <pt x="453" y="298" on="1"/>
        <pt x="441" y="342" on="0"/>
        <pt x="416" y="440" on="0"/>
        <pt x="393" y="541" on="0"/>
        <pt x="371" y="643" on="0"/>
      </contour>
    </TTGlyph>
    <TTGlyph name="Abreve" xMin="-28" yMin="-55" xMax="777" yMax="971">
      <contour>
        <pt x="613" y="35" on="1"/>
        <pt x="615" y="26" on="0"/>
        <pt x="626" y="14" on="0"/>
        <pt x="652" y="6" on="0"/>
        <pt x="697" y="3" on="0"/>
        <pt x="733" y="3" on="1"/>
        <pt x="747" y="3" on="0"/>
        <pt x="777" y="-8" on="0"/>
        <pt x="777" y="-25" on="1"/>
        <pt x="777" y="-43" on="0"/>
        <pt x="759" y="-55" on="0"/>
        <pt x="742" y="-55" on="1"/>
        <pt x="495" y="-55" on="1"/>
        <pt x="477" y="-55" on="0"/>
        <pt x="464" y="-41" on="0"/>
        <pt x="464" y="-33" on="1"/>
        <pt x="464" y="-17" on="0"/>
        <pt x="481" y="-8" on="0"/>
        <pt x="500" y="-1" on="0"/>
        <pt x="517" y="14" on="0"/>
        <pt x="517" y="35" on="1"/>
        <pt x="517" y="42" on="0"/>
        <pt x="505" y="92" on="0"/>
        <pt x="489" y="150" on="0"/>
        <pt x="473" y="203" on="0"/>
        <pt x="470" y="214" on="1"/>
        <pt x="238" y="214" on="1"/>
        <pt x="231" y="197" on="0"/>
        <pt x="218" y="156" on="0"/>
        <pt x="208" y="117" on="0"/>
        <pt x="202" y="85" on="0"/>
        <pt x="202" y="77" on="1"/>
        <pt x="202" y="69" on="0"/>
        <pt x="239" y="61" on="0"/>
        <pt x="274" y="61" on="1"/>
        <pt x="290" y="61" on="0"/>
        <pt x="307" y="47" on="0"/>
        <pt x="307" y="29" on="1"/>
        <pt x="307" y="18" on="0"/>
        <pt x="293" y="0" on="0"/>
        <pt x="273" y="0" on="1"/>
        <pt x="-5" y="0" on="1"/>
        <pt x="-14" y="0" on="0"/>
        <pt x="-28" y="16" on="0"/>
        <pt x="-28" y="30" on="1"/>
        <pt x="-28" y="43" on="0"/>
        <pt x="-9" y="57" on="0"/>
        <pt x="1" y="57" on="1"/>
        <pt x="3" y="57" on="0"/>
        <pt x="19" y="59" on="0"/>
        <pt x="39" y="61" on="0"/>
        <pt x="56" y="63" on="0"/>
        <pt x="58" y="63" on="1"/>
        <pt x="76" y="65" on="0"/>
        <pt x="100" y="81" on="0"/>
        <pt x="107" y="101" on="1"/>
        <pt x="121" y="142" on="0"/>
        <pt x="156" y="259" on="0"/>
        <pt x="194" y="391" on="0"/>
        <pt x="232" y="529" on="0"/>
        <pt x="266" y="655" on="0"/>
        <pt x="295" y="760" on="0"/>
        <pt x="305" y="792" on="1"/>
        <pt x="312" y="815" on="0"/>
        <pt x="333" y="838" on="0"/>
        <pt x="359" y="838" on="1"/>
        <pt x="380" y="838" on="0"/>
        <pt x="404" y="816" on="0"/>
        <pt x="410" y="793" on="1"/>
      </contour>
      <contour>
        <pt x="362" y="691" on="1"/>
        <pt x="355" y="664" on="0"/>
        <pt x="330" y="565" on="0"/>
        <pt x="301" y="451" on="0"/>
        <pt x="273" y="338" on="0"/>
        <pt x="262" y="298" on="1"/>
        <pt x="277" y="298" on="0"/>
        <pt x="300" y="297" on="0"/>
        <pt x="320" y="296" on="0"/>
        <pt x="343" y="296" on="0"/>
        <pt x="358" y="296" on="1"/>
        <pt x="367" y="296" on="0"/>
        <pt x="392" y="296" on="0"/>
        <pt x="419" y="297" on="0"/>
        <pt x="444" y="298" on="0"/>
        <pt x="453" y="298" on="1"/>
        <pt x="441" y="342" on="0"/>
        <pt x="416" y="440" on="0"/>
        <pt x="393" y="541" on="0"/>
        <pt x="371" y="643" on="0"/>
      </contour>
      <contour>
        <pt x="495" y="941" on="1"/>
        <pt x="495" y="921" on="0"/>
        <pt x="472" y="892" on="0"/>
        <pt x="436" y="872" on="0"/>
        <pt x="393" y="862" on="0"/>
        <pt x="374" y="862" on="1"/>
        <pt x="309" y="862" on="0"/>
        <pt x="242" y="909" on="0"/>
        <pt x="242" y="941" on="1"/>
        <pt x="242" y="954" on="0"/>
        <pt x="257" y="971" on="0"/>
        <pt x="274" y="971" on="1"/>
        <pt x="291" y="971" on="0"/>
        <pt x="310" y="959" on="0"/>
        <pt x="310" y="942" on="1"/>
        <pt x="310" y="936" on="0"/>
        <pt x="321" y="927" on="0"/>
        <pt x="339" y="921" on="0"/>
        <pt x="360" y="919" on="0"/>
        <pt x="369" y="919" on="1"/>
        <pt x="398" y="919" on="0"/>
        <pt x="425" y="934" on="0"/>
        <pt x="425" y="942" on="1"/>
        <pt x="425" y="953" on="0"/>
        <pt x="444" y="971" on="0"/>
        <pt x="457" y="971" on="1"/>
        <pt x="472" y="971" on="0"/>
        <pt x="495" y="961" on="0"/>
      </contour>
    </TTGlyph>
    <TTGlyph name="Acircumflex" xMin="-28" yMin="-55" xMax="777" yMax="972">
      <contour>
        <pt x="488" y="832" on="1"/>
        <pt x="477" y="832" on="0"/>
        <pt x="408" y="858" on="0"/>
        <pt x="368" y="880" on="1"/>
        <pt x="328" y="858" on="0"/>
        <pt x="260" y="832" on="0"/>
        <pt x="249" y="832" on="1"/>
        <pt x="242" y="832" on="0"/>
        <pt x="236" y="841" on="0"/>
        <pt x="236" y="846" on="1"/>
        <pt x="236" y="865" on="0"/>
        <pt x="272" y="910" on="0"/>
        <pt x="318" y="947" on="0"/>
        <pt x="361" y="972" on="0"/>
        <pt x="368" y="972" on="1"/>
        <pt x="377" y="972" on="0"/>
        <pt x="420" y="947" on="0"/>
        <pt x="466" y="910" on="0"/>
        <pt x="501" y="868" on="0"/>
        <pt x="501" y="852" on="1"/>
        <pt x="501" y="845" on="0"/>
        <pt x="496" y="832" on="0"/>
      </contour>
      <contour>
        <pt x="613" y="35" on="1"/>
        <pt x="615" y="26" on="0"/>
        <pt x="626" y="14" on="0"/>
        <pt x="652" y="6" on="0"/>
        <pt x="697" y="3" on="0"/>
        <pt x="733" y="3" on="1"/>
        <pt x="747" y="3" on="0"/>
        <pt x="777" y="-8" on="0"/>
        <pt x="777" y="-25" on="1"/>
        <pt x="777" y="-43" on="0"/>
        <pt x="759" y="-55" on="0"/>
        <pt x="742" y="-55" on="1"/>
        <pt x="495" y="-55" on="1"/>
        <pt x="477" y="-55" on="0"/>
        <pt x="464" y="-41" on="0"/>
        <pt x="464" y="-33" on="1"/>
        <pt x="464" y="-17" on="0"/>
        <pt x="481" y="-8" on="0"/>
        <pt x="500" y="-1" on="0"/>
        <pt x="517" y="14" on="0"/>
        <pt x="517" y="35" on="1"/>
        <pt x="517" y="42" on="0"/>
        <pt x="505" y="92" on="0"/>
        <pt x="489" y="150" on="0"/>
        <pt x="473" y="203" on="0"/>
        <pt x="470" y="214" on="1"/>
        <pt x="238" y="214" on="1"/>
        <pt x="231" y="197" on="0"/>
        <pt x="218" y="156" on="0"/>
        <pt x="208" y="117" on="0"/>
        <pt x="202" y="85" on="0"/>
        <pt x="202" y="77" on="1"/>
        <pt x="202" y="69" on="0"/>
        <pt x="239" y="61" on="0"/>
        <pt x="274" y="61" on="1"/>
        <pt x="290" y="61" on="0"/>
        <pt x="307" y="47" on="0"/>
        <pt x="307" y="29" on="1"/>
        <pt x="307" y="18" on="0"/>
        <pt x="293" y="0" on="0"/>
        <pt x="273" y="0" on="1"/>
        <pt x="-5" y="0" on="1"/>
        <pt x="-14" y="0" on="0"/>
        <pt x="-28" y="16" on="0"/>
        <pt x="-28" y="30" on="1"/>
        <pt x="-28" y="43" on="0"/>
        <pt x="-9" y="57" on="0"/>
        <pt x="1" y="57" on="1"/>
        <pt x="3" y="57" on="0"/>
        <pt x="19" y="59" on="0"/>
        <pt x="39" y="61" on="0"/>
        <pt x="56" y="63" on="0"/>
        <pt x="58" y="63" on="1"/>
        <pt x="76" y="65" on="0"/>
        <pt x="100" y="81" on="0"/>
        <pt x="107" y="101" on="1"/>
        <pt x="121" y="142" on="0"/>
        <pt x="156" y="259" on="0"/>
        <pt x="194" y="391" on="0"/>
        <pt x="232" y="529" on="0"/>
        <pt x="266" y="655" on="0"/>
        <pt x="295" y="760" on="0"/>
        <pt x="305" y="792" on="1"/>
        <pt x="312" y="815" on="0"/>
        <pt x="333" y="838" on="0"/>
        <pt x="359" y="838" on="1"/>
        <pt x="380" y="838" on="0"/>
        <pt x="404" y="816" on="0"/>
        <pt x="410" y="793" on="1"/>
      </contour>
      <contour>
        <pt x="362" y="691" on="1"/>
        <pt x="355" y="664" on="0"/>
        <pt x="330" y="565" on="0"/>
        <pt x="301" y="451" on="0"/>
        <pt x="273" y="338" on="0"/>
        <pt x="262" y="298" on="1"/>
        <pt x="277" y="298" on="0"/>
        <pt x="300" y="297" on="0"/>
        <pt x="320" y="296" on="0"/>
        <pt x="343" y="296" on="0"/>
        <pt x="358" y="296" on="1"/>
        <pt x="367" y="296" on="0"/>
        <pt x="392" y="296" on="0"/>
        <pt x="419" y="297" on="0"/>
        <pt x="444" y="298" on="0"/>
        <pt x="453" y="298" on="1"/>
        <pt x="441" y="342" on="0"/>
        <pt x="416" y="440" on="0"/>
        <pt x="393" y="541" on="0"/>
        <pt x="371" y="643" on="0"/>
      </contour>
    </TTGlyph>
    <TTGlyph name="Adieresis" xMin="-28" yMin="-55" xMax="777" yMax="972">
      <contour>
        <pt x="197" y="907" on="1"/>
        <pt x="197" y="915" on="0"/>
        <pt x="204" y="938" on="0"/>
        <pt x="220" y="958" on="0"/>
        <pt x="245" y="972" on="0"/>
        <pt x="263" y="972" on="1"/>
        <pt x="287" y="972" on="0"/>
        <pt x="323" y="938" on="0"/>
        <pt x="323" y="911" on="1"/>
        <pt x="323" y="890" on="0"/>
        <pt x="310" y="863" on="0"/>
        <pt x="291" y="847" on="0"/>
        <pt x="267" y="841" on="0"/>
        <pt x="256" y="841" on="1"/>
        <pt x="231" y="841" on="0"/>
        <pt x="197" y="878" on="0"/>
      </contour>
      <contour>
        <pt x="404" y="896" on="1"/>
        <pt x="404" y="904" on="0"/>
        <pt x="411" y="927" on="0"/>
        <pt x="427" y="947" on="0"/>
        <pt x="452" y="961" on="0"/>
        <pt x="470" y="961" on="1"/>
        <pt x="494" y="961" on="0"/>
        <pt x="530" y="928" on="0"/>
        <pt x="530" y="900" on="1"/>
        <pt x="530" y="879" on="0"/>
        <pt x="517" y="852" on="0"/>
        <pt x="498" y="836" on="0"/>
        <pt x="474" y="830" on="0"/>
        <pt x="463" y="830" on="1"/>
        <pt x="438" y="830" on="0"/>
        <pt x="404" y="867" on="0"/>
      </contour>
      <contour>
        <pt x="613" y="35" on="1"/>
        <pt x="615" y="26" on="0"/>
        <pt x="626" y="14" on="0"/>
        <pt x="652" y="6" on="0"/>
        <pt x="697" y="3" on="0"/>
        <pt x="733" y="3" on="1"/>
        <pt x="747" y="3" on="0"/>
        <pt x="777" y="-8" on="0"/>
        <pt x="777" y="-25" on="1"/>
        <pt x="777" y="-43" on="0"/>
        <pt x="759" y="-55" on="0"/>
        <pt x="742" y="-55" on="1"/>
        <pt x="495" y="-55" on="1"/>
        <pt x="477" y="-55" on="0"/>
        <pt x="464" y="-41" on="0"/>
        <pt x="464" y="-33" on="1"/>
        <pt x="464" y="-17" on="0"/>
        <pt x="481" y="-8" on="0"/>
        <pt x="500" y="-1" on="0"/>
        <pt x="517" y="14" on="0"/>
        <pt x="517" y="35" on="1"/>
        <pt x="517" y="42" on="0"/>
        <pt x="505" y="92" on="0"/>
        <pt x="489" y="150" on="0"/>
        <pt x="473" y="203" on="0"/>
        <pt x="470" y="214" on="1"/>
        <pt x="238" y="214" on="1"/>
        <pt x="231" y="197" on="0"/>
        <pt x="218" y="156" on="0"/>
        <pt x="208" y="117" on="0"/>
        <pt x="202" y="85" on="0"/>
        <pt x="202" y="77" on="1"/>
        <pt x="202" y="69" on="0"/>
        <pt x="239" y="61" on="0"/>
        <pt x="274" y="61" on="1"/>
        <pt x="290" y="61" on="0"/>
        <pt x="307" y="47" on="0"/>
        <pt x="307" y="29" on="1"/>
        <pt x="307" y="18" on="0"/>
        <pt x="293" y="0" on="0"/>
        <pt x="273" y="0" on="1"/>
        <pt x="-5" y="0" on="1"/>
        <pt x="-14" y="0" on="0"/>
        <pt x="-28" y="16" on="0"/>
        <pt x="-28" y="30" on="1"/>
        <pt x="-28" y="43" on="0"/>
        <pt x="-9" y="57" on="0"/>
        <pt x="1" y="57" on="1"/>
        <pt x="3" y="57" on="0"/>
        <pt x="19" y="59" on="0"/>
        <pt x="39" y="61" on="0"/>
        <pt x="56" y="63" on="0"/>
        <pt x="58" y="63" on="1"/>
        <pt x="76" y="65" on="0"/>
        <pt x="100" y="81" on="0"/>
        <pt x="107" y="101" on="1"/>
        <pt x="121" y="142" on="0"/>
        <pt x="156" y="259" on="0"/>
        <pt x="194" y="391" on="0"/>
        <pt x="232" y="529" on="0"/>
        <pt x="266" y="655" on="0"/>
        <pt x="295" y="760" on="0"/>
        <pt x="305" y="792" on="1"/>
        <pt x="312" y="815" on="0"/>
        <pt x="333" y="838" on="0"/>
        <pt x="359" y="838" on="1"/>
        <pt x="380" y="838" on="0"/>
        <pt x="404" y="816" on="0"/>
        <pt x="410" y="793" on="1"/>
      </contour>
      <contour>
        <pt x="362" y="691" on="1"/>
        <pt x="355" y="664" on="0"/>
        <pt x="330" y="565" on="0"/>
        <pt x="301" y="451" on="0"/>
        <pt x="273" y="338" on="0"/>
        <pt x="262" y="298" on="1"/>
        <pt x="277" y="298" on="0"/>
        <pt x="300" y="297" on="0"/>
        <pt x="320" y="296" on="0"/>
        <pt x="343" y="296" on="0"/>
        <pt x="358" y="296" on="1"/>
        <pt x="367" y="296" on="0"/>
        <pt x="392" y="296" on="0"/>
        <pt x="419" y="297" on="0"/>
        <pt x="444" y="298" on="0"/>
        <pt x="453" y="298" on="1"/>
        <pt x="441" y="342" on="0"/>
        <pt x="416" y="440" on="0"/>
        <pt x="393" y="541" on="0"/>
        <pt x="371" y="643" on="0"/>
      </contour>
    </TTGlyph>
    <TTGlyph name="Agrave" xMin="-28" yMin="-55" xMax="777" yMax="972">
      <contour>
        <pt x="293" y="936" on="1"/>
        <pt x="293" y="949" on="0"/>
        <pt x="314" y="972" on="0"/>
        <pt x="334" y="972" on="1"/>
        <pt x="348" y="972" on="0"/>
        <pt x="387" y="949" on="0"/>
        <pt x="423" y="916" on="0"/>
        <pt x="448" y="882" on="0"/>
        <pt x="448" y="872" on="1"/>
        <pt x="448" y="860" on="0"/>
        <pt x="428" y="841" on="0"/>
        <pt x="413" y="841" on="1"/>
        <pt x="400" y="841" on="0"/>
        <pt x="359" y="860" on="0"/>
        <pt x="321" y="888" on="0"/>
        <pt x="293" y="921" on="0"/>
      </contour>
      <contour>
        <pt x="613" y="35" on="1"/>
        <pt x="615" y="26" on="0"/>
        <pt x="626" y="14" on="0"/>
        <pt x="652" y="6" on="0"/>
        <pt x="697" y="3" on="0"/>
        <pt x="733" y="3" on="1"/>
        <pt x="747" y="3" on="0"/>
        <pt x="777" y="-8" on="0"/>
        <pt x="777" y="-25" on="1"/>
        <pt x="777" y="-43" on="0"/>
        <pt x="759" y="-55" on="0"/>
        <pt x="742" y="-55" on="1"/>
        <pt x="495" y="-55" on="1"/>
        <pt x="477" y="-55" on="0"/>
        <pt x="464" y="-41" on="0"/>
        <pt x="464" y="-33" on="1"/>
        <pt x="464" y="-17" on="0"/>
        <pt x="481" y="-8" on="0"/>
        <pt x="500" y="-1" on="0"/>
        <pt x="517" y="14" on="0"/>
        <pt x="517" y="35" on="1"/>
        <pt x="517" y="42" on="0"/>
        <pt x="505" y="92" on="0"/>
        <pt x="489" y="150" on="0"/>
        <pt x="473" y="203" on="0"/>
        <pt x="470" y="214" on="1"/>
        <pt x="238" y="214" on="1"/>
        <pt x="231" y="197" on="0"/>
        <pt x="218" y="156" on="0"/>
        <pt x="208" y="117" on="0"/>
        <pt x="202" y="85" on="0"/>
        <pt x="202" y="77" on="1"/>
        <pt x="202" y="69" on="0"/>
        <pt x="239" y="61" on="0"/>
        <pt x="274" y="61" on="1"/>
        <pt x="290" y="61" on="0"/>
        <pt x="307" y="47" on="0"/>
        <pt x="307" y="29" on="1"/>
        <pt x="307" y="18" on="0"/>
        <pt x="293" y="0" on="0"/>
        <pt x="273" y="0" on="1"/>
        <pt x="-5" y="0" on="1"/>
        <pt x="-14" y="0" on="0"/>
        <pt x="-28" y="16" on="0"/>
        <pt x="-28" y="30" on="1"/>
        <pt x="-28" y="43" on="0"/>
        <pt x="-9" y="57" on="0"/>
        <pt x="1" y="57" on="1"/>
        <pt x="3" y="57" on="0"/>
        <pt x="19" y="59" on="0"/>
        <pt x="39" y="61" on="0"/>
        <pt x="56" y="63" on="0"/>
        <pt x="58" y="63" on="1"/>
        <pt x="76" y="65" on="0"/>
        <pt x="100" y="81" on="0"/>
        <pt x="107" y="101" on="1"/>
        <pt x="121" y="142" on="0"/>
        <pt x="156" y="259" on="0"/>
        <pt x="194" y="391" on="0"/>
        <pt x="232" y="529" on="0"/>
        <pt x="266" y="655" on="0"/>
        <pt x="295" y="760" on="0"/>
        <pt x="305" y="792" on="1"/>
        <pt x="312" y="815" on="0"/>
        <pt x="333" y="838" on="0"/>
        <pt x="359" y="838" on="1"/>
        <pt x="380" y="838" on="0"/>
        <pt x="404" y="816" on="0"/>
        <pt x="410" y="793" on="1"/>
      </contour>
      <contour>
        <pt x="362" y="691" on="1"/>
        <pt x="355" y="664" on="0"/>
        <pt x="330" y="565" on="0"/>
        <pt x="301" y="451" on="0"/>
        <pt x="273" y="338" on="0"/>
        <pt x="262" y="298" on="1"/>
        <pt x="277" y="298" on="0"/>
        <pt x="300" y="297" on="0"/>
        <pt x="320" y="296" on="0"/>
        <pt x="343" y="296" on="0"/>
        <pt x="358" y="296" on="1"/>
        <pt x="367" y="296" on="0"/>
        <pt x="392" y="296" on="0"/>
        <pt x="419" y="297" on="0"/>
        <pt x="444" y="298" on="0"/>
        <pt x="453" y="298" on="1"/>
        <pt x="441" y="342" on="0"/>
        <pt x="416" y="440" on="0"/>
        <pt x="393" y="541" on="0"/>
        <pt x="371" y="643" on="0"/>
      </contour>
    </TTGlyph>
    <TTGlyph name="Amacron" xMin="-28" yMin="-55" xMax="777" yMax="960">
      <contour>
        <pt x="613" y="35" on="1"/>
        <pt x="615" y="26" on="0"/>
        <pt x="626" y="14" on="0"/>
        <pt x="652" y="6" on="0"/>
        <pt x="697" y="3" on="0"/>
        <pt x="733" y="3" on="1"/>
        <pt x="747" y="3" on="0"/>
        <pt x="777" y="-8" on="0"/>
        <pt x="777" y="-25" on="1"/>
        <pt x="777" y="-43" on="0"/>
        <pt x="759" y="-55" on="0"/>
        <pt x="742" y="-55" on="1"/>
        <pt x="495" y="-55" on="1"/>
        <pt x="477" y="-55" on="0"/>
        <pt x="464" y="-41" on="0"/>
        <pt x="464" y="-33" on="1"/>
        <pt x="464" y="-17" on="0"/>
        <pt x="481" y="-8" on="0"/>
        <pt x="500" y="-1" on="0"/>
        <pt x="517" y="14" on="0"/>
        <pt x="517" y="35" on="1"/>
        <pt x="517" y="42" on="0"/>
        <pt x="505" y="92" on="0"/>
        <pt x="489" y="150" on="0"/>
        <pt x="473" y="203" on="0"/>
        <pt x="470" y="214" on="1"/>
        <pt x="238" y="214" on="1"/>
        <pt x="231" y="197" on="0"/>
        <pt x="218" y="156" on="0"/>
        <pt x="208" y="117" on="0"/>
        <pt x="202" y="85" on="0"/>
        <pt x="202" y="77" on="1"/>
        <pt x="202" y="69" on="0"/>
        <pt x="239" y="61" on="0"/>
        <pt x="274" y="61" on="1"/>
        <pt x="290" y="61" on="0"/>
        <pt x="307" y="47" on="0"/>
        <pt x="307" y="29" on="1"/>
        <pt x="307" y="18" on="0"/>
        <pt x="293" y="0" on="0"/>
        <pt x="273" y="0" on="1"/>
        <pt x="-5" y="0" on="1"/>
        <pt x="-14" y="0" on="0"/>
        <pt x="-28" y="16" on="0"/>
        <pt x="-28" y="30" on="1"/>
        <pt x="-28" y="43" on="0"/>
        <pt x="-9" y="57" on="0"/>
        <pt x="1" y="57" on="1"/>
        <pt x="3" y="57" on="0"/>
        <pt x="19" y="59" on="0"/>
        <pt x="39" y="61" on="0"/>
        <pt x="56" y="63" on="0"/>
        <pt x="58" y="63" on="1"/>
        <pt x="76" y="65" on="0"/>
        <pt x="100" y="81" on="0"/>
        <pt x="107" y="101" on="1"/>
        <pt x="121" y="142" on="0"/>
        <pt x="156" y="259" on="0"/>
        <pt x="194" y="391" on="0"/>
        <pt x="232" y="529" on="0"/>
        <pt x="266" y="655" on="0"/>
        <pt x="295" y="760" on="0"/>
        <pt x="305" y="792" on="1"/>
        <pt x="312" y="815" on="0"/>
        <pt x="333" y="838" on="0"/>
        <pt x="359" y="838" on="1"/>
        <pt x="380" y="838" on="0"/>
        <pt x="404" y="816" on="0"/>
        <pt x="410" y="793" on="1"/>
      </contour>
      <contour>
        <pt x="362" y="691" on="1"/>
        <pt x="355" y="664" on="0"/>
        <pt x="330" y="565" on="0"/>
        <pt x="301" y="451" on="0"/>
        <pt x="273" y="338" on="0"/>
        <pt x="262" y="298" on="1"/>
        <pt x="277" y="298" on="0"/>
        <pt x="300" y="297" on="0"/>
        <pt x="320" y="296" on="0"/>
        <pt x="343" y="296" on="0"/>
        <pt x="358" y="296" on="1"/>
        <pt x="367" y="296" on="0"/>
        <pt x="392" y="296" on="0"/>
        <pt x="419" y="297" on="0"/>
        <pt x="444" y="298" on="0"/>
        <pt x="453" y="298" on="1"/>
        <pt x="441" y="342" on="0"/>
        <pt x="416" y="440" on="0"/>
        <pt x="393" y="541" on="0"/>
        <pt x="371" y="643" on="0"/>
      </contour>
      <contour>
        <pt x="507" y="960" on="1"/>
        <pt x="518" y="960" on="0"/>
        <pt x="535" y="938" on="0"/>
        <pt x="535" y="923" on="1"/>
        <pt x="535" y="918" on="0"/>
        <pt x="532" y="903" on="0"/>
        <pt x="524" y="890" on="0"/>
        <pt x="510" y="881" on="0"/>
        <pt x="499" y="881" on="1"/>
        <pt x="479" y="881" on="0"/>
        <pt x="412" y="881" on="0"/>
        <pt x="340" y="880" on="0"/>
        <pt x="276" y="880" on="0"/>
        <pt x="258" y="880" on="1"/>
        <pt x="244" y="880" on="0"/>
        <pt x="225" y="906" on="0"/>
        <pt x="225" y="920" on="1"/>
        <pt x="225" y="934" on="0"/>
        <pt x="241" y="959" on="0"/>
        <pt x="258" y="959" on="1"/>
        <pt x="265" y="959" on="0"/>
        <pt x="295" y="958" on="0"/>
        <pt x="331" y="958" on="0"/>
        <pt x="366" y="957" on="0"/>
        <pt x="379" y="957" on="1"/>
        <pt x="421" y="957" on="0"/>
        <pt x="483" y="960" on="0"/>
      </contour>
    </TTGlyph>
    <TTGlyph name="Aogonek" xMin="-28" yMin="-212" xMax="777" yMax="838">
      <contour>
        <pt x="622" y="-212" on="1"/>
        <pt x="602" y="-212" on="0"/>
        <pt x="563" y="-203" on="0"/>
        <pt x="532" y="-184" on="0"/>
        <pt x="512" y="-156" on="0"/>
        <pt x="512" y="-137" on="1"/>
        <pt x="512" y="-121" on="0"/>
        <pt x="526" y="-95" on="0"/>
        <pt x="547" y="-74" on="0"/>
        <pt x="570" y="-60" on="0"/>
        <pt x="579" y="-55" on="1"/>
        <pt x="495" y="-55" on="1"/>
        <pt x="477" y="-55" on="0"/>
        <pt x="464" y="-41" on="0"/>
        <pt x="464" y="-33" on="1"/>
        <pt x="464" y="-17" on="0"/>
        <pt x="481" y="-8" on="0"/>
        <pt x="500" y="-1" on="0"/>
        <pt x="517" y="14" on="0"/>
        <pt x="517" y="35" on="1"/>
        <pt x="517" y="42" on="0"/>
        <pt x="505" y="92" on="0"/>
        <pt x="489" y="150" on="0"/>
        <pt x="473" y="203" on="0"/>
        <pt x="470" y="214" on="1"/>
        <pt x="238" y="214" on="1"/>
        <pt x="231" y="197" on="0"/>
        <pt x="218" y="156" on="0"/>
        <pt x="208" y="117" on="0"/>
        <pt x="202" y="85" on="0"/>
        <pt x="202" y="77" on="1"/>
        <pt x="202" y="69" on="0"/>
        <pt x="239" y="61" on="0"/>
        <pt x="274" y="61" on="1"/>
        <pt x="290" y="61" on="0"/>
        <pt x="307" y="47" on="0"/>
        <pt x="307" y="29" on="1"/>
        <pt x="307" y="18" on="0"/>
        <pt x="293" y="0" on="0"/>
        <pt x="273" y="0" on="1"/>
        <pt x="-5" y="0" on="1"/>
        <pt x="-14" y="0" on="0"/>
        <pt x="-28" y="16" on="0"/>
        <pt x="-28" y="30" on="1"/>
        <pt x="-28" y="43" on="0"/>
        <pt x="-9" y="57" on="0"/>
        <pt x="1" y="57" on="1"/>
        <pt x="3" y="57" on="0"/>
        <pt x="19" y="59" on="0"/>
        <pt x="39" y="61" on="0"/>
        <pt x="56" y="63" on="0"/>
        <pt x="58" y="63" on="1"/>
        <pt x="76" y="65" on="0"/>
        <pt x="100" y="81" on="0"/>
        <pt x="107" y="101" on="1"/>
        <pt x="121" y="142" on="0"/>
        <pt x="156" y="259" on="0"/>
        <pt x="194" y="391" on="0"/>
        <pt x="232" y="529" on="0"/>
        <pt x="266" y="655" on="0"/>
        <pt x="295" y="760" on="0"/>
        <pt x="305" y="792" on="1"/>
        <pt x="312" y="815" on="0"/>
        <pt x="333" y="838" on="0"/>
        <pt x="359" y="838" on="1"/>
        <pt x="380" y="838" on="0"/>
        <pt x="404" y="816" on="0"/>
        <pt x="410" y="793" on="1"/>
        <pt x="613" y="35" on="1"/>
        <pt x="615" y="26" on="0"/>
        <pt x="626" y="14" on="0"/>
        <pt x="652" y="6" on="0"/>
        <pt x="697" y="3" on="0"/>
        <pt x="733" y="3" on="1"/>
        <pt x="747" y="3" on="0"/>
        <pt x="777" y="-8" on="0"/>
        <pt x="777" y="-25" on="1"/>
        <pt x="777" y="-43" on="0"/>
        <pt x="759" y="-55" on="0"/>
        <pt x="742" y="-55" on="1"/>
        <pt x="636" y="-55" on="1"/>
        <pt x="614" y="-66" on="0"/>
        <pt x="591" y="-118" on="0"/>
        <pt x="591" y="-138" on="1"/>
        <pt x="591" y="-149" on="0"/>
        <pt x="609" y="-159" on="0"/>
        <pt x="620" y="-159" on="1"/>
        <pt x="635" y="-159" on="0"/>
        <pt x="652" y="-152" on="0"/>
        <pt x="663" y="-143" on="0"/>
        <pt x="672" y="-135" on="0"/>
        <pt x="680" y="-135" on="1"/>
        <pt x="690" y="-135" on="0"/>
        <pt x="705" y="-150" on="0"/>
        <pt x="705" y="-159" on="1"/>
        <pt x="705" y="-167" on="0"/>
        <pt x="695" y="-185" on="0"/>
        <pt x="675" y="-201" on="0"/>
        <pt x="643" y="-212" on="0"/>
      </contour>
      <contour>
        <pt x="362" y="691" on="1"/>
        <pt x="355" y="664" on="0"/>
        <pt x="330" y="565" on="0"/>
        <pt x="301" y="451" on="0"/>
        <pt x="273" y="338" on="0"/>
        <pt x="262" y="298" on="1"/>
        <pt x="277" y="298" on="0"/>
        <pt x="300" y="297" on="0"/>
        <pt x="320" y="296" on="0"/>
        <pt x="343" y="296" on="0"/>
        <pt x="358" y="296" on="1"/>
        <pt x="367" y="296" on="0"/>
        <pt x="392" y="296" on="0"/>
        <pt x="419" y="297" on="0"/>
        <pt x="444" y="298" on="0"/>
        <pt x="453" y="298" on="1"/>
        <pt x="441" y="342" on="0"/>
        <pt x="416" y="440" on="0"/>
        <pt x="393" y="541" on="0"/>
        <pt x="371" y="643" on="0"/>
      </contour>
    </TTGlyph>
    <TTGlyph name="Aring" xMin="-28" yMin="-55" xMax="777" yMax="972">
      <contour>
        <pt x="449" y="907" on="1"/>
        <pt x="449" y="873" on="0"/>
        <pt x="406" y="840" on="0"/>
        <pt x="376" y="840" on="1"/>
        <pt x="342" y="840" on="0"/>
        <pt x="297" y="876" on="0"/>
        <pt x="297" y="905" on="1"/>
        <pt x="297" y="934" on="0"/>
        <pt x="340" y="972" on="0"/>
        <pt x="371" y="972" on="1"/>
        <pt x="449" y="972" on="0"/>
      </contour>
      <contour>
        <pt x="373" y="930" on="1"/>
        <pt x="369" y="930" on="0"/>
        <pt x="352" y="922" on="0"/>
        <pt x="352" y="905" on="1"/>
        <pt x="352" y="891" on="0"/>
        <pt x="369" y="882" on="0"/>
        <pt x="376" y="882" on="1"/>
        <pt x="381" y="882" on="0"/>
        <pt x="394" y="891" on="0"/>
        <pt x="394" y="906" on="1"/>
        <pt x="394" y="922" on="0"/>
        <pt x="378" y="930" on="0"/>
      </contour>
      <contour>
        <pt x="613" y="35" on="1"/>
        <pt x="615" y="26" on="0"/>
        <pt x="626" y="14" on="0"/>
        <pt x="652" y="6" on="0"/>
        <pt x="697" y="3" on="0"/>
        <pt x="733" y="3" on="1"/>
        <pt x="747" y="3" on="0"/>
        <pt x="777" y="-8" on="0"/>
        <pt x="777" y="-25" on="1"/>
        <pt x="777" y="-43" on="0"/>
        <pt x="759" y="-55" on="0"/>
        <pt x="742" y="-55" on="1"/>
        <pt x="495" y="-55" on="1"/>
        <pt x="477" y="-55" on="0"/>
        <pt x="464" y="-41" on="0"/>
        <pt x="464" y="-33" on="1"/>
        <pt x="464" y="-17" on="0"/>
        <pt x="481" y="-8" on="0"/>
        <pt x="500" y="-1" on="0"/>
        <pt x="517" y="14" on="0"/>
        <pt x="517" y="35" on="1"/>
        <pt x="517" y="42" on="0"/>
        <pt x="505" y="92" on="0"/>
        <pt x="489" y="150" on="0"/>
        <pt x="473" y="203" on="0"/>
        <pt x="470" y="214" on="1"/>
        <pt x="238" y="214" on="1"/>
        <pt x="231" y="197" on="0"/>
        <pt x="218" y="156" on="0"/>
        <pt x="208" y="117" on="0"/>
        <pt x="202" y="85" on="0"/>
        <pt x="202" y="77" on="1"/>
        <pt x="202" y="69" on="0"/>
        <pt x="239" y="61" on="0"/>
        <pt x="274" y="61" on="1"/>
        <pt x="290" y="61" on="0"/>
        <pt x="307" y="47" on="0"/>
        <pt x="307" y="29" on="1"/>
        <pt x="307" y="18" on="0"/>
        <pt x="293" y="0" on="0"/>
        <pt x="273" y="0" on="1"/>
        <pt x="-5" y="0" on="1"/>
        <pt x="-14" y="0" on="0"/>
        <pt x="-28" y="16" on="0"/>
        <pt x="-28" y="30" on="1"/>
        <pt x="-28" y="43" on="0"/>
        <pt x="-9" y="57" on="0"/>
        <pt x="1" y="57" on="1"/>
        <pt x="3" y="57" on="0"/>
        <pt x="19" y="59" on="0"/>
        <pt x="39" y="61" on="0"/>
        <pt x="56" y="63" on="0"/>
        <pt x="58" y="63" on="1"/>
        <pt x="76" y="65" on="0"/>
        <pt x="100" y="81" on="0"/>
        <pt x="107" y="101" on="1"/>
        <pt x="121" y="142" on="0"/>
        <pt x="156" y="259" on="0"/>
        <pt x="194" y="391" on="0"/>
        <pt x="232" y="529" on="0"/>
        <pt x="266" y="655" on="0"/>
        <pt x="295" y="760" on="0"/>
        <pt x="305" y="792" on="1"/>
        <pt x="312" y="815" on="0"/>
        <pt x="333" y="838" on="0"/>
        <pt x="359" y="838" on="1"/>
        <pt x="380" y="838" on="0"/>
        <pt x="404" y="816" on="0"/>
        <pt x="410" y="793" on="1"/>
      </contour>
      <contour>
        <pt x="362" y="691" on="1"/>
        <pt x="355" y="664" on="0"/>
        <pt x="330" y="565" on="0"/>
        <pt x="301" y="451" on="0"/>
        <pt x="273" y="338" on="0"/>
        <pt x="262" y="298" on="1"/>
        <pt x="277" y="298" on="0"/>
        <pt x="300" y="297" on="0"/>
        <pt x="320" y="296" on="0"/>
        <pt x="343" y="296" on="0"/>
        <pt x="358" y="296" on="1"/>
        <pt x="367" y="296" on="0"/>
        <pt x="392" y="296" on="0"/>
        <pt x="419" y="297" on="0"/>
        <pt x="444" y="298" on="0"/>
        <pt x="453" y="298" on="1"/>
        <pt x="441" y="342" on="0"/>
        <pt x="416" y="440" on="0"/>
        <pt x="393" y="541" on="0"/>
        <pt x="371" y="643" on="0"/>
      </contour>
    </TTGlyph>
    <TTGlyph name="Aringacute" xMin="-24" yMin="-58" xMax="781" yMax="972">
      <contour>
        <pt x="434" y="794" on="1"/>
        <pt x="434" y="771" on="0"/>
        <pt x="412" y="740" on="0"/>
        <pt x="395" y="732" on="1"/>
        <pt x="405" y="726" on="0"/>
        <pt x="408" y="717" on="1"/>
        <pt x="616" y="35" on="1"/>
        <pt x="623" y="14" on="0"/>
        <pt x="683" y="3" on="0"/>
        <pt x="736" y="3" on="1"/>
        <pt x="750" y="3" on="0"/>
        <pt x="781" y="-8" on="0"/>
        <pt x="781" y="-25" on="1"/>
        <pt x="781" y="-43" on="0"/>
        <pt x="763" y="-55" on="0"/>
        <pt x="746" y="-55" on="1"/>
        <pt x="722" y="-55" on="0"/>
        <pt x="657" y="-53" on="0"/>
        <pt x="634" y="-53" on="1"/>
        <pt x="596" y="-53" on="0"/>
        <pt x="533" y="-58" on="0"/>
        <pt x="499" y="-58" on="1"/>
        <pt x="481" y="-58" on="0"/>
        <pt x="468" y="-46" on="0"/>
        <pt x="468" y="-38" on="1"/>
        <pt x="468" y="-26" on="0"/>
        <pt x="485" y="-20" on="0"/>
        <pt x="504" y="-13" on="0"/>
        <pt x="521" y="4" on="0"/>
        <pt x="521" y="27" on="1"/>
        <pt x="521" y="34" on="0"/>
        <pt x="507" y="86" on="0"/>
        <pt x="487" y="148" on="0"/>
        <pt x="468" y="203" on="0"/>
        <pt x="464" y="214" on="1"/>
        <pt x="254" y="214" on="1"/>
        <pt x="247" y="197" on="0"/>
        <pt x="231" y="152" on="0"/>
        <pt x="216" y="110" on="0"/>
        <pt x="206" y="79" on="0"/>
        <pt x="206" y="77" on="1"/>
        <pt x="206" y="73" on="0"/>
        <pt x="237" y="61" on="0"/>
        <pt x="285" y="61" on="1"/>
        <pt x="295" y="61" on="0"/>
        <pt x="310" y="47" on="0"/>
        <pt x="310" y="29" on="1"/>
        <pt x="310" y="18" on="0"/>
        <pt x="296" y="0" on="0"/>
        <pt x="276" y="0" on="1"/>
        <pt x="244" y="0" on="0"/>
        <pt x="178" y="4" on="0"/>
        <pt x="145" y="4" on="1"/>
        <pt x="108" y="4" on="0"/>
        <pt x="36" y="0" on="0"/>
        <pt x="-1" y="0" on="1"/>
        <pt x="-10" y="0" on="0"/>
        <pt x="-24" y="16" on="0"/>
        <pt x="-24" y="30" on="1"/>
        <pt x="-24" y="43" on="0"/>
        <pt x="-6" y="57" on="0"/>
        <pt x="4" y="57" on="1"/>
        <pt x="6" y="57" on="0"/>
        <pt x="23" y="59" on="0"/>
        <pt x="42" y="61" on="0"/>
        <pt x="59" y="63" on="0"/>
        <pt x="61" y="63" on="1"/>
        <pt x="80" y="65" on="0"/>
        <pt x="102" y="81" on="0"/>
        <pt x="110" y="101" on="1"/>
        <pt x="123" y="135" on="0"/>
        <pt x="160" y="240" on="0"/>
        <pt x="200" y="361" on="0"/>
        <pt x="242" y="488" on="0"/>
        <pt x="278" y="602" on="0"/>
        <pt x="308" y="693" on="0"/>
        <pt x="316" y="717" on="1"/>
        <pt x="318" y="727" on="0"/>
        <pt x="327" y="732" on="1"/>
        <pt x="307" y="740" on="0"/>
        <pt x="282" y="770" on="0"/>
        <pt x="282" y="792" on="1"/>
        <pt x="282" y="814" on="0"/>
        <pt x="309" y="847" on="0"/>
        <pt x="330" y="855" on="1"/>
        <pt x="324" y="862" on="0"/>
        <pt x="324" y="872" on="1"/>
        <pt x="324" y="882" on="0"/>
        <pt x="349" y="916" on="0"/>
        <pt x="385" y="949" on="0"/>
        <pt x="424" y="972" on="0"/>
        <pt x="438" y="972" on="1"/>
        <pt x="458" y="972" on="0"/>
        <pt x="479" y="949" on="0"/>
        <pt x="479" y="936" on="1"/>
        <pt x="479" y="925" on="0"/>
        <pt x="464" y="902" on="0"/>
        <pt x="440" y="879" on="0"/>
        <pt x="411" y="860" on="0"/>
        <pt x="397" y="853" on="1"/>
        <pt x="434" y="840" on="0"/>
      </contour>
      <contour>
        <pt x="369" y="592" on="1"/>
        <pt x="365" y="582" on="0"/>
        <pt x="351" y="539" on="0"/>
        <pt x="334" y="484" on="0"/>
        <pt x="315" y="421" on="0"/>
        <pt x="297" y="363" on="0"/>
        <pt x="282" y="313" on="0"/>
        <pt x="278" y="298" on="1"/>
        <pt x="305" y="297" on="0"/>
        <pt x="348" y="297" on="0"/>
        <pt x="375" y="297" on="1"/>
        <pt x="389" y="297" on="0"/>
        <pt x="433" y="297" on="0"/>
        <pt x="447" y="298" on="1"/>
        <pt x="437" y="324" on="0"/>
        <pt x="415" y="400" on="0"/>
        <pt x="394" y="482" on="0"/>
        <pt x="376" y="562" on="0"/>
      </contour>
      <contour>
        <pt x="358" y="818" on="1"/>
        <pt x="353" y="818" on="0"/>
        <pt x="335" y="809" on="0"/>
        <pt x="335" y="792" on="1"/>
        <pt x="335" y="776" on="0"/>
        <pt x="356" y="767" on="0"/>
        <pt x="361" y="767" on="1"/>
        <pt x="366" y="767" on="0"/>
        <pt x="382" y="777" on="0"/>
        <pt x="382" y="793" on="1"/>
        <pt x="382" y="809" on="0"/>
        <pt x="365" y="818" on="0"/>
      </contour>
    </TTGlyph>
    <TTGlyph name="Atilde" xMin="-28" yMin="-55" xMax="777" yMax="972">
      <contour>
        <pt x="613" y="35" on="1"/>
        <pt x="615" y="26" on="0"/>
        <pt x="626" y="14" on="0"/>
        <pt x="652" y="6" on="0"/>
        <pt x="697" y="3" on="0"/>
        <pt x="733" y="3" on="1"/>
        <pt x="747" y="3" on="0"/>
        <pt x="777" y="-8" on="0"/>
        <pt x="777" y="-25" on="1"/>
        <pt x="777" y="-43" on="0"/>
        <pt x="759" y="-55" on="0"/>
        <pt x="742" y="-55" on="1"/>
        <pt x="495" y="-55" on="1"/>
        <pt x="477" y="-55" on="0"/>
        <pt x="464" y="-41" on="0"/>
        <pt x="464" y="-33" on="1"/>
        <pt x="464" y="-17" on="0"/>
        <pt x="481" y="-8" on="0"/>
        <pt x="500" y="-1" on="0"/>
        <pt x="517" y="14" on="0"/>
        <pt x="517" y="35" on="1"/>
        <pt x="517" y="42" on="0"/>
        <pt x="505" y="92" on="0"/>
        <pt x="489" y="150" on="0"/>
        <pt x="473" y="203" on="0"/>
        <pt x="470" y="214" on="1"/>
        <pt x="238" y="214" on="1"/>
        <pt x="231" y="197" on="0"/>
        <pt x="218" y="156" on="0"/>
        <pt x="208" y="117" on="0"/>
        <pt x="202" y="85" on="0"/>
        <pt x="202" y="77" on="1"/>
        <pt x="202" y="69" on="0"/>
        <pt x="239" y="61" on="0"/>
        <pt x="274" y="61" on="1"/>
        <pt x="290" y="61" on="0"/>
        <pt x="307" y="47" on="0"/>
        <pt x="307" y="29" on="1"/>
        <pt x="307" y="18" on="0"/>
        <pt x="293" y="0" on="0"/>
        <pt x="273" y="0" on="1"/>
        <pt x="-5" y="0" on="1"/>
        <pt x="-14" y="0" on="0"/>
        <pt x="-28" y="16" on="0"/>
        <pt x="-28" y="30" on="1"/>
        <pt x="-28" y="43" on="0"/>
        <pt x="-9" y="57" on="0"/>
        <pt x="1" y="57" on="1"/>
        <pt x="3" y="57" on="0"/>
        <pt x="19" y="59" on="0"/>
        <pt x="39" y="61" on="0"/>
        <pt x="56" y="63" on="0"/>
        <pt x="58" y="63" on="1"/>
        <pt x="76" y="65" on="0"/>
        <pt x="100" y="81" on="0"/>
        <pt x="107" y="101" on="1"/>
        <pt x="121" y="142" on="0"/>
        <pt x="156" y="259" on="0"/>
        <pt x="194" y="391" on="0"/>
        <pt x="232" y="529" on="0"/>
        <pt x="266" y="655" on="0"/>
        <pt x="295" y="760" on="0"/>
        <pt x="305" y="792" on="1"/>
        <pt x="312" y="815" on="0"/>
        <pt x="333" y="838" on="0"/>
        <pt x="359" y="838" on="1"/>
        <pt x="380" y="838" on="0"/>
        <pt x="404" y="816" on="0"/>
        <pt x="410" y="793" on="1"/>
      </contour>
      <contour>
        <pt x="362" y="691" on="1"/>
        <pt x="355" y="664" on="0"/>
        <pt x="330" y="565" on="0"/>
        <pt x="301" y="451" on="0"/>
        <pt x="273" y="338" on="0"/>
        <pt x="262" y="298" on="1"/>
        <pt x="277" y="298" on="0"/>
        <pt x="300" y="297" on="0"/>
        <pt x="320" y="296" on="0"/>
        <pt x="343" y="296" on="0"/>
        <pt x="358" y="296" on="1"/>
        <pt x="367" y="296" on="0"/>
        <pt x="392" y="296" on="0"/>
        <pt x="419" y="297" on="0"/>
        <pt x="444" y="298" on="0"/>
        <pt x="453" y="298" on="1"/>
        <pt x="441" y="342" on="0"/>
        <pt x="416" y="440" on="0"/>
        <pt x="393" y="541" on="0"/>
        <pt x="371" y="643" on="0"/>
      </contour>
      <contour>
        <pt x="180" y="897" on="1"/>
        <pt x="180" y="919" on="0"/>
        <pt x="200" y="944" on="0"/>
        <pt x="214" y="952" on="1"/>
        <pt x="245" y="970" on="0"/>
        <pt x="282" y="970" on="1"/>
        <pt x="297" y="970" on="0"/>
        <pt x="332" y="961" on="0"/>
        <pt x="368" y="951" on="0"/>
        <pt x="404" y="942" on="0"/>
        <pt x="419" y="942" on="1"/>
        <pt x="433" y="942" on="0"/>
        <pt x="465" y="951" on="0"/>
        <pt x="479" y="959" on="1"/>
        <pt x="502" y="972" on="0"/>
        <pt x="509" y="972" on="1"/>
        <pt x="514" y="972" on="0"/>
        <pt x="531" y="953" on="0"/>
        <pt x="531" y="937" on="1"/>
        <pt x="531" y="915" on="0"/>
        <pt x="505" y="886" on="0"/>
        <pt x="469" y="869" on="0"/>
        <pt x="431" y="862" on="0"/>
        <pt x="420" y="862" on="1"/>
        <pt x="401" y="862" on="0"/>
        <pt x="364" y="869" on="0"/>
        <pt x="329" y="878" on="0"/>
        <pt x="297" y="886" on="0"/>
        <pt x="283" y="886" on="1"/>
        <pt x="268" y="886" on="0"/>
        <pt x="244" y="878" on="0"/>
        <pt x="224" y="869" on="0"/>
        <pt x="206" y="861" on="0"/>
        <pt x="199" y="861" on="1"/>
        <pt x="190" y="861" on="0"/>
        <pt x="180" y="882" on="0"/>
      </contour>
    </TTGlyph>
    <TTGlyph name="B" xMin="40" yMin="0" xMax="676" yMax="821">
      <contour>
        <pt x="81" y="76" on="1"/>
        <pt x="89" y="76" on="0"/>
        <pt x="109" y="78" on="0"/>
        <pt x="126" y="83" on="0"/>
        <pt x="137" y="92" on="0"/>
        <pt x="137" y="100" on="1"/>
        <pt x="137" y="164" on="0"/>
        <pt x="138" y="275" on="0"/>
        <pt x="138" y="313" on="1"/>
        <pt x="138" y="362" on="0"/>
        <pt x="137" y="477" on="0"/>
        <pt x="134" y="585" on="0"/>
        <pt x="131" y="676" on="0"/>
        <pt x="130" y="701" on="1"/>
        <pt x="128" y="724" on="0"/>
        <pt x="109" y="738" on="0"/>
        <pt x="80" y="738" on="1"/>
        <pt x="57" y="738" on="0"/>
        <pt x="40" y="761" on="0"/>
        <pt x="40" y="780" on="1"/>
        <pt x="40" y="796" on="0"/>
        <pt x="63" y="818" on="0"/>
        <pt x="79" y="818" on="1"/>
        <pt x="118" y="818" on="0"/>
        <pt x="210" y="819" on="0"/>
        <pt x="294" y="820" on="0"/>
        <pt x="357" y="821" on="0"/>
        <pt x="367" y="821" on="1"/>
        <pt x="420" y="821" on="0"/>
        <pt x="517" y="794" on="0"/>
        <pt x="590" y="742" on="0"/>
        <pt x="634" y="664" on="0"/>
        <pt x="634" y="612" on="1"/>
        <pt x="634" y="542" on="0"/>
        <pt x="556" y="439" on="0"/>
        <pt x="488" y="421" on="1"/>
        <pt x="574" y="405" on="0"/>
        <pt x="676" y="299" on="0"/>
        <pt x="676" y="220" on="1"/>
        <pt x="676" y="159" on="0"/>
        <pt x="615" y="75" on="0"/>
        <pt x="513" y="23" on="0"/>
        <pt x="380" y="0" on="0"/>
        <pt x="308" y="0" on="1"/>
        <pt x="94" y="0" on="1"/>
        <pt x="68" y="0" on="0"/>
        <pt x="46" y="18" on="0"/>
        <pt x="46" y="35" on="1"/>
        <pt x="46" y="52" on="0"/>
        <pt x="62" y="76" on="0"/>
      </contour>
      <contour>
        <pt x="308" y="371" on="1"/>
        <pt x="279" y="371" on="0"/>
        <pt x="249" y="369" on="0"/>
        <pt x="229" y="368" on="1"/>
        <pt x="229" y="80" on="1"/>
        <pt x="316" y="80" on="0"/>
        <pt x="447" y="94" on="0"/>
        <pt x="536" y="127" on="0"/>
        <pt x="581" y="181" on="0"/>
        <pt x="581" y="222" on="1"/>
        <pt x="581" y="272" on="0"/>
        <pt x="533" y="331" on="0"/>
        <pt x="455" y="362" on="0"/>
        <pt x="357" y="371" on="0"/>
      </contour>
      <contour>
        <pt x="310" y="741" on="1"/>
        <pt x="275" y="741" on="0"/>
        <pt x="237" y="738" on="0"/>
        <pt x="229" y="737" on="1"/>
        <pt x="229" y="456" on="1"/>
        <pt x="237" y="454" on="0"/>
        <pt x="266" y="453" on="0"/>
        <pt x="299" y="453" on="1"/>
        <pt x="349" y="453" on="0"/>
        <pt x="437" y="467" on="0"/>
        <pt x="503" y="502" on="0"/>
        <pt x="541" y="560" on="0"/>
        <pt x="541" y="605" on="1"/>
        <pt x="541" y="646" on="0"/>
        <pt x="500" y="699" on="0"/>
        <pt x="434" y="729" on="0"/>
        <pt x="352" y="741" on="0"/>
      </contour>
    </TTGlyph>
    <TTGlyph name="C" xMin="34" yMin="-14" xMax="628" yMax="838">
      <contour>
        <pt x="628" y="222" on="1"/>
        <pt x="628" y="190" on="0"/>
        <pt x="595" y="109" on="0"/>
        <pt x="524" y="36" on="0"/>
        <pt x="410" y="-14" on="0"/>
        <pt x="329" y="-14" on="1"/>
        <pt x="275" y="-14" on="0"/>
        <pt x="169" y="33" on="0"/>
        <pt x="85" y="134" on="0"/>
        <pt x="34" y="293" on="0"/>
        <pt x="34" y="405" on="1"/>
        <pt x="34" y="496" on="0"/>
        <pt x="83" y="654" on="0"/>
        <pt x="167" y="771" on="0"/>
        <pt x="279" y="838" on="0"/>
        <pt x="342" y="838" on="1"/>
        <pt x="383" y="838" on="0"/>
        <pt x="449" y="813" on="0"/>
        <pt x="497" y="774" on="0"/>
        <pt x="528" y="728" on="0"/>
        <pt x="536" y="707" on="1"/>
        <pt x="533" y="759" on="0"/>
        <pt x="532" y="791" on="0"/>
        <pt x="532" y="793" on="1"/>
        <pt x="532" y="807" on="0"/>
        <pt x="546" y="829" on="0"/>
        <pt x="570" y="829" on="1"/>
        <pt x="586" y="829" on="0"/>
        <pt x="605" y="819" on="0"/>
        <pt x="613" y="805" on="0"/>
        <pt x="615" y="791" on="0"/>
        <pt x="615" y="787" on="1"/>
        <pt x="615" y="752" on="0"/>
        <pt x="611" y="670" on="0"/>
        <pt x="611" y="634" on="1"/>
        <pt x="611" y="602" on="0"/>
        <pt x="613" y="545" on="0"/>
        <pt x="613" y="513" on="1"/>
        <pt x="613" y="489" on="0"/>
        <pt x="595" y="465" on="0"/>
        <pt x="570" y="465" on="1"/>
        <pt x="546" y="465" on="0"/>
        <pt x="523" y="486" on="0"/>
        <pt x="522" y="524" on="1"/>
        <pt x="521" y="567" on="0"/>
        <pt x="501" y="652" on="0"/>
        <pt x="458" y="718" on="0"/>
        <pt x="391" y="759" on="0"/>
        <pt x="343" y="759" on="1"/>
        <pt x="296" y="759" on="0"/>
        <pt x="218" y="700" on="0"/>
        <pt x="161" y="601" on="0"/>
        <pt x="130" y="473" on="0"/>
        <pt x="130" y="404" on="1"/>
        <pt x="130" y="335" on="0"/>
        <pt x="156" y="212" on="0"/>
        <pt x="207" y="120" on="0"/>
        <pt x="285" y="66" on="0"/>
        <pt x="337" y="66" on="1"/>
        <pt x="380" y="66" on="0"/>
        <pt x="446" y="81" on="0"/>
        <pt x="497" y="114" on="0"/>
        <pt x="533" y="168" on="0"/>
        <pt x="546" y="207" on="1"/>
        <pt x="555" y="235" on="0"/>
        <pt x="573" y="253" on="0"/>
        <pt x="592" y="253" on="1"/>
        <pt x="628" y="253" on="0"/>
      </contour>
    </TTGlyph>
    <TTGlyph name="Cacute" xMin="34" yMin="-14" xMax="628" yMax="972">
      <contour>
        <pt x="436" y="935" on="1"/>
        <pt x="436" y="921" on="0"/>
        <pt x="408" y="887" on="0"/>
        <pt x="370" y="859" on="0"/>
        <pt x="330" y="840" on="0"/>
        <pt x="317" y="840" on="1"/>
        <pt x="301" y="840" on="0"/>
        <pt x="281" y="859" on="0"/>
        <pt x="281" y="871" on="1"/>
        <pt x="281" y="881" on="0"/>
        <pt x="306" y="916" on="0"/>
        <pt x="342" y="948" on="0"/>
        <pt x="381" y="972" on="0"/>
        <pt x="395" y="972" on="1"/>
        <pt x="415" y="972" on="0"/>
        <pt x="436" y="949" on="0"/>
      </contour>
      <contour>
        <pt x="628" y="222" on="1"/>
        <pt x="628" y="190" on="0"/>
        <pt x="595" y="109" on="0"/>
        <pt x="524" y="36" on="0"/>
        <pt x="410" y="-14" on="0"/>
        <pt x="329" y="-14" on="1"/>
        <pt x="275" y="-14" on="0"/>
        <pt x="169" y="33" on="0"/>
        <pt x="85" y="134" on="0"/>
        <pt x="34" y="293" on="0"/>
        <pt x="34" y="405" on="1"/>
        <pt x="34" y="496" on="0"/>
        <pt x="83" y="654" on="0"/>
        <pt x="167" y="771" on="0"/>
        <pt x="279" y="838" on="0"/>
        <pt x="342" y="838" on="1"/>
        <pt x="383" y="838" on="0"/>
        <pt x="449" y="813" on="0"/>
        <pt x="497" y="774" on="0"/>
        <pt x="528" y="728" on="0"/>
        <pt x="536" y="707" on="1"/>
        <pt x="533" y="759" on="0"/>
        <pt x="532" y="791" on="0"/>
        <pt x="532" y="793" on="1"/>
        <pt x="532" y="807" on="0"/>
        <pt x="546" y="829" on="0"/>
        <pt x="570" y="829" on="1"/>
        <pt x="586" y="829" on="0"/>
        <pt x="605" y="819" on="0"/>
        <pt x="613" y="805" on="0"/>
        <pt x="615" y="791" on="0"/>
        <pt x="615" y="787" on="1"/>
        <pt x="615" y="752" on="0"/>
        <pt x="611" y="670" on="0"/>
        <pt x="611" y="634" on="1"/>
        <pt x="611" y="602" on="0"/>
        <pt x="613" y="545" on="0"/>
        <pt x="613" y="513" on="1"/>
        <pt x="613" y="489" on="0"/>
        <pt x="595" y="465" on="0"/>
        <pt x="570" y="465" on="1"/>
        <pt x="546" y="465" on="0"/>
        <pt x="523" y="486" on="0"/>
        <pt x="522" y="524" on="1"/>
        <pt x="521" y="567" on="0"/>
        <pt x="501" y="652" on="0"/>
        <pt x="458" y="718" on="0"/>
        <pt x="391" y="759" on="0"/>
        <pt x="343" y="759" on="1"/>
        <pt x="296" y="759" on="0"/>
        <pt x="218" y="700" on="0"/>
        <pt x="161" y="601" on="0"/>
        <pt x="130" y="473" on="0"/>
        <pt x="130" y="404" on="1"/>
        <pt x="130" y="335" on="0"/>
        <pt x="156" y="212" on="0"/>
        <pt x="207" y="120" on="0"/>
        <pt x="285" y="66" on="0"/>
        <pt x="337" y="66" on="1"/>
        <pt x="380" y="66" on="0"/>
        <pt x="446" y="81" on="0"/>
        <pt x="497" y="114" on="0"/>
        <pt x="533" y="168" on="0"/>
        <pt x="546" y="207" on="1"/>
        <pt x="555" y="235" on="0"/>
        <pt x="573" y="253" on="0"/>
        <pt x="592" y="253" on="1"/>
        <pt x="628" y="253" on="0"/>
      </contour>
    </TTGlyph>
    <TTGlyph name="Ccaron" xMin="34" yMin="-14" xMax="628" yMax="972">
      <contour>
        <pt x="628" y="222" on="1"/>
        <pt x="628" y="190" on="0"/>
        <pt x="595" y="109" on="0"/>
        <pt x="524" y="36" on="0"/>
        <pt x="410" y="-14" on="0"/>
        <pt x="329" y="-14" on="1"/>
        <pt x="275" y="-14" on="0"/>
        <pt x="169" y="33" on="0"/>
        <pt x="85" y="134" on="0"/>
        <pt x="34" y="293" on="0"/>
        <pt x="34" y="405" on="1"/>
        <pt x="34" y="493" on="0"/>
        <pt x="80" y="647" on="0"/>
        <pt x="159" y="763" on="0"/>
        <pt x="266" y="833" on="0"/>
        <pt x="326" y="837" on="1"/>
        <pt x="312" y="844" on="0"/>
        <pt x="273" y="872" on="0"/>
        <pt x="238" y="906" on="0"/>
        <pt x="213" y="942" on="0"/>
        <pt x="213" y="958" on="1"/>
        <pt x="213" y="963" on="0"/>
        <pt x="220" y="972" on="0"/>
        <pt x="226" y="972" on="1"/>
        <pt x="231" y="972" on="0"/>
        <pt x="259" y="965" on="0"/>
        <pt x="293" y="951" on="0"/>
        <pt x="330" y="933" on="0"/>
        <pt x="345" y="922" on="1"/>
        <pt x="362" y="933" on="0"/>
        <pt x="400" y="951" on="0"/>
        <pt x="434" y="965" on="0"/>
        <pt x="460" y="972" on="0"/>
        <pt x="465" y="972" on="1"/>
        <pt x="473" y="972" on="0"/>
        <pt x="478" y="958" on="0"/>
        <pt x="478" y="951" on="1"/>
        <pt x="478" y="938" on="0"/>
        <pt x="454" y="905" on="0"/>
        <pt x="419" y="872" on="0"/>
        <pt x="380" y="844" on="0"/>
        <pt x="365" y="837" on="1"/>
        <pt x="401" y="833" on="0"/>
        <pt x="458" y="806" on="0"/>
        <pt x="501" y="769" on="0"/>
        <pt x="529" y="726" on="0"/>
        <pt x="536" y="707" on="1"/>
        <pt x="533" y="759" on="0"/>
        <pt x="532" y="791" on="0"/>
        <pt x="532" y="793" on="1"/>
        <pt x="532" y="807" on="0"/>
        <pt x="546" y="829" on="0"/>
        <pt x="570" y="829" on="1"/>
        <pt x="586" y="829" on="0"/>
        <pt x="605" y="819" on="0"/>
        <pt x="613" y="805" on="0"/>
        <pt x="615" y="791" on="0"/>
        <pt x="615" y="787" on="1"/>
        <pt x="615" y="752" on="0"/>
        <pt x="611" y="670" on="0"/>
        <pt x="611" y="634" on="1"/>
        <pt x="611" y="602" on="0"/>
        <pt x="613" y="545" on="0"/>
        <pt x="613" y="513" on="1"/>
        <pt x="613" y="489" on="0"/>
        <pt x="595" y="465" on="0"/>
        <pt x="570" y="465" on="1"/>
        <pt x="546" y="465" on="0"/>
        <pt x="523" y="486" on="0"/>
        <pt x="522" y="524" on="1"/>
        <pt x="521" y="567" on="0"/>
        <pt x="501" y="652" on="0"/>
        <pt x="458" y="718" on="0"/>
        <pt x="391" y="759" on="0"/>
        <pt x="343" y="759" on="1"/>
        <pt x="296" y="759" on="0"/>
        <pt x="218" y="700" on="0"/>
        <pt x="161" y="601" on="0"/>
        <pt x="130" y="473" on="0"/>
        <pt x="130" y="404" on="1"/>
        <pt x="130" y="335" on="0"/>
        <pt x="156" y="212" on="0"/>
        <pt x="207" y="120" on="0"/>
        <pt x="285" y="66" on="0"/>
        <pt x="337" y="66" on="1"/>
        <pt x="380" y="66" on="0"/>
        <pt x="446" y="81" on="0"/>
        <pt x="497" y="114" on="0"/>
        <pt x="533" y="168" on="0"/>
        <pt x="546" y="207" on="1"/>
        <pt x="555" y="235" on="0"/>
        <pt x="573" y="253" on="0"/>
        <pt x="592" y="253" on="1"/>
        <pt x="628" y="253" on="0"/>
      </contour>
    </TTGlyph>
    <TTGlyph name="Ccedilla" xMin="34" yMin="-190" xMax="628" yMax="838">
      <contour>
        <pt x="628" y="222" on="1"/>
        <pt x="628" y="193" on="0"/>
        <pt x="600" y="118" on="0"/>
        <pt x="539" y="49" on="0"/>
        <pt x="442" y="-4" on="0"/>
        <pt x="374" y="-11" on="1"/>
        <pt x="362" y="-78" on="1"/>
        <pt x="386" y="-64" on="0"/>
        <pt x="421" y="-49" on="0"/>
        <pt x="442" y="-49" on="1"/>
        <pt x="475" y="-49" on="0"/>
        <pt x="519" y="-83" on="0"/>
        <pt x="519" y="-112" on="1"/>
        <pt x="519" y="-132" on="0"/>
        <pt x="498" y="-161" on="0"/>
        <pt x="462" y="-180" on="0"/>
        <pt x="415" y="-190" on="0"/>
        <pt x="390" y="-190" on="1"/>
        <pt x="348" y="-190" on="0"/>
        <pt x="311" y="-181" on="0"/>
        <pt x="311" y="-168" on="1"/>
        <pt x="311" y="-165" on="0"/>
        <pt x="314" y="-155" on="0"/>
        <pt x="329" y="-146" on="0"/>
        <pt x="359" y="-140" on="0"/>
        <pt x="386" y="-140" on="1"/>
        <pt x="413" y="-140" on="0"/>
        <pt x="431" y="-130" on="0"/>
        <pt x="431" y="-118" on="1"/>
        <pt x="431" y="-110" on="0"/>
        <pt x="416" y="-102" on="0"/>
        <pt x="408" y="-102" on="1"/>
        <pt x="394" y="-102" on="0"/>
        <pt x="375" y="-111" on="0"/>
        <pt x="356" y="-121" on="0"/>
        <pt x="334" y="-130" on="0"/>
        <pt x="318" y="-130" on="1"/>
        <pt x="295" y="-130" on="0"/>
        <pt x="280" y="-108" on="0"/>
        <pt x="280" y="-97" on="1"/>
        <pt x="280" y="-94" on="0"/>
        <pt x="282" y="-84" on="0"/>
        <pt x="283" y="-80" on="1"/>
        <pt x="287" y="-63" on="0"/>
        <pt x="291" y="-24" on="0"/>
        <pt x="293" y="-11" on="1"/>
        <pt x="243" y="-4" on="0"/>
        <pt x="150" y="50" on="0"/>
        <pt x="78" y="151" on="0"/>
        <pt x="34" y="302" on="0"/>
        <pt x="34" y="405" on="1"/>
        <pt x="34" y="496" on="0"/>
        <pt x="83" y="654" on="0"/>
        <pt x="167" y="771" on="0"/>
        <pt x="279" y="838" on="0"/>
        <pt x="342" y="838" on="1"/>
        <pt x="383" y="838" on="0"/>
        <pt x="449" y="813" on="0"/>
        <pt x="497" y="774" on="0"/>
        <pt x="528" y="728" on="0"/>
        <pt x="536" y="707" on="1"/>
        <pt x="533" y="759" on="0"/>
        <pt x="532" y="791" on="0"/>
        <pt x="532" y="793" on="1"/>
        <pt x="532" y="807" on="0"/>
        <pt x="546" y="829" on="0"/>
        <pt x="570" y="829" on="1"/>
        <pt x="586" y="829" on="0"/>
        <pt x="605" y="819" on="0"/>
        <pt x="613" y="805" on="0"/>
        <pt x="615" y="791" on="0"/>
        <pt x="615" y="787" on="1"/>
        <pt x="615" y="752" on="0"/>
        <pt x="611" y="670" on="0"/>
        <pt x="611" y="634" on="1"/>
        <pt x="611" y="602" on="0"/>
        <pt x="613" y="545" on="0"/>
        <pt x="613" y="513" on="1"/>
        <pt x="613" y="489" on="0"/>
        <pt x="595" y="465" on="0"/>
        <pt x="570" y="465" on="1"/>
        <pt x="546" y="465" on="0"/>
        <pt x="523" y="486" on="0"/>
        <pt x="522" y="524" on="1"/>
        <pt x="521" y="567" on="0"/>
        <pt x="501" y="652" on="0"/>
        <pt x="458" y="718" on="0"/>
        <pt x="391" y="759" on="0"/>
        <pt x="343" y="759" on="1"/>
        <pt x="296" y="759" on="0"/>
        <pt x="218" y="700" on="0"/>
        <pt x="161" y="601" on="0"/>
        <pt x="130" y="473" on="0"/>
        <pt x="130" y="404" on="1"/>
        <pt x="130" y="335" on="0"/>
        <pt x="156" y="212" on="0"/>
        <pt x="207" y="120" on="0"/>
        <pt x="285" y="66" on="0"/>
        <pt x="337" y="66" on="1"/>
        <pt x="380" y="66" on="0"/>
        <pt x="446" y="81" on="0"/>
        <pt x="497" y="114" on="0"/>
        <pt x="533" y="168" on="0"/>
        <pt x="546" y="207" on="1"/>
        <pt x="555" y="235" on="0"/>
        <pt x="573" y="253" on="0"/>
        <pt x="592" y="253" on="1"/>
        <pt x="628" y="253" on="0"/>
      </contour>
    </TTGlyph>
    <TTGlyph name="Ccircumflex" xMin="34" yMin="-14" xMax="628" yMax="972">
      <contour>
        <pt x="457" y="830" on="1"/>
        <pt x="446" y="830" on="0"/>
        <pt x="377" y="858" on="0"/>
        <pt x="337" y="880" on="1"/>
        <pt x="297" y="858" on="0"/>
        <pt x="229" y="830" on="0"/>
        <pt x="218" y="830" on="1"/>
        <pt x="211" y="830" on="0"/>
        <pt x="205" y="839" on="0"/>
        <pt x="205" y="844" on="1"/>
        <pt x="205" y="864" on="0"/>
        <pt x="241" y="909" on="0"/>
        <pt x="287" y="947" on="0"/>
        <pt x="330" y="972" on="0"/>
        <pt x="337" y="972" on="1"/>
        <pt x="346" y="972" on="0"/>
        <pt x="389" y="946" on="0"/>
        <pt x="435" y="908" on="0"/>
        <pt x="470" y="867" on="0"/>
        <pt x="470" y="851" on="1"/>
        <pt x="470" y="844" on="0"/>
        <pt x="465" y="830" on="0"/>
      </contour>
      <contour>
        <pt x="628" y="222" on="1"/>
        <pt x="628" y="190" on="0"/>
        <pt x="595" y="109" on="0"/>
        <pt x="524" y="36" on="0"/>
        <pt x="410" y="-14" on="0"/>
        <pt x="329" y="-14" on="1"/>
        <pt x="275" y="-14" on="0"/>
        <pt x="169" y="33" on="0"/>
        <pt x="85" y="134" on="0"/>
        <pt x="34" y="293" on="0"/>
        <pt x="34" y="405" on="1"/>
        <pt x="34" y="496" on="0"/>
        <pt x="83" y="654" on="0"/>
        <pt x="167" y="771" on="0"/>
        <pt x="279" y="838" on="0"/>
        <pt x="342" y="838" on="1"/>
        <pt x="383" y="838" on="0"/>
        <pt x="449" y="813" on="0"/>
        <pt x="497" y="774" on="0"/>
        <pt x="528" y="728" on="0"/>
        <pt x="536" y="707" on="1"/>
        <pt x="533" y="759" on="0"/>
        <pt x="532" y="791" on="0"/>
        <pt x="532" y="793" on="1"/>
        <pt x="532" y="807" on="0"/>
        <pt x="546" y="829" on="0"/>
        <pt x="570" y="829" on="1"/>
        <pt x="586" y="829" on="0"/>
        <pt x="605" y="819" on="0"/>
        <pt x="613" y="805" on="0"/>
        <pt x="615" y="791" on="0"/>
        <pt x="615" y="787" on="1"/>
        <pt x="615" y="752" on="0"/>
        <pt x="611" y="670" on="0"/>
        <pt x="611" y="634" on="1"/>
        <pt x="611" y="602" on="0"/>
        <pt x="613" y="545" on="0"/>
        <pt x="613" y="513" on="1"/>
        <pt x="613" y="489" on="0"/>
        <pt x="595" y="465" on="0"/>
        <pt x="570" y="465" on="1"/>
        <pt x="546" y="465" on="0"/>
        <pt x="523" y="486" on="0"/>
        <pt x="522" y="524" on="1"/>
        <pt x="521" y="567" on="0"/>
        <pt x="501" y="652" on="0"/>
        <pt x="458" y="718" on="0"/>
        <pt x="391" y="759" on="0"/>
        <pt x="343" y="759" on="1"/>
        <pt x="296" y="759" on="0"/>
        <pt x="218" y="700" on="0"/>
        <pt x="161" y="601" on="0"/>
        <pt x="130" y="473" on="0"/>
        <pt x="130" y="404" on="1"/>
        <pt x="130" y="335" on="0"/>
        <pt x="156" y="212" on="0"/>
        <pt x="207" y="120" on="0"/>
        <pt x="285" y="66" on="0"/>
        <pt x="337" y="66" on="1"/>
        <pt x="380" y="66" on="0"/>
        <pt x="446" y="81" on="0"/>
        <pt x="497" y="114" on="0"/>
        <pt x="533" y="168" on="0"/>
        <pt x="546" y="207" on="1"/>
        <pt x="555" y="235" on="0"/>
        <pt x="573" y="253" on="0"/>
        <pt x="592" y="253" on="1"/>
        <pt x="628" y="253" on="0"/>
      </contour>
    </TTGlyph>
    <TTGlyph name="Cdotaccent" xMin="34" yMin="-14" xMax="628" yMax="971">
      <contour>
        <pt x="628" y="222" on="1"/>
        <pt x="628" y="190" on="0"/>
        <pt x="595" y="109" on="0"/>
        <pt x="524" y="36" on="0"/>
        <pt x="410" y="-14" on="0"/>
        <pt x="329" y="-14" on="1"/>
        <pt x="275" y="-14" on="0"/>
        <pt x="169" y="33" on="0"/>
        <pt x="85" y="134" on="0"/>
        <pt x="34" y="293" on="0"/>
        <pt x="34" y="405" on="1"/>
        <pt x="34" y="496" on="0"/>
        <pt x="83" y="654" on="0"/>
        <pt x="167" y="771" on="0"/>
        <pt x="279" y="838" on="0"/>
        <pt x="342" y="838" on="1"/>
        <pt x="383" y="838" on="0"/>
        <pt x="449" y="813" on="0"/>
        <pt x="497" y="774" on="0"/>
        <pt x="528" y="728" on="0"/>
        <pt x="536" y="707" on="1"/>
        <pt x="533" y="759" on="0"/>
        <pt x="532" y="791" on="0"/>
        <pt x="532" y="793" on="1"/>
        <pt x="532" y="807" on="0"/>
        <pt x="546" y="829" on="0"/>
        <pt x="570" y="829" on="1"/>
        <pt x="586" y="829" on="0"/>
        <pt x="605" y="819" on="0"/>
        <pt x="613" y="805" on="0"/>
        <pt x="615" y="791" on="0"/>
        <pt x="615" y="787" on="1"/>
        <pt x="615" y="752" on="0"/>
        <pt x="611" y="670" on="0"/>
        <pt x="611" y="634" on="1"/>
        <pt x="611" y="602" on="0"/>
        <pt x="613" y="545" on="0"/>
        <pt x="613" y="513" on="1"/>
        <pt x="613" y="489" on="0"/>
        <pt x="595" y="465" on="0"/>
        <pt x="570" y="465" on="1"/>
        <pt x="546" y="465" on="0"/>
        <pt x="523" y="486" on="0"/>
        <pt x="522" y="524" on="1"/>
        <pt x="521" y="567" on="0"/>
        <pt x="501" y="652" on="0"/>
        <pt x="458" y="718" on="0"/>
        <pt x="391" y="759" on="0"/>
        <pt x="343" y="759" on="1"/>
        <pt x="296" y="759" on="0"/>
        <pt x="218" y="700" on="0"/>
        <pt x="161" y="601" on="0"/>
        <pt x="130" y="473" on="0"/>
        <pt x="130" y="404" on="1"/>
        <pt x="130" y="335" on="0"/>
        <pt x="156" y="212" on="0"/>
        <pt x="207" y="120" on="0"/>
        <pt x="285" y="66" on="0"/>
        <pt x="337" y="66" on="1"/>
        <pt x="380" y="66" on="0"/>
        <pt x="446" y="81" on="0"/>
        <pt x="497" y="114" on="0"/>
        <pt x="533" y="168" on="0"/>
        <pt x="546" y="207" on="1"/>
        <pt x="555" y="235" on="0"/>
        <pt x="573" y="253" on="0"/>
        <pt x="592" y="253" on="1"/>
        <pt x="628" y="253" on="0"/>
      </contour>
      <contour>
        <pt x="284" y="906" on="1"/>
        <pt x="284" y="916" on="0"/>
        <pt x="291" y="939" on="0"/>
        <pt x="307" y="958" on="0"/>
        <pt x="332" y="971" on="0"/>
        <pt x="350" y="971" on="1"/>
        <pt x="374" y="971" on="0"/>
        <pt x="410" y="937" on="0"/>
        <pt x="410" y="910" on="1"/>
        <pt x="410" y="889" on="0"/>
        <pt x="397" y="862" on="0"/>
        <pt x="378" y="846" on="0"/>
        <pt x="354" y="840" on="0"/>
        <pt x="343" y="840" on="1"/>
        <pt x="318" y="840" on="0"/>
        <pt x="284" y="874" on="0"/>
      </contour>
    </TTGlyph>
    <TTGlyph name="D" xMin="41" yMin="0" xMax="682" yMax="821">
      <contour>
        <pt x="41" y="776" on="1"/>
        <pt x="41" y="794" on="0"/>
        <pt x="59" y="817" on="0"/>
        <pt x="76" y="818" on="1"/>
        <pt x="126" y="820" on="0"/>
        <pt x="238" y="821" on="0"/>
        <pt x="299" y="821" on="1"/>
        <pt x="362" y="821" on="0"/>
        <pt x="498" y="781" on="0"/>
        <pt x="610" y="691" on="0"/>
        <pt x="682" y="545" on="0"/>
        <pt x="682" y="439" on="1"/>
        <pt x="682" y="349" on="0"/>
        <pt x="633" y="189" on="0"/>
        <pt x="535" y="70" on="0"/>
        <pt x="387" y="0" on="0"/>
        <pt x="289" y="0" on="1"/>
        <pt x="78" y="0" on="1"/>
        <pt x="41" y="0" on="0"/>
        <pt x="41" y="31" on="1"/>
        <pt x="41" y="54" on="0"/>
        <pt x="63" y="71" on="0"/>
        <pt x="83" y="73" on="1"/>
        <pt x="111" y="75" on="0"/>
        <pt x="138" y="85" on="0"/>
        <pt x="138" y="97" on="1"/>
        <pt x="138" y="150" on="0"/>
        <pt x="138" y="220" on="0"/>
        <pt x="139" y="288" on="0"/>
        <pt x="139" y="371" on="0"/>
        <pt x="139" y="437" on="1"/>
        <pt x="139" y="455" on="0"/>
        <pt x="137" y="523" on="0"/>
        <pt x="134" y="600" on="0"/>
        <pt x="132" y="673" on="0"/>
        <pt x="132" y="696" on="1"/>
        <pt x="132" y="722" on="0"/>
        <pt x="100" y="738" on="0"/>
        <pt x="78" y="738" on="1"/>
        <pt x="41" y="738" on="0"/>
      </contour>
      <contour>
        <pt x="293" y="738" on="1"/>
        <pt x="278" y="738" on="0"/>
        <pt x="246" y="735" on="0"/>
        <pt x="231" y="734" on="1"/>
        <pt x="231" y="92" on="1"/>
        <pt x="231" y="88" on="0"/>
        <pt x="244" y="84" on="0"/>
        <pt x="262" y="82" on="0"/>
        <pt x="284" y="82" on="0"/>
        <pt x="293" y="82" on="1"/>
        <pt x="370" y="82" on="0"/>
        <pt x="481" y="136" on="0"/>
        <pt x="552" y="232" on="0"/>
        <pt x="586" y="363" on="0"/>
        <pt x="586" y="439" on="1"/>
        <pt x="586" y="500" on="0"/>
        <pt x="552" y="609" on="0"/>
        <pt x="480" y="691" on="0"/>
        <pt x="369" y="738" on="0"/>
      </contour>
    </TTGlyph>
    <TTGlyph name="Dcaron" xMin="41" yMin="0" xMax="682" yMax="972">
      <contour>
        <pt x="443" y="972" on="1"/>
        <pt x="451" y="972" on="0"/>
        <pt x="456" y="958" on="0"/>
        <pt x="456" y="951" on="1"/>
        <pt x="456" y="935" on="0"/>
        <pt x="421" y="893" on="0"/>
        <pt x="375" y="856" on="0"/>
        <pt x="332" y="830" on="0"/>
        <pt x="323" y="830" on="1"/>
        <pt x="316" y="830" on="0"/>
        <pt x="273" y="855" on="0"/>
        <pt x="227" y="894" on="0"/>
        <pt x="191" y="938" on="0"/>
        <pt x="191" y="958" on="1"/>
        <pt x="191" y="963" on="0"/>
        <pt x="197" y="972" on="0"/>
        <pt x="204" y="972" on="1"/>
        <pt x="209" y="972" on="0"/>
        <pt x="237" y="965" on="0"/>
        <pt x="271" y="952" on="0"/>
        <pt x="308" y="933" on="0"/>
        <pt x="323" y="922" on="1"/>
        <pt x="338" y="933" on="0"/>
        <pt x="375" y="952" on="0"/>
        <pt x="410" y="965" on="0"/>
        <pt x="438" y="972" on="0"/>
      </contour>
      <contour>
        <pt x="41" y="776" on="1"/>
        <pt x="41" y="794" on="0"/>
        <pt x="59" y="817" on="0"/>
        <pt x="76" y="818" on="1"/>
        <pt x="126" y="820" on="0"/>
        <pt x="238" y="821" on="0"/>
        <pt x="299" y="821" on="1"/>
        <pt x="362" y="821" on="0"/>
        <pt x="498" y="781" on="0"/>
        <pt x="610" y="691" on="0"/>
        <pt x="682" y="545" on="0"/>
        <pt x="682" y="439" on="1"/>
        <pt x="682" y="349" on="0"/>
        <pt x="633" y="189" on="0"/>
        <pt x="535" y="70" on="0"/>
        <pt x="387" y="0" on="0"/>
        <pt x="289" y="0" on="1"/>
        <pt x="78" y="0" on="1"/>
        <pt x="41" y="0" on="0"/>
        <pt x="41" y="31" on="1"/>
        <pt x="41" y="54" on="0"/>
        <pt x="63" y="71" on="0"/>
        <pt x="83" y="73" on="1"/>
        <pt x="111" y="75" on="0"/>
        <pt x="138" y="85" on="0"/>
        <pt x="138" y="97" on="1"/>
        <pt x="138" y="150" on="0"/>
        <pt x="138" y="220" on="0"/>
        <pt x="139" y="288" on="0"/>
        <pt x="139" y="371" on="0"/>
        <pt x="139" y="437" on="1"/>
        <pt x="139" y="455" on="0"/>
        <pt x="137" y="523" on="0"/>
        <pt x="134" y="600" on="0"/>
        <pt x="132" y="673" on="0"/>
        <pt x="132" y="696" on="1"/>
        <pt x="132" y="722" on="0"/>
        <pt x="100" y="738" on="0"/>
        <pt x="78" y="738" on="1"/>
        <pt x="41" y="738" on="0"/>
      </contour>
      <contour>
        <pt x="293" y="738" on="1"/>
        <pt x="278" y="738" on="0"/>
        <pt x="246" y="735" on="0"/>
        <pt x="231" y="734" on="1"/>
        <pt x="231" y="92" on="1"/>
        <pt x="231" y="88" on="0"/>
        <pt x="244" y="84" on="0"/>
        <pt x="262" y="82" on="0"/>
        <pt x="284" y="82" on="0"/>
        <pt x="293" y="82" on="1"/>
        <pt x="370" y="82" on="0"/>
        <pt x="481" y="136" on="0"/>
        <pt x="552" y="232" on="0"/>
        <pt x="586" y="363" on="0"/>
        <pt x="586" y="439" on="1"/>
        <pt x="586" y="500" on="0"/>
        <pt x="552" y="609" on="0"/>
        <pt x="480" y="691" on="0"/>
        <pt x="369" y="738" on="0"/>
      </contour>
    </TTGlyph>
    <TTGlyph name="Dcroat" xMin="44" yMin="0" xMax="685" yMax="821">
      <contour>
        <pt x="44" y="776" on="1"/>
        <pt x="44" y="794" on="0"/>
        <pt x="62" y="817" on="0"/>
        <pt x="79" y="818" on="1"/>
        <pt x="129" y="820" on="0"/>
        <pt x="241" y="821" on="0"/>
        <pt x="302" y="821" on="1"/>
        <pt x="365" y="821" on="0"/>
        <pt x="501" y="781" on="0"/>
        <pt x="613" y="691" on="0"/>
        <pt x="685" y="545" on="0"/>
        <pt x="685" y="439" on="1"/>
        <pt x="685" y="349" on="0"/>
        <pt x="636" y="189" on="0"/>
        <pt x="538" y="70" on="0"/>
        <pt x="390" y="0" on="0"/>
        <pt x="292" y="0" on="1"/>
        <pt x="81" y="0" on="1"/>
        <pt x="44" y="0" on="0"/>
        <pt x="44" y="31" on="1"/>
        <pt x="44" y="54" on="0"/>
        <pt x="66" y="71" on="0"/>
        <pt x="86" y="73" on="1"/>
        <pt x="114" y="75" on="0"/>
        <pt x="141" y="85" on="0"/>
        <pt x="141" y="97" on="1"/>
        <pt x="141" y="140" on="0"/>
        <pt x="141" y="205" on="0"/>
        <pt x="142" y="263" on="0"/>
        <pt x="142" y="324" on="0"/>
        <pt x="142" y="365" on="1"/>
        <pt x="98" y="365" on="1"/>
        <pt x="91" y="365" on="0"/>
        <pt x="79" y="375" on="0"/>
        <pt x="70" y="388" on="0"/>
        <pt x="65" y="403" on="0"/>
        <pt x="65" y="409" on="1"/>
        <pt x="65" y="422" on="0"/>
        <pt x="81" y="452" on="0"/>
        <pt x="98" y="452" on="1"/>
        <pt x="104" y="452" on="0"/>
        <pt x="128" y="451" on="0"/>
        <pt x="142" y="451" on="1"/>
        <pt x="142" y="473" on="0"/>
        <pt x="139" y="539" on="0"/>
        <pt x="137" y="610" on="0"/>
        <pt x="135" y="675" on="0"/>
        <pt x="135" y="696" on="1"/>
        <pt x="135" y="722" on="0"/>
        <pt x="103" y="738" on="0"/>
        <pt x="81" y="738" on="1"/>
        <pt x="44" y="738" on="0"/>
      </contour>
      <contour>
        <pt x="296" y="738" on="1"/>
        <pt x="281" y="738" on="0"/>
        <pt x="249" y="735" on="0"/>
        <pt x="234" y="734" on="1"/>
        <pt x="234" y="450" on="1"/>
        <pt x="269" y="450" on="0"/>
        <pt x="325" y="453" on="0"/>
        <pt x="347" y="453" on="1"/>
        <pt x="358" y="453" on="0"/>
        <pt x="375" y="425" on="0"/>
        <pt x="375" y="412" on="1"/>
        <pt x="375" y="407" on="0"/>
        <pt x="372" y="392" on="0"/>
        <pt x="364" y="377" on="0"/>
        <pt x="350" y="366" on="0"/>
        <pt x="339" y="366" on="1"/>
        <pt x="322" y="366" on="0"/>
        <pt x="265" y="365" on="0"/>
        <pt x="234" y="365" on="1"/>
        <pt x="234" y="92" on="1"/>
        <pt x="234" y="88" on="0"/>
        <pt x="247" y="84" on="0"/>
        <pt x="265" y="82" on="0"/>
        <pt x="287" y="82" on="0"/>
        <pt x="296" y="82" on="1"/>
        <pt x="373" y="82" on="0"/>
        <pt x="484" y="136" on="0"/>
        <pt x="555" y="232" on="0"/>
        <pt x="589" y="363" on="0"/>
        <pt x="589" y="439" on="1"/>
        <pt x="589" y="500" on="0"/>
        <pt x="555" y="609" on="0"/>
        <pt x="483" y="691" on="0"/>
        <pt x="372" y="738" on="0"/>
      </contour>
    </TTGlyph>
    <TTGlyph name="E" xMin="37" yMin="0" xMax="651" yMax="821">
      <contour>
        <pt x="613" y="318" on="1"/>
        <pt x="627" y="318" on="0"/>
        <pt x="651" y="302" on="0"/>
        <pt x="651" y="285" on="1"/>
        <pt x="651" y="276" on="0"/>
        <pt x="649" y="218" on="0"/>
        <pt x="644" y="143" on="0"/>
        <pt x="638" y="63" on="0"/>
        <pt x="635" y="33" on="1"/>
        <pt x="633" y="12" on="0"/>
        <pt x="618" y="0" on="0"/>
        <pt x="593" y="0" on="1"/>
        <pt x="532" y="0" on="0"/>
        <pt x="417" y="2" on="0"/>
        <pt x="356" y="2" on="1"/>
        <pt x="326" y="2" on="0"/>
        <pt x="256" y="1" on="0"/>
        <pt x="186" y="1" on="0"/>
        <pt x="116" y="0" on="0"/>
        <pt x="86" y="0" on="1"/>
        <pt x="60" y="0" on="0"/>
        <pt x="38" y="16" on="0"/>
        <pt x="38" y="33" on="1"/>
        <pt x="38" y="55" on="0"/>
        <pt x="68" y="72" on="0"/>
        <pt x="89" y="73" on="1"/>
        <pt x="118" y="75" on="0"/>
        <pt x="136" y="92" on="0"/>
        <pt x="136" y="109" on="1"/>
        <pt x="136" y="141" on="0"/>
        <pt x="136" y="187" on="0"/>
        <pt x="137" y="227" on="0"/>
        <pt x="137" y="266" on="0"/>
        <pt x="138" y="315" on="0"/>
        <pt x="138" y="379" on="0"/>
        <pt x="138" y="425" on="1"/>
        <pt x="138" y="476" on="0"/>
        <pt x="136" y="554" on="0"/>
        <pt x="134" y="620" on="0"/>
        <pt x="132" y="678" on="0"/>
        <pt x="132" y="708" on="1"/>
        <pt x="132" y="737" on="0"/>
        <pt x="114" y="747" on="0"/>
        <pt x="93" y="747" on="1"/>
        <pt x="68" y="747" on="0"/>
        <pt x="37" y="764" on="0"/>
        <pt x="37" y="781" on="1"/>
        <pt x="37" y="807" on="0"/>
        <pt x="62" y="821" on="0"/>
        <pt x="94" y="821" on="1"/>
        <pt x="127" y="821" on="0"/>
        <pt x="202" y="820" on="0"/>
        <pt x="273" y="820" on="0"/>
        <pt x="333" y="819" on="0"/>
        <pt x="352" y="819" on="1"/>
        <pt x="389" y="819" on="0"/>
        <pt x="436" y="820" on="0"/>
        <pt x="481" y="820" on="0"/>
        <pt x="535" y="821" on="0"/>
        <pt x="579" y="821" on="1"/>
        <pt x="593" y="821" on="0"/>
        <pt x="607" y="806" on="0"/>
        <pt x="607" y="785" on="1"/>
        <pt x="607" y="643" on="1"/>
        <pt x="607" y="616" on="0"/>
        <pt x="588" y="597" on="0"/>
        <pt x="566" y="597" on="1"/>
        <pt x="540" y="597" on="0"/>
        <pt x="519" y="623" on="0"/>
        <pt x="519" y="637" on="1"/>
        <pt x="519" y="709" on="1"/>
        <pt x="519" y="727" on="0"/>
        <pt x="499" y="737" on="0"/>
        <pt x="482" y="737" on="1"/>
        <pt x="230" y="737" on="1"/>
        <pt x="230" y="464" on="1"/>
        <pt x="244" y="463" on="0"/>
        <pt x="264" y="462" on="0"/>
        <pt x="283" y="461" on="0"/>
        <pt x="303" y="461" on="0"/>
        <pt x="318" y="461" on="1"/>
        <pt x="328" y="461" on="0"/>
        <pt x="354" y="462" on="0"/>
        <pt x="378" y="463" on="0"/>
        <pt x="397" y="464" on="0"/>
        <pt x="401" y="464" on="1"/>
        <pt x="407" y="464" on="0"/>
        <pt x="414" y="480" on="0"/>
        <pt x="417" y="503" on="0"/>
        <pt x="418" y="526" on="0"/>
        <pt x="418" y="533" on="1"/>
        <pt x="418" y="548" on="0"/>
        <pt x="439" y="570" on="0"/>
        <pt x="460" y="570" on="1"/>
        <pt x="477" y="570" on="0"/>
        <pt x="503" y="555" on="0"/>
        <pt x="503" y="531" on="1"/>
        <pt x="503" y="502" on="0"/>
        <pt x="501" y="449" on="0"/>
        <pt x="501" y="420" on="1"/>
        <pt x="501" y="391" on="0"/>
        <pt x="503" y="331" on="0"/>
        <pt x="503" y="308" on="1"/>
        <pt x="503" y="275" on="0"/>
        <pt x="461" y="275" on="1"/>
        <pt x="435" y="275" on="0"/>
        <pt x="420" y="297" on="0"/>
        <pt x="420" y="310" on="1"/>
        <pt x="420" y="318" on="0"/>
        <pt x="416" y="341" on="0"/>
        <pt x="405" y="363" on="0"/>
        <pt x="386" y="378" on="0"/>
        <pt x="372" y="378" on="1"/>
        <pt x="364" y="378" on="0"/>
        <pt x="338" y="379" on="0"/>
        <pt x="318" y="379" on="1"/>
        <pt x="304" y="379" on="0"/>
        <pt x="283" y="379" on="0"/>
        <pt x="265" y="378" on="0"/>
        <pt x="244" y="377" on="0"/>
        <pt x="230" y="377" on="1"/>
        <pt x="230" y="84" on="1"/>
        <pt x="508" y="84" on="1"/>
        <pt x="515" y="84" on="0"/>
        <pt x="530" y="86" on="0"/>
        <pt x="542" y="93" on="0"/>
        <pt x="550" y="108" on="0"/>
        <pt x="551" y="121" on="1"/>
        <pt x="552" y="136" on="0"/>
        <pt x="556" y="178" on="0"/>
        <pt x="560" y="222" on="0"/>
        <pt x="563" y="264" on="0"/>
        <pt x="564" y="281" on="1"/>
        <pt x="565" y="303" on="0"/>
        <pt x="595" y="318" on="0"/>
      </contour>
    </TTGlyph>
    <TTGlyph name="Eacute" xMin="37" yMin="0" xMax="651" yMax="972">
      <contour>
        <pt x="462" y="936" on="1"/>
        <pt x="462" y="921" on="0"/>
        <pt x="434" y="888" on="0"/>
        <pt x="396" y="860" on="0"/>
        <pt x="355" y="841" on="0"/>
        <pt x="342" y="841" on="1"/>
        <pt x="327" y="841" on="0"/>
        <pt x="307" y="860" on="0"/>
        <pt x="307" y="872" on="1"/>
        <pt x="307" y="882" on="0"/>
        <pt x="332" y="916" on="0"/>
        <pt x="368" y="949" on="0"/>
        <pt x="407" y="972" on="0"/>
        <pt x="421" y="972" on="1"/>
        <pt x="441" y="972" on="0"/>
        <pt x="462" y="949" on="0"/>
      </contour>
      <contour>
        <pt x="613" y="318" on="1"/>
        <pt x="627" y="318" on="0"/>
        <pt x="651" y="302" on="0"/>
        <pt x="651" y="285" on="1"/>
        <pt x="651" y="276" on="0"/>
        <pt x="649" y="218" on="0"/>
        <pt x="644" y="143" on="0"/>
        <pt x="638" y="63" on="0"/>
        <pt x="635" y="33" on="1"/>
        <pt x="633" y="12" on="0"/>
        <pt x="618" y="0" on="0"/>
        <pt x="593" y="0" on="1"/>
        <pt x="532" y="0" on="0"/>
        <pt x="417" y="2" on="0"/>
        <pt x="356" y="2" on="1"/>
        <pt x="326" y="2" on="0"/>
        <pt x="256" y="1" on="0"/>
        <pt x="186" y="1" on="0"/>
        <pt x="116" y="0" on="0"/>
        <pt x="86" y="0" on="1"/>
        <pt x="60" y="0" on="0"/>
        <pt x="38" y="16" on="0"/>
        <pt x="38" y="33" on="1"/>
        <pt x="38" y="55" on="0"/>
        <pt x="68" y="72" on="0"/>
        <pt x="89" y="73" on="1"/>
        <pt x="118" y="75" on="0"/>
        <pt x="136" y="92" on="0"/>
        <pt x="136" y="109" on="1"/>
        <pt x="136" y="141" on="0"/>
        <pt x="136" y="187" on="0"/>
        <pt x="137" y="227" on="0"/>
        <pt x="137" y="266" on="0"/>
        <pt x="138" y="315" on="0"/>
        <pt x="138" y="379" on="0"/>
        <pt x="138" y="425" on="1"/>
        <pt x="138" y="476" on="0"/>
        <pt x="136" y="554" on="0"/>
        <pt x="134" y="620" on="0"/>
        <pt x="132" y="678" on="0"/>
        <pt x="132" y="708" on="1"/>
        <pt x="132" y="737" on="0"/>
        <pt x="114" y="747" on="0"/>
        <pt x="93" y="747" on="1"/>
        <pt x="68" y="747" on="0"/>
        <pt x="37" y="764" on="0"/>
        <pt x="37" y="781" on="1"/>
        <pt x="37" y="807" on="0"/>
        <pt x="62" y="821" on="0"/>
        <pt x="94" y="821" on="1"/>
        <pt x="127" y="821" on="0"/>
        <pt x="202" y="820" on="0"/>
        <pt x="273" y="820" on="0"/>
        <pt x="333" y="819" on="0"/>
        <pt x="352" y="819" on="1"/>
        <pt x="389" y="819" on="0"/>
        <pt x="436" y="820" on="0"/>
        <pt x="481" y="820" on="0"/>
        <pt x="535" y="821" on="0"/>
        <pt x="579" y="821" on="1"/>
        <pt x="593" y="821" on="0"/>
        <pt x="607" y="806" on="0"/>
        <pt x="607" y="785" on="1"/>
        <pt x="607" y="643" on="1"/>
        <pt x="607" y="616" on="0"/>
        <pt x="588" y="597" on="0"/>
        <pt x="566" y="597" on="1"/>
        <pt x="540" y="597" on="0"/>
        <pt x="519" y="623" on="0"/>
        <pt x="519" y="637" on="1"/>
        <pt x="519" y="709" on="1"/>
        <pt x="519" y="727" on="0"/>
        <pt x="499" y="737" on="0"/>
        <pt x="482" y="737" on="1"/>
        <pt x="230" y="737" on="1"/>
        <pt x="230" y="464" on="1"/>
        <pt x="244" y="463" on="0"/>
        <pt x="264" y="462" on="0"/>
        <pt x="283" y="461" on="0"/>
        <pt x="303" y="461" on="0"/>
        <pt x="318" y="461" on="1"/>
        <pt x="328" y="461" on="0"/>
        <pt x="354" y="462" on="0"/>
        <pt x="378" y="463" on="0"/>
        <pt x="397" y="464" on="0"/>
        <pt x="401" y="464" on="1"/>
        <pt x="407" y="464" on="0"/>
        <pt x="414" y="480" on="0"/>
        <pt x="417" y="503" on="0"/>
        <pt x="418" y="526" on="0"/>
        <pt x="418" y="533" on="1"/>
        <pt x="418" y="548" on="0"/>
        <pt x="439" y="570" on="0"/>
        <pt x="460" y="570" on="1"/>
        <pt x="477" y="570" on="0"/>
        <pt x="503" y="555" on="0"/>
        <pt x="503" y="531" on="1"/>
        <pt x="503" y="502" on="0"/>
        <pt x="501" y="449" on="0"/>
        <pt x="501" y="420" on="1"/>
        <pt x="501" y="391" on="0"/>
        <pt x="503" y="331" on="0"/>
        <pt x="503" y="308" on="1"/>
        <pt x="503" y="275" on="0"/>
        <pt x="461" y="275" on="1"/>
        <pt x="435" y="275" on="0"/>
        <pt x="420" y="297" on="0"/>
        <pt x="420" y="310" on="1"/>
        <pt x="420" y="318" on="0"/>
        <pt x="416" y="341" on="0"/>
        <pt x="405" y="363" on="0"/>
        <pt x="386" y="378" on="0"/>
        <pt x="372" y="378" on="1"/>
        <pt x="364" y="378" on="0"/>
        <pt x="338" y="379" on="0"/>
        <pt x="318" y="379" on="1"/>
        <pt x="304" y="379" on="0"/>
        <pt x="283" y="379" on="0"/>
        <pt x="265" y="378" on="0"/>
        <pt x="244" y="377" on="0"/>
        <pt x="230" y="377" on="1"/>
        <pt x="230" y="84" on="1"/>
        <pt x="508" y="84" on="1"/>
        <pt x="515" y="84" on="0"/>
        <pt x="530" y="86" on="0"/>
        <pt x="542" y="93" on="0"/>
        <pt x="550" y="108" on="0"/>
        <pt x="551" y="121" on="1"/>
        <pt x="552" y="136" on="0"/>
        <pt x="556" y="178" on="0"/>
        <pt x="560" y="222" on="0"/>
        <pt x="563" y="264" on="0"/>
        <pt x="564" y="281" on="1"/>
        <pt x="565" y="303" on="0"/>
        <pt x="595" y="318" on="0"/>
      </contour>
    </TTGlyph>
    <TTGlyph name="Ebreve" xMin="37" yMin="0" xMax="651" yMax="971">
      <contour>
        <pt x="613" y="318" on="1"/>
        <pt x="627" y="318" on="0"/>
        <pt x="651" y="302" on="0"/>
        <pt x="651" y="285" on="1"/>
        <pt x="651" y="276" on="0"/>
        <pt x="649" y="218" on="0"/>
        <pt x="644" y="143" on="0"/>
        <pt x="638" y="63" on="0"/>
        <pt x="635" y="33" on="1"/>
        <pt x="633" y="12" on="0"/>
        <pt x="618" y="0" on="0"/>
        <pt x="593" y="0" on="1"/>
        <pt x="532" y="0" on="0"/>
        <pt x="417" y="2" on="0"/>
        <pt x="356" y="2" on="1"/>
        <pt x="326" y="2" on="0"/>
        <pt x="256" y="1" on="0"/>
        <pt x="186" y="1" on="0"/>
        <pt x="116" y="0" on="0"/>
        <pt x="86" y="0" on="1"/>
        <pt x="60" y="0" on="0"/>
        <pt x="38" y="16" on="0"/>
        <pt x="38" y="33" on="1"/>
        <pt x="38" y="55" on="0"/>
        <pt x="68" y="72" on="0"/>
        <pt x="89" y="73" on="1"/>
        <pt x="118" y="75" on="0"/>
        <pt x="136" y="92" on="0"/>
        <pt x="136" y="109" on="1"/>
        <pt x="136" y="141" on="0"/>
        <pt x="136" y="187" on="0"/>
        <pt x="137" y="227" on="0"/>
        <pt x="137" y="266" on="0"/>
        <pt x="138" y="315" on="0"/>
        <pt x="138" y="379" on="0"/>
        <pt x="138" y="425" on="1"/>
        <pt x="138" y="476" on="0"/>
        <pt x="136" y="554" on="0"/>
        <pt x="134" y="620" on="0"/>
        <pt x="132" y="678" on="0"/>
        <pt x="132" y="708" on="1"/>
        <pt x="132" y="737" on="0"/>
        <pt x="114" y="747" on="0"/>
        <pt x="93" y="747" on="1"/>
        <pt x="68" y="747" on="0"/>
        <pt x="37" y="764" on="0"/>
        <pt x="37" y="781" on="1"/>
        <pt x="37" y="807" on="0"/>
        <pt x="62" y="821" on="0"/>
        <pt x="94" y="821" on="1"/>
        <pt x="127" y="821" on="0"/>
        <pt x="202" y="820" on="0"/>
        <pt x="273" y="820" on="0"/>
        <pt x="333" y="819" on="0"/>
        <pt x="352" y="819" on="1"/>
        <pt x="389" y="819" on="0"/>
        <pt x="436" y="820" on="0"/>
        <pt x="481" y="820" on="0"/>
        <pt x="535" y="821" on="0"/>
        <pt x="579" y="821" on="1"/>
        <pt x="593" y="821" on="0"/>
        <pt x="607" y="806" on="0"/>
        <pt x="607" y="785" on="1"/>
        <pt x="607" y="643" on="1"/>
        <pt x="607" y="616" on="0"/>
        <pt x="588" y="597" on="0"/>
        <pt x="566" y="597" on="1"/>
        <pt x="540" y="597" on="0"/>
        <pt x="519" y="623" on="0"/>
        <pt x="519" y="637" on="1"/>
        <pt x="519" y="709" on="1"/>
        <pt x="519" y="727" on="0"/>
        <pt x="499" y="737" on="0"/>
        <pt x="482" y="737" on="1"/>
        <pt x="230" y="737" on="1"/>
        <pt x="230" y="464" on="1"/>
        <pt x="244" y="463" on="0"/>
        <pt x="264" y="462" on="0"/>
        <pt x="283" y="461" on="0"/>
        <pt x="303" y="461" on="0"/>
        <pt x="318" y="461" on="1"/>
        <pt x="328" y="461" on="0"/>
        <pt x="354" y="462" on="0"/>
        <pt x="378" y="463" on="0"/>
        <pt x="397" y="464" on="0"/>
        <pt x="401" y="464" on="1"/>
        <pt x="407" y="464" on="0"/>
        <pt x="414" y="480" on="0"/>
        <pt x="417" y="503" on="0"/>
        <pt x="418" y="526" on="0"/>
        <pt x="418" y="533" on="1"/>
        <pt x="418" y="548" on="0"/>
        <pt x="439" y="570" on="0"/>
        <pt x="460" y="570" on="1"/>
        <pt x="477" y="570" on="0"/>
        <pt x="503" y="555" on="0"/>
        <pt x="503" y="531" on="1"/>
        <pt x="503" y="502" on="0"/>
        <pt x="501" y="449" on="0"/>
        <pt x="501" y="420" on="1"/>
        <pt x="501" y="391" on="0"/>
        <pt x="503" y="331" on="0"/>
        <pt x="503" y="308" on="1"/>
        <pt x="503" y="275" on="0"/>
        <pt x="461" y="275" on="1"/>
        <pt x="435" y="275" on="0"/>
        <pt x="420" y="297" on="0"/>
        <pt x="420" y="310" on="1"/>
        <pt x="420" y="318" on="0"/>
        <pt x="416" y="341" on="0"/>
        <pt x="405" y="363" on="0"/>
        <pt x="386" y="378" on="0"/>
        <pt x="372" y="378" on="1"/>
        <pt x="364" y="378" on="0"/>
        <pt x="338" y="379" on="0"/>
        <pt x="318" y="379" on="1"/>
        <pt x="304" y="379" on="0"/>
        <pt x="283" y="379" on="0"/>
        <pt x="265" y="378" on="0"/>
        <pt x="244" y="377" on="0"/>
        <pt x="230" y="377" on="1"/>
        <pt x="230" y="84" on="1"/>
        <pt x="508" y="84" on="1"/>
        <pt x="515" y="84" on="0"/>
        <pt x="530" y="86" on="0"/>
        <pt x="542" y="93" on="0"/>
        <pt x="550" y="108" on="0"/>
        <pt x="551" y="121" on="1"/>
        <pt x="552" y="136" on="0"/>
        <pt x="556" y="178" on="0"/>
        <pt x="560" y="222" on="0"/>
        <pt x="563" y="264" on="0"/>
        <pt x="564" y="281" on="1"/>
        <pt x="565" y="303" on="0"/>
        <pt x="595" y="318" on="0"/>
      </contour>
      <contour>
        <pt x="500" y="941" on="1"/>
        <pt x="500" y="921" on="0"/>
        <pt x="477" y="892" on="0"/>
        <pt x="441" y="872" on="0"/>
        <pt x="398" y="862" on="0"/>
        <pt x="379" y="862" on="1"/>
        <pt x="314" y="862" on="0"/>
        <pt x="247" y="909" on="0"/>
        <pt x="247" y="941" on="1"/>
        <pt x="247" y="954" on="0"/>
        <pt x="262" y="971" on="0"/>
        <pt x="279" y="971" on="1"/>
        <pt x="296" y="971" on="0"/>
        <pt x="315" y="959" on="0"/>
        <pt x="315" y="942" on="1"/>
        <pt x="315" y="936" on="0"/>
        <pt x="326" y="927" on="0"/>
        <pt x="344" y="921" on="0"/>
        <pt x="365" y="919" on="0"/>
        <pt x="374" y="919" on="1"/>
        <pt x="403" y="919" on="0"/>
        <pt x="430" y="934" on="0"/>
        <pt x="430" y="942" on="1"/>
        <pt x="430" y="953" on="0"/>
        <pt x="449" y="971" on="0"/>
        <pt x="462" y="971" on="1"/>
        <pt x="477" y="971" on="0"/>
        <pt x="500" y="961" on="0"/>
      </contour>
    </TTGlyph>
    <TTGlyph name="Ecaron" xMin="37" yMin="0" xMax="651" yMax="972">
      <contour>
        <pt x="486" y="972" on="1"/>
        <pt x="494" y="972" on="0"/>
        <pt x="499" y="958" on="0"/>
        <pt x="499" y="951" on="1"/>
        <pt x="499" y="935" on="0"/>
        <pt x="464" y="893" on="0"/>
        <pt x="419" y="856" on="0"/>
        <pt x="375" y="830" on="0"/>
        <pt x="366" y="830" on="1"/>
        <pt x="359" y="830" on="0"/>
        <pt x="316" y="855" on="0"/>
        <pt x="270" y="894" on="0"/>
        <pt x="234" y="938" on="0"/>
        <pt x="234" y="958" on="1"/>
        <pt x="234" y="963" on="0"/>
        <pt x="241" y="972" on="0"/>
        <pt x="247" y="972" on="1"/>
        <pt x="252" y="972" on="0"/>
        <pt x="280" y="965" on="0"/>
        <pt x="314" y="951" on="0"/>
        <pt x="351" y="933" on="0"/>
        <pt x="366" y="922" on="1"/>
        <pt x="381" y="933" on="0"/>
        <pt x="418" y="951" on="0"/>
        <pt x="453" y="965" on="0"/>
        <pt x="481" y="972" on="0"/>
      </contour>
      <contour>
        <pt x="613" y="318" on="1"/>
        <pt x="627" y="318" on="0"/>
        <pt x="651" y="302" on="0"/>
        <pt x="651" y="285" on="1"/>
        <pt x="651" y="276" on="0"/>
        <pt x="649" y="218" on="0"/>
        <pt x="644" y="143" on="0"/>
        <pt x="638" y="63" on="0"/>
        <pt x="635" y="33" on="1"/>
        <pt x="633" y="12" on="0"/>
        <pt x="618" y="0" on="0"/>
        <pt x="593" y="0" on="1"/>
        <pt x="532" y="0" on="0"/>
        <pt x="417" y="2" on="0"/>
        <pt x="356" y="2" on="1"/>
        <pt x="326" y="2" on="0"/>
        <pt x="256" y="1" on="0"/>
        <pt x="186" y="1" on="0"/>
        <pt x="116" y="0" on="0"/>
        <pt x="86" y="0" on="1"/>
        <pt x="60" y="0" on="0"/>
        <pt x="38" y="16" on="0"/>
        <pt x="38" y="33" on="1"/>
        <pt x="38" y="55" on="0"/>
        <pt x="68" y="72" on="0"/>
        <pt x="89" y="73" on="1"/>
        <pt x="118" y="75" on="0"/>
        <pt x="136" y="92" on="0"/>
        <pt x="136" y="109" on="1"/>
        <pt x="136" y="141" on="0"/>
        <pt x="136" y="187" on="0"/>
        <pt x="137" y="227" on="0"/>
        <pt x="137" y="266" on="0"/>
        <pt x="138" y="315" on="0"/>
        <pt x="138" y="379" on="0"/>
        <pt x="138" y="425" on="1"/>
        <pt x="138" y="476" on="0"/>
        <pt x="136" y="554" on="0"/>
        <pt x="134" y="620" on="0"/>
        <pt x="132" y="678" on="0"/>
        <pt x="132" y="708" on="1"/>
        <pt x="132" y="737" on="0"/>
        <pt x="114" y="747" on="0"/>
        <pt x="93" y="747" on="1"/>
        <pt x="68" y="747" on="0"/>
        <pt x="37" y="764" on="0"/>
        <pt x="37" y="781" on="1"/>
        <pt x="37" y="807" on="0"/>
        <pt x="62" y="821" on="0"/>
        <pt x="94" y="821" on="1"/>
        <pt x="127" y="821" on="0"/>
        <pt x="202" y="820" on="0"/>
        <pt x="273" y="820" on="0"/>
        <pt x="333" y="819" on="0"/>
        <pt x="352" y="819" on="1"/>
        <pt x="389" y="819" on="0"/>
        <pt x="436" y="820" on="0"/>
        <pt x="481" y="820" on="0"/>
        <pt x="535" y="821" on="0"/>
        <pt x="579" y="821" on="1"/>
        <pt x="593" y="821" on="0"/>
        <pt x="607" y="806" on="0"/>
        <pt x="607" y="785" on="1"/>
        <pt x="607" y="643" on="1"/>
        <pt x="607" y="616" on="0"/>
        <pt x="588" y="597" on="0"/>
        <pt x="566" y="597" on="1"/>
        <pt x="540" y="597" on="0"/>
        <pt x="519" y="623" on="0"/>
        <pt x="519" y="637" on="1"/>
        <pt x="519" y="709" on="1"/>
        <pt x="519" y="727" on="0"/>
        <pt x="499" y="737" on="0"/>
        <pt x="482" y="737" on="1"/>
        <pt x="230" y="737" on="1"/>
        <pt x="230" y="464" on="1"/>
        <pt x="244" y="463" on="0"/>
        <pt x="264" y="462" on="0"/>
        <pt x="283" y="461" on="0"/>
        <pt x="303" y="461" on="0"/>
        <pt x="318" y="461" on="1"/>
        <pt x="328" y="461" on="0"/>
        <pt x="354" y="462" on="0"/>
        <pt x="378" y="463" on="0"/>
        <pt x="397" y="464" on="0"/>
        <pt x="401" y="464" on="1"/>
        <pt x="407" y="464" on="0"/>
        <pt x="414" y="480" on="0"/>
        <pt x="417" y="503" on="0"/>
        <pt x="418" y="526" on="0"/>
        <pt x="418" y="533" on="1"/>
        <pt x="418" y="548" on="0"/>
        <pt x="439" y="570" on="0"/>
        <pt x="460" y="570" on="1"/>
        <pt x="477" y="570" on="0"/>
        <pt x="503" y="555" on="0"/>
        <pt x="503" y="531" on="1"/>
        <pt x="503" y="502" on="0"/>
        <pt x="501" y="449" on="0"/>
        <pt x="501" y="420" on="1"/>
        <pt x="501" y="391" on="0"/>
        <pt x="503" y="331" on="0"/>
        <pt x="503" y="308" on="1"/>
        <pt x="503" y="275" on="0"/>
        <pt x="461" y="275" on="1"/>
        <pt x="435" y="275" on="0"/>
        <pt x="420" y="297" on="0"/>
        <pt x="420" y="310" on="1"/>
        <pt x="420" y="318" on="0"/>
        <pt x="416" y="341" on="0"/>
        <pt x="405" y="363" on="0"/>
        <pt x="386" y="378" on="0"/>
        <pt x="372" y="378" on="1"/>
        <pt x="364" y="378" on="0"/>
        <pt x="338" y="379" on="0"/>
        <pt x="318" y="379" on="1"/>
        <pt x="304" y="379" on="0"/>
        <pt x="283" y="379" on="0"/>
        <pt x="265" y="378" on="0"/>
        <pt x="244" y="377" on="0"/>
        <pt x="230" y="377" on="1"/>
        <pt x="230" y="84" on="1"/>
        <pt x="508" y="84" on="1"/>
        <pt x="515" y="84" on="0"/>
        <pt x="530" y="86" on="0"/>
        <pt x="542" y="93" on="0"/>
        <pt x="550" y="108" on="0"/>
        <pt x="551" y="121" on="1"/>
        <pt x="552" y="136" on="0"/>
        <pt x="556" y="178" on="0"/>
        <pt x="560" y="222" on="0"/>
        <pt x="563" y="264" on="0"/>
        <pt x="564" y="281" on="1"/>
        <pt x="565" y="303" on="0"/>
        <pt x="595" y="318" on="0"/>
      </contour>
    </TTGlyph>
    <TTGlyph name="Ecircumflex" xMin="37" yMin="0" xMax="651" yMax="972">
      <contour>
        <pt x="484" y="830" on="1"/>
        <pt x="479" y="830" on="0"/>
        <pt x="453" y="837" on="0"/>
        <pt x="419" y="851" on="0"/>
        <pt x="381" y="869" on="0"/>
        <pt x="364" y="880" on="1"/>
        <pt x="347" y="869" on="0"/>
        <pt x="309" y="851" on="0"/>
        <pt x="276" y="837" on="0"/>
        <pt x="251" y="830" on="0"/>
        <pt x="245" y="830" on="1"/>
        <pt x="239" y="830" on="0"/>
        <pt x="232" y="839" on="0"/>
        <pt x="232" y="844" on="1"/>
        <pt x="232" y="864" on="0"/>
        <pt x="268" y="909" on="0"/>
        <pt x="314" y="947" on="0"/>
        <pt x="357" y="972" on="0"/>
        <pt x="364" y="972" on="1"/>
        <pt x="373" y="972" on="0"/>
        <pt x="416" y="946" on="0"/>
        <pt x="462" y="908" on="0"/>
        <pt x="497" y="867" on="0"/>
        <pt x="497" y="851" on="1"/>
        <pt x="497" y="844" on="0"/>
        <pt x="492" y="830" on="0"/>
      </contour>
      <contour>
        <pt x="613" y="318" on="1"/>
        <pt x="627" y="318" on="0"/>
        <pt x="651" y="302" on="0"/>
        <pt x="651" y="285" on="1"/>
        <pt x="651" y="276" on="0"/>
        <pt x="649" y="218" on="0"/>
        <pt x="644" y="143" on="0"/>
        <pt x="638" y="63" on="0"/>
        <pt x="635" y="33" on="1"/>
        <pt x="633" y="12" on="0"/>
        <pt x="618" y="0" on="0"/>
        <pt x="593" y="0" on="1"/>
        <pt x="532" y="0" on="0"/>
        <pt x="417" y="2" on="0"/>
        <pt x="356" y="2" on="1"/>
        <pt x="326" y="2" on="0"/>
        <pt x="256" y="1" on="0"/>
        <pt x="186" y="1" on="0"/>
        <pt x="116" y="0" on="0"/>
        <pt x="86" y="0" on="1"/>
        <pt x="60" y="0" on="0"/>
        <pt x="38" y="16" on="0"/>
        <pt x="38" y="33" on="1"/>
        <pt x="38" y="55" on="0"/>
        <pt x="68" y="72" on="0"/>
        <pt x="89" y="73" on="1"/>
        <pt x="118" y="75" on="0"/>
        <pt x="136" y="92" on="0"/>
        <pt x="136" y="109" on="1"/>
        <pt x="136" y="141" on="0"/>
        <pt x="136" y="187" on="0"/>
        <pt x="137" y="227" on="0"/>
        <pt x="137" y="266" on="0"/>
        <pt x="138" y="315" on="0"/>
        <pt x="138" y="379" on="0"/>
        <pt x="138" y="425" on="1"/>
        <pt x="138" y="476" on="0"/>
        <pt x="136" y="554" on="0"/>
        <pt x="134" y="620" on="0"/>
        <pt x="132" y="678" on="0"/>
        <pt x="132" y="708" on="1"/>
        <pt x="132" y="737" on="0"/>
        <pt x="114" y="747" on="0"/>
        <pt x="93" y="747" on="1"/>
        <pt x="68" y="747" on="0"/>
        <pt x="37" y="764" on="0"/>
        <pt x="37" y="781" on="1"/>
        <pt x="37" y="807" on="0"/>
        <pt x="62" y="821" on="0"/>
        <pt x="94" y="821" on="1"/>
        <pt x="127" y="821" on="0"/>
        <pt x="202" y="820" on="0"/>
        <pt x="273" y="820" on="0"/>
        <pt x="333" y="819" on="0"/>
        <pt x="352" y="819" on="1"/>
        <pt x="389" y="819" on="0"/>
        <pt x="436" y="820" on="0"/>
        <pt x="481" y="820" on="0"/>
        <pt x="535" y="821" on="0"/>
        <pt x="579" y="821" on="1"/>
        <pt x="593" y="821" on="0"/>
        <pt x="607" y="806" on="0"/>
        <pt x="607" y="785" on="1"/>
        <pt x="607" y="643" on="1"/>
        <pt x="607" y="616" on="0"/>
        <pt x="588" y="597" on="0"/>
        <pt x="566" y="597" on="1"/>
        <pt x="540" y="597" on="0"/>
        <pt x="519" y="623" on="0"/>
        <pt x="519" y="637" on="1"/>
        <pt x="519" y="709" on="1"/>
        <pt x="519" y="727" on="0"/>
        <pt x="499" y="737" on="0"/>
        <pt x="482" y="737" on="1"/>
        <pt x="230" y="737" on="1"/>
        <pt x="230" y="464" on="1"/>
        <pt x="244" y="463" on="0"/>
        <pt x="264" y="462" on="0"/>
        <pt x="283" y="461" on="0"/>
        <pt x="303" y="461" on="0"/>
        <pt x="318" y="461" on="1"/>
        <pt x="328" y="461" on="0"/>
        <pt x="354" y="462" on="0"/>
        <pt x="378" y="463" on="0"/>
        <pt x="397" y="464" on="0"/>
        <pt x="401" y="464" on="1"/>
        <pt x="407" y="464" on="0"/>
        <pt x="414" y="480" on="0"/>
        <pt x="417" y="503" on="0"/>
        <pt x="418" y="526" on="0"/>
        <pt x="418" y="533" on="1"/>
        <pt x="418" y="548" on="0"/>
        <pt x="439" y="570" on="0"/>
        <pt x="460" y="570" on="1"/>
        <pt x="477" y="570" on="0"/>
        <pt x="503" y="555" on="0"/>
        <pt x="503" y="531" on="1"/>
        <pt x="503" y="502" on="0"/>
        <pt x="501" y="449" on="0"/>
        <pt x="501" y="420" on="1"/>
        <pt x="501" y="391" on="0"/>
        <pt x="503" y="331" on="0"/>
        <pt x="503" y="308" on="1"/>
        <pt x="503" y="275" on="0"/>
        <pt x="461" y="275" on="1"/>
        <pt x="435" y="275" on="0"/>
        <pt x="420" y="297" on="0"/>
        <pt x="420" y="310" on="1"/>
        <pt x="420" y="318" on="0"/>
        <pt x="416" y="341" on="0"/>
        <pt x="405" y="363" on="0"/>
        <pt x="386" y="378" on="0"/>
        <pt x="372" y="378" on="1"/>
        <pt x="364" y="378" on="0"/>
        <pt x="338" y="379" on="0"/>
        <pt x="318" y="379" on="1"/>
        <pt x="304" y="379" on="0"/>
        <pt x="283" y="379" on="0"/>
        <pt x="265" y="378" on="0"/>
        <pt x="244" y="377" on="0"/>
        <pt x="230" y="377" on="1"/>
        <pt x="230" y="84" on="1"/>
        <pt x="508" y="84" on="1"/>
        <pt x="515" y="84" on="0"/>
        <pt x="530" y="86" on="0"/>
        <pt x="542" y="93" on="0"/>
        <pt x="550" y="108" on="0"/>
        <pt x="551" y="121" on="1"/>
        <pt x="552" y="136" on="0"/>
        <pt x="556" y="178" on="0"/>
        <pt x="560" y="222" on="0"/>
        <pt x="563" y="264" on="0"/>
        <pt x="564" y="281" on="1"/>
        <pt x="565" y="303" on="0"/>
        <pt x="595" y="318" on="0"/>
      </contour>
    </TTGlyph>
    <TTGlyph name="Edieresis" xMin="37" yMin="0" xMax="651" yMax="972">
      <contour>
        <pt x="189" y="907" on="1"/>
        <pt x="189" y="915" on="0"/>
        <pt x="196" y="938" on="0"/>
        <pt x="213" y="958" on="0"/>
        <pt x="238" y="972" on="0"/>
        <pt x="256" y="972" on="1"/>
        <pt x="280" y="972" on="0"/>
        <pt x="315" y="938" on="0"/>
        <pt x="315" y="911" on="1"/>
        <pt x="315" y="890" on="0"/>
        <pt x="303" y="863" on="0"/>
        <pt x="284" y="847" on="0"/>
        <pt x="260" y="841" on="0"/>
        <pt x="249" y="841" on="1"/>
        <pt x="224" y="841" on="0"/>
        <pt x="189" y="878" on="0"/>
      </contour>
      <contour>
        <pt x="396" y="896" on="1"/>
        <pt x="396" y="904" on="0"/>
        <pt x="403" y="927" on="0"/>
        <pt x="420" y="947" on="0"/>
        <pt x="445" y="961" on="0"/>
        <pt x="463" y="961" on="1"/>
        <pt x="487" y="961" on="0"/>
        <pt x="522" y="928" on="0"/>
        <pt x="522" y="900" on="1"/>
        <pt x="522" y="879" on="0"/>
        <pt x="510" y="852" on="0"/>
        <pt x="491" y="836" on="0"/>
        <pt x="467" y="830" on="0"/>
        <pt x="456" y="830" on="1"/>
        <pt x="431" y="830" on="0"/>
        <pt x="396" y="867" on="0"/>
      </contour>
      <contour>
        <pt x="613" y="318" on="1"/>
        <pt x="627" y="318" on="0"/>
        <pt x="651" y="302" on="0"/>
        <pt x="651" y="285" on="1"/>
        <pt x="651" y="276" on="0"/>
        <pt x="649" y="218" on="0"/>
        <pt x="644" y="143" on="0"/>
        <pt x="638" y="63" on="0"/>
        <pt x="635" y="33" on="1"/>
        <pt x="633" y="12" on="0"/>
        <pt x="618" y="0" on="0"/>
        <pt x="593" y="0" on="1"/>
        <pt x="532" y="0" on="0"/>
        <pt x="417" y="2" on="0"/>
        <pt x="356" y="2" on="1"/>
        <pt x="326" y="2" on="0"/>
        <pt x="256" y="1" on="0"/>
        <pt x="186" y="1" on="0"/>
        <pt x="116" y="0" on="0"/>
        <pt x="86" y="0" on="1"/>
        <pt x="60" y="0" on="0"/>
        <pt x="38" y="16" on="0"/>
        <pt x="38" y="33" on="1"/>
        <pt x="38" y="55" on="0"/>
        <pt x="68" y="72" on="0"/>
        <pt x="89" y="73" on="1"/>
        <pt x="118" y="75" on="0"/>
        <pt x="136" y="92" on="0"/>
        <pt x="136" y="109" on="1"/>
        <pt x="136" y="141" on="0"/>
        <pt x="136" y="187" on="0"/>
        <pt x="137" y="227" on="0"/>
        <pt x="137" y="266" on="0"/>
        <pt x="138" y="315" on="0"/>
        <pt x="138" y="379" on="0"/>
        <pt x="138" y="425" on="1"/>
        <pt x="138" y="476" on="0"/>
        <pt x="136" y="554" on="0"/>
        <pt x="134" y="620" on="0"/>
        <pt x="132" y="678" on="0"/>
        <pt x="132" y="708" on="1"/>
        <pt x="132" y="737" on="0"/>
        <pt x="114" y="747" on="0"/>
        <pt x="93" y="747" on="1"/>
        <pt x="68" y="747" on="0"/>
        <pt x="37" y="764" on="0"/>
        <pt x="37" y="781" on="1"/>
        <pt x="37" y="807" on="0"/>
        <pt x="62" y="821" on="0"/>
        <pt x="94" y="821" on="1"/>
        <pt x="127" y="821" on="0"/>
        <pt x="202" y="820" on="0"/>
        <pt x="273" y="820" on="0"/>
        <pt x="333" y="819" on="0"/>
        <pt x="352" y="819" on="1"/>
        <pt x="389" y="819" on="0"/>
        <pt x="436" y="820" on="0"/>
        <pt x="481" y="820" on="0"/>
        <pt x="535" y="821" on="0"/>
        <pt x="579" y="821" on="1"/>
        <pt x="593" y="821" on="0"/>
        <pt x="607" y="806" on="0"/>
        <pt x="607" y="785" on="1"/>
        <pt x="607" y="643" on="1"/>
        <pt x="607" y="616" on="0"/>
        <pt x="588" y="597" on="0"/>
        <pt x="566" y="597" on="1"/>
        <pt x="540" y="597" on="0"/>
        <pt x="519" y="623" on="0"/>
        <pt x="519" y="637" on="1"/>
        <pt x="519" y="709" on="1"/>
        <pt x="519" y="727" on="0"/>
        <pt x="499" y="737" on="0"/>
        <pt x="482" y="737" on="1"/>
        <pt x="230" y="737" on="1"/>
        <pt x="230" y="464" on="1"/>
        <pt x="244" y="463" on="0"/>
        <pt x="264" y="462" on="0"/>
        <pt x="283" y="461" on="0"/>
        <pt x="303" y="461" on="0"/>
        <pt x="318" y="461" on="1"/>
        <pt x="328" y="461" on="0"/>
        <pt x="354" y="462" on="0"/>
        <pt x="378" y="463" on="0"/>
        <pt x="397" y="464" on="0"/>
        <pt x="401" y="464" on="1"/>
        <pt x="407" y="464" on="0"/>
        <pt x="414" y="480" on="0"/>
        <pt x="417" y="503" on="0"/>
        <pt x="418" y="526" on="0"/>
        <pt x="418" y="533" on="1"/>
        <pt x="418" y="548" on="0"/>
        <pt x="439" y="570" on="0"/>
        <pt x="460" y="570" on="1"/>
        <pt x="477" y="570" on="0"/>
        <pt x="503" y="555" on="0"/>
        <pt x="503" y="531" on="1"/>
        <pt x="503" y="502" on="0"/>
        <pt x="501" y="449" on="0"/>
        <pt x="501" y="420" on="1"/>
        <pt x="501" y="391" on="0"/>
        <pt x="503" y="331" on="0"/>
        <pt x="503" y="308" on="1"/>
        <pt x="503" y="275" on="0"/>
        <pt x="461" y="275" on="1"/>
        <pt x="435" y="275" on="0"/>
        <pt x="420" y="297" on="0"/>
        <pt x="420" y="310" on="1"/>
        <pt x="420" y="318" on="0"/>
        <pt x="416" y="341" on="0"/>
        <pt x="405" y="363" on="0"/>
        <pt x="386" y="378" on="0"/>
        <pt x="372" y="378" on="1"/>
        <pt x="364" y="378" on="0"/>
        <pt x="338" y="379" on="0"/>
        <pt x="318" y="379" on="1"/>
        <pt x="304" y="379" on="0"/>
        <pt x="283" y="379" on="0"/>
        <pt x="265" y="378" on="0"/>
        <pt x="244" y="377" on="0"/>
        <pt x="230" y="377" on="1"/>
        <pt x="230" y="84" on="1"/>
        <pt x="508" y="84" on="1"/>
        <pt x="515" y="84" on="0"/>
        <pt x="530" y="86" on="0"/>
        <pt x="542" y="93" on="0"/>
        <pt x="550" y="108" on="0"/>
        <pt x="551" y="121" on="1"/>
        <pt x="552" y="136" on="0"/>
        <pt x="556" y="178" on="0"/>
        <pt x="560" y="222" on="0"/>
        <pt x="563" y="264" on="0"/>
        <pt x="564" y="281" on="1"/>
        <pt x="565" y="303" on="0"/>
        <pt x="595" y="318" on="0"/>
      </contour>
    </TTGlyph>
    <TTGlyph name="Edotaccent" xMin="37" yMin="0" xMax="651" yMax="971">
      <contour>
        <pt x="613" y="318" on="1"/>
        <pt x="627" y="318" on="0"/>
        <pt x="651" y="302" on="0"/>
        <pt x="651" y="285" on="1"/>
        <pt x="651" y="276" on="0"/>
        <pt x="649" y="218" on="0"/>
        <pt x="644" y="143" on="0"/>
        <pt x="638" y="63" on="0"/>
        <pt x="635" y="33" on="1"/>
        <pt x="633" y="12" on="0"/>
        <pt x="618" y="0" on="0"/>
        <pt x="593" y="0" on="1"/>
        <pt x="532" y="0" on="0"/>
        <pt x="417" y="2" on="0"/>
        <pt x="356" y="2" on="1"/>
        <pt x="326" y="2" on="0"/>
        <pt x="256" y="1" on="0"/>
        <pt x="186" y="1" on="0"/>
        <pt x="116" y="0" on="0"/>
        <pt x="86" y="0" on="1"/>
        <pt x="60" y="0" on="0"/>
        <pt x="38" y="16" on="0"/>
        <pt x="38" y="33" on="1"/>
        <pt x="38" y="55" on="0"/>
        <pt x="68" y="72" on="0"/>
        <pt x="89" y="73" on="1"/>
        <pt x="118" y="75" on="0"/>
        <pt x="136" y="92" on="0"/>
        <pt x="136" y="109" on="1"/>
        <pt x="136" y="141" on="0"/>
        <pt x="136" y="187" on="0"/>
        <pt x="137" y="227" on="0"/>
        <pt x="137" y="266" on="0"/>
        <pt x="138" y="315" on="0"/>
        <pt x="138" y="379" on="0"/>
        <pt x="138" y="425" on="1"/>
        <pt x="138" y="476" on="0"/>
        <pt x="136" y="554" on="0"/>
        <pt x="134" y="620" on="0"/>
        <pt x="132" y="678" on="0"/>
        <pt x="132" y="708" on="1"/>
        <pt x="132" y="737" on="0"/>
        <pt x="114" y="747" on="0"/>
        <pt x="93" y="747" on="1"/>
        <pt x="68" y="747" on="0"/>
        <pt x="37" y="764" on="0"/>
        <pt x="37" y="781" on="1"/>
        <pt x="37" y="807" on="0"/>
        <pt x="62" y="821" on="0"/>
        <pt x="94" y="821" on="1"/>
        <pt x="127" y="821" on="0"/>
        <pt x="202" y="820" on="0"/>
        <pt x="273" y="820" on="0"/>
        <pt x="333" y="819" on="0"/>
        <pt x="352" y="819" on="1"/>
        <pt x="389" y="819" on="0"/>
        <pt x="436" y="820" on="0"/>
        <pt x="481" y="820" on="0"/>
        <pt x="535" y="821" on="0"/>
        <pt x="579" y="821" on="1"/>
        <pt x="593" y="821" on="0"/>
        <pt x="607" y="806" on="0"/>
        <pt x="607" y="785" on="1"/>
        <pt x="607" y="643" on="1"/>
        <pt x="607" y="616" on="0"/>
        <pt x="588" y="597" on="0"/>
        <pt x="566" y="597" on="1"/>
        <pt x="540" y="597" on="0"/>
        <pt x="519" y="623" on="0"/>
        <pt x="519" y="637" on="1"/>
        <pt x="519" y="709" on="1"/>
        <pt x="519" y="727" on="0"/>
        <pt x="499" y="737" on="0"/>
        <pt x="482" y="737" on="1"/>
        <pt x="230" y="737" on="1"/>
        <pt x="230" y="464" on="1"/>
        <pt x="244" y="463" on="0"/>
        <pt x="264" y="462" on="0"/>
        <pt x="283" y="461" on="0"/>
        <pt x="303" y="461" on="0"/>
        <pt x="318" y="461" on="1"/>
        <pt x="328" y="461" on="0"/>
        <pt x="354" y="462" on="0"/>
        <pt x="378" y="463" on="0"/>
        <pt x="397" y="464" on="0"/>
        <pt x="401" y="464" on="1"/>
        <pt x="407" y="464" on="0"/>
        <pt x="414" y="480" on="0"/>
        <pt x="417" y="503" on="0"/>
        <pt x="418" y="526" on="0"/>
        <pt x="418" y="533" on="1"/>
        <pt x="418" y="548" on="0"/>
        <pt x="439" y="570" on="0"/>
        <pt x="460" y="570" on="1"/>
        <pt x="477" y="570" on="0"/>
        <pt x="503" y="555" on="0"/>
        <pt x="503" y="531" on="1"/>
        <pt x="503" y="502" on="0"/>
        <pt x="501" y="449" on="0"/>
        <pt x="501" y="420" on="1"/>
        <pt x="501" y="391" on="0"/>
        <pt x="503" y="331" on="0"/>
        <pt x="503" y="308" on="1"/>
        <pt x="503" y="275" on="0"/>
        <pt x="461" y="275" on="1"/>
        <pt x="435" y="275" on="0"/>
        <pt x="420" y="297" on="0"/>
        <pt x="420" y="310" on="1"/>
        <pt x="420" y="318" on="0"/>
        <pt x="416" y="341" on="0"/>
        <pt x="405" y="363" on="0"/>
        <pt x="386" y="378" on="0"/>
        <pt x="372" y="378" on="1"/>
        <pt x="364" y="378" on="0"/>
        <pt x="338" y="379" on="0"/>
        <pt x="318" y="379" on="1"/>
        <pt x="304" y="379" on="0"/>
        <pt x="283" y="379" on="0"/>
        <pt x="265" y="378" on="0"/>
        <pt x="244" y="377" on="0"/>
        <pt x="230" y="377" on="1"/>
        <pt x="230" y="84" on="1"/>
        <pt x="508" y="84" on="1"/>
        <pt x="515" y="84" on="0"/>
        <pt x="530" y="86" on="0"/>
        <pt x="542" y="93" on="0"/>
        <pt x="550" y="108" on="0"/>
        <pt x="551" y="121" on="1"/>
        <pt x="552" y="136" on="0"/>
        <pt x="556" y="178" on="0"/>
        <pt x="560" y="222" on="0"/>
        <pt x="563" y="264" on="0"/>
        <pt x="564" y="281" on="1"/>
        <pt x="565" y="303" on="0"/>
        <pt x="595" y="318" on="0"/>
      </contour>
      <contour>
        <pt x="288" y="906" on="1"/>
        <pt x="288" y="916" on="0"/>
        <pt x="295" y="939" on="0"/>
        <pt x="311" y="958" on="0"/>
        <pt x="336" y="971" on="0"/>
        <pt x="354" y="971" on="1"/>
        <pt x="378" y="971" on="0"/>
        <pt x="414" y="937" on="0"/>
        <pt x="414" y="910" on="1"/>
        <pt x="414" y="889" on="0"/>
        <pt x="401" y="862" on="0"/>
        <pt x="382" y="846" on="0"/>
        <pt x="358" y="840" on="0"/>
        <pt x="347" y="840" on="1"/>
        <pt x="322" y="840" on="0"/>
        <pt x="288" y="874" on="0"/>
      </contour>
    </TTGlyph>
    <TTGlyph name="Egrave" xMin="37" yMin="0" xMax="651" yMax="972">
      <contour>
        <pt x="279" y="936" on="1"/>
        <pt x="279" y="949" on="0"/>
        <pt x="300" y="972" on="0"/>
        <pt x="320" y="972" on="1"/>
        <pt x="334" y="972" on="0"/>
        <pt x="373" y="949" on="0"/>
        <pt x="409" y="916" on="0"/>
        <pt x="434" y="882" on="0"/>
        <pt x="434" y="872" on="1"/>
        <pt x="434" y="860" on="0"/>
        <pt x="414" y="841" on="0"/>
        <pt x="399" y="841" on="1"/>
        <pt x="386" y="841" on="0"/>
        <pt x="346" y="860" on="0"/>
        <pt x="307" y="888" on="0"/>
        <pt x="279" y="921" on="0"/>
      </contour>
      <contour>
        <pt x="613" y="318" on="1"/>
        <pt x="627" y="318" on="0"/>
        <pt x="651" y="302" on="0"/>
        <pt x="651" y="285" on="1"/>
        <pt x="651" y="276" on="0"/>
        <pt x="649" y="218" on="0"/>
        <pt x="644" y="143" on="0"/>
        <pt x="638" y="63" on="0"/>
        <pt x="635" y="33" on="1"/>
        <pt x="633" y="12" on="0"/>
        <pt x="618" y="0" on="0"/>
        <pt x="593" y="0" on="1"/>
        <pt x="532" y="0" on="0"/>
        <pt x="417" y="2" on="0"/>
        <pt x="356" y="2" on="1"/>
        <pt x="326" y="2" on="0"/>
        <pt x="256" y="1" on="0"/>
        <pt x="186" y="1" on="0"/>
        <pt x="116" y="0" on="0"/>
        <pt x="86" y="0" on="1"/>
        <pt x="60" y="0" on="0"/>
        <pt x="38" y="16" on="0"/>
        <pt x="38" y="33" on="1"/>
        <pt x="38" y="55" on="0"/>
        <pt x="68" y="72" on="0"/>
        <pt x="89" y="73" on="1"/>
        <pt x="118" y="75" on="0"/>
        <pt x="136" y="92" on="0"/>
        <pt x="136" y="109" on="1"/>
        <pt x="136" y="141" on="0"/>
        <pt x="136" y="187" on="0"/>
        <pt x="137" y="227" on="0"/>
        <pt x="137" y="266" on="0"/>
        <pt x="138" y="315" on="0"/>
        <pt x="138" y="379" on="0"/>
        <pt x="138" y="425" on="1"/>
        <pt x="138" y="476" on="0"/>
        <pt x="136" y="554" on="0"/>
        <pt x="134" y="620" on="0"/>
        <pt x="132" y="678" on="0"/>
        <pt x="132" y="708" on="1"/>
        <pt x="132" y="737" on="0"/>
        <pt x="114" y="747" on="0"/>
        <pt x="93" y="747" on="1"/>
        <pt x="68" y="747" on="0"/>
        <pt x="37" y="764" on="0"/>
        <pt x="37" y="781" on="1"/>
        <pt x="37" y="807" on="0"/>
        <pt x="62" y="821" on="0"/>
        <pt x="94" y="821" on="1"/>
        <pt x="127" y="821" on="0"/>
        <pt x="202" y="820" on="0"/>
        <pt x="273" y="820" on="0"/>
        <pt x="333" y="819" on="0"/>
        <pt x="352" y="819" on="1"/>
        <pt x="389" y="819" on="0"/>
        <pt x="436" y="820" on="0"/>
        <pt x="481" y="820" on="0"/>
        <pt x="535" y="821" on="0"/>
        <pt x="579" y="821" on="1"/>
        <pt x="593" y="821" on="0"/>
        <pt x="607" y="806" on="0"/>
        <pt x="607" y="785" on="1"/>
        <pt x="607" y="643" on="1"/>
        <pt x="607" y="616" on="0"/>
        <pt x="588" y="597" on="0"/>
        <pt x="566" y="597" on="1"/>
        <pt x="540" y="597" on="0"/>
        <pt x="519" y="623" on="0"/>
        <pt x="519" y="637" on="1"/>
        <pt x="519" y="709" on="1"/>
        <pt x="519" y="727" on="0"/>
        <pt x="499" y="737" on="0"/>
        <pt x="482" y="737" on="1"/>
        <pt x="230" y="737" on="1"/>
        <pt x="230" y="464" on="1"/>
        <pt x="244" y="463" on="0"/>
        <pt x="264" y="462" on="0"/>
        <pt x="283" y="461" on="0"/>
        <pt x="303" y="461" on="0"/>
        <pt x="318" y="461" on="1"/>
        <pt x="328" y="461" on="0"/>
        <pt x="354" y="462" on="0"/>
        <pt x="378" y="463" on="0"/>
        <pt x="397" y="464" on="0"/>
        <pt x="401" y="464" on="1"/>
        <pt x="407" y="464" on="0"/>
        <pt x="414" y="480" on="0"/>
        <pt x="417" y="503" on="0"/>
        <pt x="418" y="526" on="0"/>
        <pt x="418" y="533" on="1"/>
        <pt x="418" y="548" on="0"/>
        <pt x="439" y="570" on="0"/>
        <pt x="460" y="570" on="1"/>
        <pt x="477" y="570" on="0"/>
        <pt x="503" y="555" on="0"/>
        <pt x="503" y="531" on="1"/>
        <pt x="503" y="502" on="0"/>
        <pt x="501" y="449" on="0"/>
        <pt x="501" y="420" on="1"/>
        <pt x="501" y="391" on="0"/>
        <pt x="503" y="331" on="0"/>
        <pt x="503" y="308" on="1"/>
        <pt x="503" y="275" on="0"/>
        <pt x="461" y="275" on="1"/>
        <pt x="435" y="275" on="0"/>
        <pt x="420" y="297" on="0"/>
        <pt x="420" y="310" on="1"/>
        <pt x="420" y="318" on="0"/>
        <pt x="416" y="341" on="0"/>
        <pt x="405" y="363" on="0"/>
        <pt x="386" y="378" on="0"/>
        <pt x="372" y="378" on="1"/>
        <pt x="364" y="378" on="0"/>
        <pt x="338" y="379" on="0"/>
        <pt x="318" y="379" on="1"/>
        <pt x="304" y="379" on="0"/>
        <pt x="283" y="379" on="0"/>
        <pt x="265" y="378" on="0"/>
        <pt x="244" y="377" on="0"/>
        <pt x="230" y="377" on="1"/>
        <pt x="230" y="84" on="1"/>
        <pt x="508" y="84" on="1"/>
        <pt x="515" y="84" on="0"/>
        <pt x="530" y="86" on="0"/>
        <pt x="542" y="93" on="0"/>
        <pt x="550" y="108" on="0"/>
        <pt x="551" y="121" on="1"/>
        <pt x="552" y="136" on="0"/>
        <pt x="556" y="178" on="0"/>
        <pt x="560" y="222" on="0"/>
        <pt x="563" y="264" on="0"/>
        <pt x="564" y="281" on="1"/>
        <pt x="565" y="303" on="0"/>
        <pt x="595" y="318" on="0"/>
      </contour>
    </TTGlyph>
    <TTGlyph name="Emacron" xMin="37" yMin="0" xMax="651" yMax="965">
      <contour>
        <pt x="613" y="318" on="1"/>
        <pt x="627" y="318" on="0"/>
        <pt x="651" y="302" on="0"/>
        <pt x="651" y="285" on="1"/>
        <pt x="651" y="276" on="0"/>
        <pt x="649" y="218" on="0"/>
        <pt x="644" y="143" on="0"/>
        <pt x="638" y="63" on="0"/>
        <pt x="635" y="33" on="1"/>
        <pt x="633" y="12" on="0"/>
        <pt x="618" y="0" on="0"/>
        <pt x="593" y="0" on="1"/>
        <pt x="532" y="0" on="0"/>
        <pt x="417" y="2" on="0"/>
        <pt x="356" y="2" on="1"/>
        <pt x="326" y="2" on="0"/>
        <pt x="256" y="1" on="0"/>
        <pt x="186" y="1" on="0"/>
        <pt x="116" y="0" on="0"/>
        <pt x="86" y="0" on="1"/>
        <pt x="60" y="0" on="0"/>
        <pt x="38" y="16" on="0"/>
        <pt x="38" y="33" on="1"/>
        <pt x="38" y="55" on="0"/>
        <pt x="68" y="72" on="0"/>
        <pt x="89" y="73" on="1"/>
        <pt x="118" y="75" on="0"/>
        <pt x="136" y="92" on="0"/>
        <pt x="136" y="109" on="1"/>
        <pt x="136" y="141" on="0"/>
        <pt x="136" y="187" on="0"/>
        <pt x="137" y="227" on="0"/>
        <pt x="137" y="266" on="0"/>
        <pt x="138" y="315" on="0"/>
        <pt x="138" y="379" on="0"/>
        <pt x="138" y="425" on="1"/>
        <pt x="138" y="476" on="0"/>
        <pt x="136" y="554" on="0"/>
        <pt x="134" y="620" on="0"/>
        <pt x="132" y="678" on="0"/>
        <pt x="132" y="708" on="1"/>
        <pt x="132" y="737" on="0"/>
        <pt x="114" y="747" on="0"/>
        <pt x="93" y="747" on="1"/>
        <pt x="68" y="747" on="0"/>
        <pt x="37" y="764" on="0"/>
        <pt x="37" y="781" on="1"/>
        <pt x="37" y="807" on="0"/>
        <pt x="62" y="821" on="0"/>
        <pt x="94" y="821" on="1"/>
        <pt x="127" y="821" on="0"/>
        <pt x="202" y="820" on="0"/>
        <pt x="273" y="820" on="0"/>
        <pt x="333" y="819" on="0"/>
        <pt x="352" y="819" on="1"/>
        <pt x="389" y="819" on="0"/>
        <pt x="436" y="820" on="0"/>
        <pt x="481" y="820" on="0"/>
        <pt x="535" y="821" on="0"/>
        <pt x="579" y="821" on="1"/>
        <pt x="593" y="821" on="0"/>
        <pt x="607" y="806" on="0"/>
        <pt x="607" y="785" on="1"/>
        <pt x="607" y="643" on="1"/>
        <pt x="607" y="616" on="0"/>
        <pt x="588" y="597" on="0"/>
        <pt x="566" y="597" on="1"/>
        <pt x="540" y="597" on="0"/>
        <pt x="519" y="623" on="0"/>
        <pt x="519" y="637" on="1"/>
        <pt x="519" y="709" on="1"/>
        <pt x="519" y="727" on="0"/>
        <pt x="499" y="737" on="0"/>
        <pt x="482" y="737" on="1"/>
        <pt x="230" y="737" on="1"/>
        <pt x="230" y="464" on="1"/>
        <pt x="244" y="463" on="0"/>
        <pt x="264" y="462" on="0"/>
        <pt x="283" y="461" on="0"/>
        <pt x="303" y="461" on="0"/>
        <pt x="318" y="461" on="1"/>
        <pt x="328" y="461" on="0"/>
        <pt x="354" y="462" on="0"/>
        <pt x="378" y="463" on="0"/>
        <pt x="397" y="464" on="0"/>
        <pt x="401" y="464" on="1"/>
        <pt x="407" y="464" on="0"/>
        <pt x="414" y="480" on="0"/>
        <pt x="417" y="503" on="0"/>
        <pt x="418" y="526" on="0"/>
        <pt x="418" y="533" on="1"/>
        <pt x="418" y="548" on="0"/>
        <pt x="439" y="570" on="0"/>
        <pt x="460" y="570" on="1"/>
        <pt x="477" y="570" on="0"/>
        <pt x="503" y="555" on="0"/>
        <pt x="503" y="531" on="1"/>
        <pt x="503" y="502" on="0"/>
        <pt x="501" y="449" on="0"/>
        <pt x="501" y="420" on="1"/>
        <pt x="501" y="391" on="0"/>
        <pt x="503" y="331" on="0"/>
        <pt x="503" y="308" on="1"/>
        <pt x="503" y="275" on="0"/>
        <pt x="461" y="275" on="1"/>
        <pt x="435" y="275" on="0"/>
        <pt x="420" y="297" on="0"/>
        <pt x="420" y="310" on="1"/>
        <pt x="420" y="318" on="0"/>
        <pt x="416" y="341" on="0"/>
        <pt x="405" y="363" on="0"/>
        <pt x="386" y="378" on="0"/>
        <pt x="372" y="378" on="1"/>
        <pt x="364" y="378" on="0"/>
        <pt x="338" y="379" on="0"/>
        <pt x="318" y="379" on="1"/>
        <pt x="304" y="379" on="0"/>
        <pt x="283" y="379" on="0"/>
        <pt x="265" y="378" on="0"/>
        <pt x="244" y="377" on="0"/>
        <pt x="230" y="377" on="1"/>
        <pt x="230" y="84" on="1"/>
        <pt x="508" y="84" on="1"/>
        <pt x="515" y="84" on="0"/>
        <pt x="530" y="86" on="0"/>
        <pt x="542" y="93" on="0"/>
        <pt x="550" y="108" on="0"/>
        <pt x="551" y="121" on="1"/>
        <pt x="552" y="136" on="0"/>
        <pt x="556" y="178" on="0"/>
        <pt x="560" y="222" on="0"/>
        <pt x="563" y="264" on="0"/>
        <pt x="564" y="281" on="1"/>
        <pt x="565" y="303" on="0"/>
        <pt x="595" y="318" on="0"/>
      </contour>
      <contour>
        <pt x="509" y="965" on="1"/>
        <pt x="520" y="965" on="0"/>
        <pt x="537" y="943" on="0"/>
        <pt x="537" y="928" on="1"/>
        <pt x="537" y="923" on="0"/>
        <pt x="534" y="908" on="0"/>
        <pt x="526" y="895" on="0"/>
        <pt x="512" y="886" on="0"/>
        <pt x="501" y="886" on="1"/>
        <pt x="481" y="886" on="0"/>
        <pt x="414" y="886" on="0"/>
        <pt x="342" y="885" on="0"/>
        <pt x="278" y="885" on="0"/>
        <pt x="260" y="885" on="1"/>
        <pt x="246" y="885" on="0"/>
        <pt x="227" y="911" on="0"/>
        <pt x="227" y="925" on="1"/>
        <pt x="227" y="939" on="0"/>
        <pt x="243" y="964" on="0"/>
        <pt x="260" y="964" on="1"/>
        <pt x="267" y="964" on="0"/>
        <pt x="297" y="963" on="0"/>
        <pt x="333" y="963" on="0"/>
        <pt x="368" y="962" on="0"/>
        <pt x="381" y="962" on="1"/>
        <pt x="423" y="962" on="0"/>
        <pt x="485" y="965" on="0"/>
      </contour>
    </TTGlyph>
    <TTGlyph name="Eng" xMin="46" yMin="-250" xMax="840" yMax="821">
      <contour>
        <pt x="537" y="-250" on="1"/>
        <pt x="505" y="-250" on="0"/>
        <pt x="448" y="-232" on="0"/>
        <pt x="405" y="-197" on="0"/>
        <pt x="380" y="-148" on="0"/>
        <pt x="380" y="-116" on="1"/>
        <pt x="380" y="-95" on="0"/>
        <pt x="393" y="-56" on="0"/>
        <pt x="421" y="-26" on="0"/>
        <pt x="466" y="-8" on="0"/>
        <pt x="498" y="-8" on="1"/>
        <pt x="507" y="-8" on="0"/>
        <pt x="527" y="-13" on="0"/>
        <pt x="545" y="-24" on="0"/>
        <pt x="556" y="-42" on="0"/>
        <pt x="556" y="-56" on="1"/>
        <pt x="556" y="-80" on="0"/>
        <pt x="533" y="-105" on="0"/>
        <pt x="514" y="-105" on="1"/>
        <pt x="499" y="-105" on="0"/>
        <pt x="477" y="-91" on="0"/>
        <pt x="472" y="-85" on="1"/>
        <pt x="461" y="-90" on="0"/>
        <pt x="457" y="-108" on="0"/>
        <pt x="457" y="-115" on="1"/>
        <pt x="457" y="-139" on="0"/>
        <pt x="496" y="-167" on="0"/>
        <pt x="522" y="-167" on="1"/>
        <pt x="564" y="-167" on="0"/>
        <pt x="612" y="-87" on="0"/>
        <pt x="612" y="-4" on="1"/>
        <pt x="590" y="34" on="0"/>
        <pt x="551" y="98" on="0"/>
        <pt x="507" y="170" on="0"/>
        <pt x="454" y="261" on="0"/>
        <pt x="384" y="390" on="0"/>
        <pt x="293" y="567" on="0"/>
        <pt x="233" y="690" on="1"/>
        <pt x="233" y="63" on="1"/>
        <pt x="339" y="63" on="1"/>
        <pt x="356" y="63" on="0"/>
        <pt x="379" y="52" on="0"/>
        <pt x="379" y="32" on="1"/>
        <pt x="379" y="14" on="0"/>
        <pt x="359" y="0" on="0"/>
        <pt x="349" y="0" on="1"/>
        <pt x="110" y="0" on="1"/>
        <pt x="97" y="0" on="0"/>
        <pt x="69" y="12" on="0"/>
        <pt x="69" y="32" on="1"/>
        <pt x="69" y="46" on="0"/>
        <pt x="86" y="60" on="0"/>
        <pt x="96" y="60" on="1"/>
        <pt x="99" y="60" on="0"/>
        <pt x="109" y="63" on="0"/>
        <pt x="118" y="72" on="0"/>
        <pt x="125" y="91" on="0"/>
        <pt x="126" y="106" on="1"/>
        <pt x="128" y="139" on="0"/>
        <pt x="133" y="222" on="0"/>
        <pt x="138" y="306" on="0"/>
        <pt x="141" y="383" on="0"/>
        <pt x="141" y="410" on="1"/>
        <pt x="141" y="453" on="0"/>
        <pt x="140" y="524" on="0"/>
        <pt x="139" y="599" on="0"/>
        <pt x="138" y="688" on="0"/>
        <pt x="138" y="748" on="1"/>
        <pt x="138" y="750" on="0"/>
        <pt x="120" y="754" on="0"/>
        <pt x="85" y="754" on="1"/>
        <pt x="74" y="754" on="0"/>
        <pt x="46" y="772" on="0"/>
        <pt x="46" y="792" on="1"/>
        <pt x="46" y="806" on="0"/>
        <pt x="70" y="821" on="0"/>
        <pt x="111" y="821" on="1"/>
        <pt x="270" y="821" on="1"/>
        <pt x="279" y="821" on="0"/>
        <pt x="298" y="808" on="0"/>
        <pt x="308" y="780" on="1"/>
        <pt x="310" y="774" on="0"/>
        <pt x="337" y="720" on="0"/>
        <pt x="377" y="640" on="0"/>
        <pt x="428" y="540" on="0"/>
        <pt x="481" y="434" on="0"/>
        <pt x="533" y="330" on="0"/>
        <pt x="576" y="242" on="0"/>
        <pt x="605" y="177" on="0"/>
        <pt x="610" y="163" on="1"/>
        <pt x="610" y="709" on="1"/>
        <pt x="610" y="728" on="0"/>
        <pt x="595" y="742" on="0"/>
        <pt x="572" y="742" on="1"/>
        <pt x="558" y="742" on="0"/>
        <pt x="535" y="756" on="0"/>
        <pt x="535" y="776" on="1"/>
        <pt x="535" y="804" on="0"/>
        <pt x="572" y="804" on="1"/>
        <pt x="789" y="804" on="1"/>
        <pt x="821" y="804" on="0"/>
        <pt x="840" y="792" on="0"/>
        <pt x="840" y="776" on="1"/>
        <pt x="840" y="756" on="0"/>
        <pt x="815" y="742" on="0"/>
        <pt x="803" y="742" on="1"/>
        <pt x="784" y="742" on="0"/>
        <pt x="749" y="740" on="0"/>
        <pt x="722" y="734" on="0"/>
        <pt x="706" y="723" on="0"/>
        <pt x="706" y="714" on="1"/>
        <pt x="706" y="676" on="0"/>
        <pt x="705" y="585" on="0"/>
        <pt x="704" y="489" on="0"/>
        <pt x="703" y="394" on="0"/>
        <pt x="702" y="312" on="0"/>
        <pt x="701" y="248" on="0"/>
        <pt x="701" y="232" on="1"/>
        <pt x="701" y="206" on="0"/>
        <pt x="702" y="153" on="0"/>
        <pt x="702" y="93" on="0"/>
        <pt x="703" y="23" on="0"/>
        <pt x="703" y="-20" on="1"/>
        <pt x="703" y="-133" on="0"/>
        <pt x="618" y="-250" on="0"/>
      </contour>
    </TTGlyph>
    <TTGlyph name="Eogonek" xMin="37" yMin="-155" xMax="651" yMax="821">
      <contour>
        <pt x="613" y="318" on="1"/>
        <pt x="627" y="318" on="0"/>
        <pt x="651" y="302" on="0"/>
        <pt x="651" y="285" on="1"/>
        <pt x="651" y="276" on="0"/>
        <pt x="649" y="218" on="0"/>
        <pt x="644" y="143" on="0"/>
        <pt x="638" y="63" on="0"/>
        <pt x="635" y="33" on="1"/>
        <pt x="633" y="12" on="0"/>
        <pt x="618" y="0" on="0"/>
        <pt x="593" y="0" on="1"/>
        <pt x="555" y="0" on="1"/>
        <pt x="535" y="-13" on="0"/>
        <pt x="514" y="-61" on="0"/>
        <pt x="514" y="-81" on="1"/>
        <pt x="514" y="-92" on="0"/>
        <pt x="532" y="-102" on="0"/>
        <pt x="543" y="-102" on="1"/>
        <pt x="558" y="-102" on="0"/>
        <pt x="575" y="-95" on="0"/>
        <pt x="586" y="-86" on="0"/>
        <pt x="595" y="-78" on="0"/>
        <pt x="603" y="-78" on="1"/>
        <pt x="613" y="-78" on="0"/>
        <pt x="628" y="-93" on="0"/>
        <pt x="628" y="-102" on="1"/>
        <pt x="628" y="-110" on="0"/>
        <pt x="618" y="-128" on="0"/>
        <pt x="598" y="-144" on="0"/>
        <pt x="566" y="-155" on="0"/>
        <pt x="545" y="-155" on="1"/>
        <pt x="525" y="-155" on="0"/>
        <pt x="486" y="-146" on="0"/>
        <pt x="455" y="-127" on="0"/>
        <pt x="435" y="-99" on="0"/>
        <pt x="435" y="-80" on="1"/>
        <pt x="435" y="-65" on="0"/>
        <pt x="448" y="-39" on="0"/>
        <pt x="467" y="-19" on="0"/>
        <pt x="490" y="-5" on="0"/>
        <pt x="499" y="0" on="1"/>
        <pt x="464" y="1" on="0"/>
        <pt x="393" y="2" on="0"/>
        <pt x="356" y="2" on="1"/>
        <pt x="326" y="2" on="0"/>
        <pt x="256" y="1" on="0"/>
        <pt x="186" y="1" on="0"/>
        <pt x="116" y="0" on="0"/>
        <pt x="86" y="0" on="1"/>
        <pt x="60" y="0" on="0"/>
        <pt x="38" y="16" on="0"/>
        <pt x="38" y="33" on="1"/>
        <pt x="38" y="55" on="0"/>
        <pt x="68" y="72" on="0"/>
        <pt x="89" y="73" on="1"/>
        <pt x="118" y="75" on="0"/>
        <pt x="136" y="92" on="0"/>
        <pt x="136" y="109" on="1"/>
        <pt x="136" y="141" on="0"/>
        <pt x="136" y="187" on="0"/>
        <pt x="137" y="227" on="0"/>
        <pt x="137" y="266" on="0"/>
        <pt x="138" y="315" on="0"/>
        <pt x="138" y="379" on="0"/>
        <pt x="138" y="425" on="1"/>
        <pt x="138" y="476" on="0"/>
        <pt x="136" y="554" on="0"/>
        <pt x="134" y="620" on="0"/>
        <pt x="132" y="678" on="0"/>
        <pt x="132" y="708" on="1"/>
        <pt x="132" y="737" on="0"/>
        <pt x="114" y="747" on="0"/>
        <pt x="93" y="747" on="1"/>
        <pt x="68" y="747" on="0"/>
        <pt x="37" y="764" on="0"/>
        <pt x="37" y="781" on="1"/>
        <pt x="37" y="807" on="0"/>
        <pt x="62" y="821" on="0"/>
        <pt x="94" y="821" on="1"/>
        <pt x="127" y="821" on="0"/>
        <pt x="202" y="820" on="0"/>
        <pt x="273" y="820" on="0"/>
        <pt x="333" y="819" on="0"/>
        <pt x="352" y="819" on="1"/>
        <pt x="389" y="819" on="0"/>
        <pt x="436" y="820" on="0"/>
        <pt x="481" y="820" on="0"/>
        <pt x="535" y="821" on="0"/>
        <pt x="579" y="821" on="1"/>
        <pt x="593" y="821" on="0"/>
        <pt x="607" y="806" on="0"/>
        <pt x="607" y="785" on="1"/>
        <pt x="607" y="643" on="1"/>
        <pt x="607" y="616" on="0"/>
        <pt x="588" y="597" on="0"/>
        <pt x="566" y="597" on="1"/>
        <pt x="540" y="597" on="0"/>
        <pt x="519" y="623" on="0"/>
        <pt x="519" y="637" on="1"/>
        <pt x="519" y="709" on="1"/>
        <pt x="519" y="727" on="0"/>
        <pt x="499" y="737" on="0"/>
        <pt x="482" y="737" on="1"/>
        <pt x="230" y="737" on="1"/>
        <pt x="230" y="464" on="1"/>
        <pt x="244" y="463" on="0"/>
        <pt x="264" y="462" on="0"/>
        <pt x="283" y="461" on="0"/>
        <pt x="303" y="461" on="0"/>
        <pt x="318" y="461" on="1"/>
        <pt x="328" y="461" on="0"/>
        <pt x="354" y="462" on="0"/>
        <pt x="378" y="463" on="0"/>
        <pt x="397" y="464" on="0"/>
        <pt x="401" y="464" on="1"/>
        <pt x="407" y="464" on="0"/>
        <pt x="414" y="480" on="0"/>
        <pt x="417" y="503" on="0"/>
        <pt x="418" y="526" on="0"/>
        <pt x="418" y="533" on="1"/>
        <pt x="418" y="548" on="0"/>
        <pt x="439" y="570" on="0"/>
        <pt x="460" y="570" on="1"/>
        <pt x="477" y="570" on="0"/>
        <pt x="503" y="555" on="0"/>
        <pt x="503" y="531" on="1"/>
        <pt x="503" y="502" on="0"/>
        <pt x="501" y="449" on="0"/>
        <pt x="501" y="420" on="1"/>
        <pt x="501" y="391" on="0"/>
        <pt x="503" y="331" on="0"/>
        <pt x="503" y="308" on="1"/>
        <pt x="503" y="275" on="0"/>
        <pt x="461" y="275" on="1"/>
        <pt x="435" y="275" on="0"/>
        <pt x="420" y="297" on="0"/>
        <pt x="420" y="310" on="1"/>
        <pt x="420" y="318" on="0"/>
        <pt x="416" y="341" on="0"/>
        <pt x="405" y="363" on="0"/>
        <pt x="386" y="378" on="0"/>
        <pt x="372" y="378" on="1"/>
        <pt x="364" y="378" on="0"/>
        <pt x="338" y="379" on="0"/>
        <pt x="318" y="379" on="1"/>
        <pt x="304" y="379" on="0"/>
        <pt x="283" y="379" on="0"/>
        <pt x="265" y="378" on="0"/>
        <pt x="244" y="377" on="0"/>
        <pt x="230" y="377" on="1"/>
        <pt x="230" y="84" on="1"/>
        <pt x="508" y="84" on="1"/>
        <pt x="515" y="84" on="0"/>
        <pt x="530" y="86" on="0"/>
        <pt x="542" y="93" on="0"/>
        <pt x="550" y="108" on="0"/>
        <pt x="551" y="121" on="1"/>
        <pt x="552" y="136" on="0"/>
        <pt x="556" y="178" on="0"/>
        <pt x="560" y="222" on="0"/>
        <pt x="563" y="264" on="0"/>
        <pt x="564" y="281" on="1"/>
        <pt x="565" y="303" on="0"/>
        <pt x="595" y="318" on="0"/>
      </contour>
    </TTGlyph>
    <TTGlyph name="Eth" xMin="44" yMin="0" xMax="685" yMax="821">
      <contour>
        <pt x="44" y="776" on="1"/>
        <pt x="44" y="794" on="0"/>
        <pt x="62" y="817" on="0"/>
        <pt x="79" y="818" on="1"/>
        <pt x="129" y="820" on="0"/>
        <pt x="241" y="821" on="0"/>
        <pt x="302" y="821" on="1"/>
        <pt x="365" y="821" on="0"/>
        <pt x="501" y="781" on="0"/>
        <pt x="613" y="691" on="0"/>
        <pt x="685" y="545" on="0"/>
        <pt x="685" y="439" on="1"/>
        <pt x="685" y="349" on="0"/>
        <pt x="636" y="189" on="0"/>
        <pt x="538" y="70" on="0"/>
        <pt x="390" y="0" on="0"/>
        <pt x="292" y="0" on="1"/>
        <pt x="81" y="0" on="1"/>
        <pt x="44" y="0" on="0"/>
        <pt x="44" y="31" on="1"/>
        <pt x="44" y="54" on="0"/>
        <pt x="66" y="71" on="0"/>
        <pt x="86" y="73" on="1"/>
        <pt x="114" y="75" on="0"/>
        <pt x="141" y="85" on="0"/>
        <pt x="141" y="97" on="1"/>
        <pt x="141" y="140" on="0"/>
        <pt x="141" y="205" on="0"/>
        <pt x="142" y="263" on="0"/>
        <pt x="142" y="324" on="0"/>
        <pt x="142" y="365" on="1"/>
        <pt x="98" y="365" on="1"/>
        <pt x="91" y="365" on="0"/>
        <pt x="79" y="375" on="0"/>
        <pt x="70" y="388" on="0"/>
        <pt x="65" y="403" on="0"/>
        <pt x="65" y="409" on="1"/>
        <pt x="65" y="422" on="0"/>
        <pt x="81" y="452" on="0"/>
        <pt x="98" y="452" on="1"/>
        <pt x="104" y="452" on="0"/>
        <pt x="128" y="451" on="0"/>
        <pt x="142" y="451" on="1"/>
        <pt x="142" y="473" on="0"/>
        <pt x="139" y="539" on="0"/>
        <pt x="137" y="610" on="0"/>
        <pt x="135" y="675" on="0"/>
        <pt x="135" y="696" on="1"/>
        <pt x="135" y="722" on="0"/>
        <pt x="103" y="738" on="0"/>
        <pt x="81" y="738" on="1"/>
        <pt x="44" y="738" on="0"/>
      </contour>
      <contour>
        <pt x="296" y="738" on="1"/>
        <pt x="281" y="738" on="0"/>
        <pt x="249" y="735" on="0"/>
        <pt x="234" y="734" on="1"/>
        <pt x="234" y="450" on="1"/>
        <pt x="269" y="450" on="0"/>
        <pt x="325" y="453" on="0"/>
        <pt x="347" y="453" on="1"/>
        <pt x="358" y="453" on="0"/>
        <pt x="375" y="425" on="0"/>
        <pt x="375" y="412" on="1"/>
        <pt x="375" y="407" on="0"/>
        <pt x="372" y="392" on="0"/>
        <pt x="364" y="377" on="0"/>
        <pt x="350" y="366" on="0"/>
        <pt x="339" y="366" on="1"/>
        <pt x="322" y="366" on="0"/>
        <pt x="265" y="365" on="0"/>
        <pt x="234" y="365" on="1"/>
        <pt x="234" y="92" on="1"/>
        <pt x="234" y="88" on="0"/>
        <pt x="247" y="84" on="0"/>
        <pt x="265" y="82" on="0"/>
        <pt x="287" y="82" on="0"/>
        <pt x="296" y="82" on="1"/>
        <pt x="373" y="82" on="0"/>
        <pt x="484" y="136" on="0"/>
        <pt x="555" y="232" on="0"/>
        <pt x="589" y="363" on="0"/>
        <pt x="589" y="439" on="1"/>
        <pt x="589" y="500" on="0"/>
        <pt x="555" y="609" on="0"/>
        <pt x="483" y="691" on="0"/>
        <pt x="372" y="738" on="0"/>
      </contour>
    </TTGlyph>
    <TTGlyph name="Etilde" xMin="37" yMin="0" xMax="651" yMax="953">
      <contour>
        <pt x="613" y="318" on="1"/>
        <pt x="627" y="318" on="0"/>
        <pt x="651" y="302" on="0"/>
        <pt x="651" y="285" on="1"/>
        <pt x="651" y="276" on="0"/>
        <pt x="649" y="218" on="0"/>
        <pt x="644" y="143" on="0"/>
        <pt x="638" y="63" on="0"/>
        <pt x="635" y="33" on="1"/>
        <pt x="633" y="12" on="0"/>
        <pt x="618" y="0" on="0"/>
        <pt x="593" y="0" on="1"/>
        <pt x="532" y="0" on="0"/>
        <pt x="417" y="2" on="0"/>
        <pt x="356" y="2" on="1"/>
        <pt x="326" y="2" on="0"/>
        <pt x="256" y="1" on="0"/>
        <pt x="186" y="1" on="0"/>
        <pt x="116" y="0" on="0"/>
        <pt x="86" y="0" on="1"/>
        <pt x="60" y="0" on="0"/>
        <pt x="38" y="16" on="0"/>
        <pt x="38" y="33" on="1"/>
        <pt x="38" y="55" on="0"/>
        <pt x="68" y="72" on="0"/>
        <pt x="89" y="73" on="1"/>
        <pt x="118" y="75" on="0"/>
        <pt x="136" y="92" on="0"/>
        <pt x="136" y="109" on="1"/>
        <pt x="136" y="141" on="0"/>
        <pt x="136" y="187" on="0"/>
        <pt x="137" y="227" on="0"/>
        <pt x="137" y="266" on="0"/>
        <pt x="138" y="315" on="0"/>
        <pt x="138" y="379" on="0"/>
        <pt x="138" y="425" on="1"/>
        <pt x="138" y="476" on="0"/>
        <pt x="136" y="554" on="0"/>
        <pt x="134" y="620" on="0"/>
        <pt x="132" y="678" on="0"/>
        <pt x="132" y="708" on="1"/>
        <pt x="132" y="737" on="0"/>
        <pt x="114" y="747" on="0"/>
        <pt x="93" y="747" on="1"/>
        <pt x="68" y="747" on="0"/>
        <pt x="37" y="764" on="0"/>
        <pt x="37" y="781" on="1"/>
        <pt x="37" y="807" on="0"/>
        <pt x="62" y="821" on="0"/>
        <pt x="94" y="821" on="1"/>
        <pt x="127" y="821" on="0"/>
        <pt x="202" y="820" on="0"/>
        <pt x="273" y="820" on="0"/>
        <pt x="333" y="819" on="0"/>
        <pt x="352" y="819" on="1"/>
        <pt x="389" y="819" on="0"/>
        <pt x="436" y="820" on="0"/>
        <pt x="481" y="820" on="0"/>
        <pt x="535" y="821" on="0"/>
        <pt x="579" y="821" on="1"/>
        <pt x="593" y="821" on="0"/>
        <pt x="607" y="806" on="0"/>
        <pt x="607" y="785" on="1"/>
        <pt x="607" y="643" on="1"/>
        <pt x="607" y="616" on="0"/>
        <pt x="588" y="597" on="0"/>
        <pt x="566" y="597" on="1"/>
        <pt x="540" y="597" on="0"/>
        <pt x="519" y="623" on="0"/>
        <pt x="519" y="637" on="1"/>
        <pt x="519" y="709" on="1"/>
        <pt x="519" y="727" on="0"/>
        <pt x="499" y="737" on="0"/>
        <pt x="482" y="737" on="1"/>
        <pt x="230" y="737" on="1"/>
        <pt x="230" y="464" on="1"/>
        <pt x="244" y="463" on="0"/>
        <pt x="264" y="462" on="0"/>
        <pt x="283" y="461" on="0"/>
        <pt x="303" y="461" on="0"/>
        <pt x="318" y="461" on="1"/>
        <pt x="328" y="461" on="0"/>
        <pt x="354" y="462" on="0"/>
        <pt x="378" y="463" on="0"/>
        <pt x="397" y="464" on="0"/>
        <pt x="401" y="464" on="1"/>
        <pt x="407" y="464" on="0"/>
        <pt x="414" y="480" on="0"/>
        <pt x="417" y="503" on="0"/>
        <pt x="418" y="526" on="0"/>
        <pt x="418" y="533" on="1"/>
        <pt x="418" y="548" on="0"/>
        <pt x="439" y="570" on="0"/>
        <pt x="460" y="570" on="1"/>
        <pt x="477" y="570" on="0"/>
        <pt x="503" y="555" on="0"/>
        <pt x="503" y="531" on="1"/>
        <pt x="503" y="502" on="0"/>
        <pt x="501" y="449" on="0"/>
        <pt x="501" y="420" on="1"/>
        <pt x="501" y="391" on="0"/>
        <pt x="503" y="331" on="0"/>
        <pt x="503" y="308" on="1"/>
        <pt x="503" y="275" on="0"/>
        <pt x="461" y="275" on="1"/>
        <pt x="435" y="275" on="0"/>
        <pt x="420" y="297" on="0"/>
        <pt x="420" y="310" on="1"/>
        <pt x="420" y="318" on="0"/>
        <pt x="416" y="341" on="0"/>
        <pt x="405" y="363" on="0"/>
        <pt x="386" y="378" on="0"/>
        <pt x="372" y="378" on="1"/>
        <pt x="364" y="378" on="0"/>
        <pt x="338" y="379" on="0"/>
        <pt x="318" y="379" on="1"/>
        <pt x="304" y="379" on="0"/>
        <pt x="283" y="379" on="0"/>
        <pt x="265" y="378" on="0"/>
        <pt x="244" y="377" on="0"/>
        <pt x="230" y="377" on="1"/>
        <pt x="230" y="84" on="1"/>
        <pt x="508" y="84" on="1"/>
        <pt x="515" y="84" on="0"/>
        <pt x="530" y="86" on="0"/>
        <pt x="542" y="93" on="0"/>
        <pt x="550" y="108" on="0"/>
        <pt x="551" y="121" on="1"/>
        <pt x="552" y="136" on="0"/>
        <pt x="556" y="178" on="0"/>
        <pt x="560" y="222" on="0"/>
        <pt x="563" y="264" on="0"/>
        <pt x="564" y="281" on="1"/>
        <pt x="565" y="303" on="0"/>
        <pt x="595" y="318" on="0"/>
      </contour>
      <contour>
        <pt x="178" y="878" on="1"/>
        <pt x="178" y="900" on="0"/>
        <pt x="198" y="925" on="0"/>
        <pt x="212" y="933" on="1"/>
        <pt x="243" y="951" on="0"/>
        <pt x="280" y="951" on="1"/>
        <pt x="295" y="951" on="0"/>
        <pt x="330" y="942" on="0"/>
        <pt x="366" y="932" on="0"/>
        <pt x="402" y="923" on="0"/>
        <pt x="417" y="923" on="1"/>
        <pt x="431" y="923" on="0"/>
        <pt x="463" y="932" on="0"/>
        <pt x="477" y="940" on="1"/>
        <pt x="500" y="953" on="0"/>
        <pt x="507" y="953" on="1"/>
        <pt x="512" y="953" on="0"/>
        <pt x="529" y="934" on="0"/>
        <pt x="529" y="918" on="1"/>
        <pt x="529" y="896" on="0"/>
        <pt x="503" y="867" on="0"/>
        <pt x="467" y="850" on="0"/>
        <pt x="429" y="843" on="0"/>
        <pt x="418" y="843" on="1"/>
        <pt x="399" y="843" on="0"/>
        <pt x="362" y="850" on="0"/>
        <pt x="327" y="859" on="0"/>
        <pt x="295" y="867" on="0"/>
        <pt x="281" y="867" on="1"/>
        <pt x="266" y="867" on="0"/>
        <pt x="242" y="859" on="0"/>
        <pt x="222" y="850" on="0"/>
        <pt x="204" y="842" on="0"/>
        <pt x="197" y="842" on="1"/>
        <pt x="188" y="842" on="0"/>
        <pt x="178" y="863" on="0"/>
      </contour>
    </TTGlyph>
    <TTGlyph name="Euro" xMin="32" yMin="-14" xMax="648" yMax="838">
      <contour>
        <pt x="645" y="166" on="1"/>
        <pt x="645" y="134" on="0"/>
        <pt x="623" y="70" on="0"/>
        <pt x="568" y="19" on="0"/>
        <pt x="472" y="-14" on="0"/>
        <pt x="398" y="-14" on="1"/>
        <pt x="289" y="-14" on="0"/>
        <pt x="145" y="123" on="0"/>
        <pt x="126" y="245" on="1"/>
        <pt x="65" y="245" on="1"/>
        <pt x="51" y="245" on="0"/>
        <pt x="32" y="273" on="0"/>
        <pt x="32" y="286" on="1"/>
        <pt x="32" y="300" on="0"/>
        <pt x="48" y="326" on="0"/>
        <pt x="65" y="326" on="1"/>
        <pt x="73" y="326" on="0"/>
        <pt x="101" y="325" on="0"/>
        <pt x="118" y="325" on="1"/>
        <pt x="116" y="343" on="0"/>
        <pt x="113" y="382" on="0"/>
        <pt x="113" y="405" on="1"/>
        <pt x="113" y="411" on="1"/>
        <pt x="65" y="411" on="1"/>
        <pt x="51" y="411" on="0"/>
        <pt x="32" y="439" on="0"/>
        <pt x="32" y="452" on="1"/>
        <pt x="32" y="466" on="0"/>
        <pt x="48" y="492" on="0"/>
        <pt x="65" y="492" on="1"/>
        <pt x="72" y="492" on="0"/>
        <pt x="99" y="491" on="0"/>
        <pt x="115" y="491" on="1"/>
        <pt x="127" y="573" on="0"/>
        <pt x="174" y="702" on="0"/>
        <pt x="246" y="791" on="0"/>
        <pt x="346" y="838" on="0"/>
        <pt x="411" y="838" on="1"/>
        <pt x="456" y="838" on="0"/>
        <pt x="541" y="815" on="0"/>
        <pt x="608" y="759" on="0"/>
        <pt x="648" y="665" on="0"/>
        <pt x="648" y="595" on="1"/>
        <pt x="648" y="588" on="0"/>
        <pt x="643" y="570" on="0"/>
        <pt x="633" y="555" on="0"/>
        <pt x="618" y="545" on="0"/>
        <pt x="607" y="545" on="1"/>
        <pt x="590" y="545" on="0"/>
        <pt x="570" y="557" on="0"/>
        <pt x="560" y="578" on="0"/>
        <pt x="557" y="605" on="0"/>
        <pt x="557" y="620" on="1"/>
        <pt x="557" y="650" on="0"/>
        <pt x="543" y="701" on="0"/>
        <pt x="510" y="738" on="0"/>
        <pt x="455" y="759" on="0"/>
        <pt x="414" y="759" on="1"/>
        <pt x="357" y="759" on="0"/>
        <pt x="279" y="703" on="0"/>
        <pt x="231" y="621" on="0"/>
        <pt x="211" y="528" on="0"/>
        <pt x="211" y="490" on="1"/>
        <pt x="237" y="490" on="1"/>
        <pt x="264" y="490" on="0"/>
        <pt x="317" y="493" on="0"/>
        <pt x="334" y="493" on="1"/>
        <pt x="345" y="493" on="0"/>
        <pt x="362" y="469" on="0"/>
        <pt x="362" y="455" on="1"/>
        <pt x="362" y="442" on="0"/>
        <pt x="346" y="412" on="0"/>
        <pt x="326" y="412" on="1"/>
        <pt x="309" y="412" on="0"/>
        <pt x="242" y="411" on="0"/>
        <pt x="209" y="411" on="1"/>
        <pt x="209" y="404" on="1"/>
        <pt x="209" y="383" on="0"/>
        <pt x="211" y="343" on="0"/>
        <pt x="214" y="324" on="1"/>
        <pt x="237" y="324" on="1"/>
        <pt x="264" y="324" on="0"/>
        <pt x="317" y="327" on="0"/>
        <pt x="334" y="327" on="1"/>
        <pt x="345" y="327" on="0"/>
        <pt x="362" y="303" on="0"/>
        <pt x="362" y="289" on="1"/>
        <pt x="362" y="284" on="0"/>
        <pt x="359" y="269" on="0"/>
        <pt x="351" y="255" on="0"/>
        <pt x="337" y="246" on="0"/>
        <pt x="326" y="246" on="1"/>
        <pt x="310" y="246" on="0"/>
        <pt x="249" y="245" on="0"/>
        <pt x="218" y="245" on="1"/>
        <pt x="223" y="206" on="0"/>
        <pt x="255" y="140" on="0"/>
        <pt x="301" y="93" on="0"/>
        <pt x="361" y="66" on="0"/>
        <pt x="395" y="66" on="1"/>
        <pt x="424" y="66" on="0"/>
        <pt x="477" y="73" on="0"/>
        <pt x="521" y="91" on="0"/>
        <pt x="553" y="123" on="0"/>
        <pt x="562" y="149" on="1"/>
        <pt x="565" y="157" on="0"/>
        <pt x="568" y="178" on="0"/>
        <pt x="575" y="198" on="0"/>
        <pt x="591" y="211" on="0"/>
        <pt x="607" y="211" on="1"/>
        <pt x="620" y="211" on="0"/>
        <pt x="635" y="202" on="0"/>
        <pt x="643" y="189" on="0"/>
        <pt x="645" y="173" on="0"/>
      </contour>
    </TTGlyph>
    <TTGlyph name="F" xMin="36" yMin="0" xMax="607" yMax="821">
      <contour>
        <pt x="135" y="119" on="1"/>
        <pt x="137" y="216" on="0"/>
        <pt x="140" y="392" on="0"/>
        <pt x="140" y="489" on="1"/>
        <pt x="140" y="522" on="0"/>
        <pt x="139" y="577" on="0"/>
        <pt x="138" y="629" on="0"/>
        <pt x="135" y="680" on="0"/>
        <pt x="133" y="708" on="1"/>
        <pt x="131" y="728" on="0"/>
        <pt x="106" y="750" on="0"/>
        <pt x="77" y="751" on="1"/>
        <pt x="57" y="752" on="0"/>
        <pt x="36" y="768" on="0"/>
        <pt x="36" y="787" on="1"/>
        <pt x="36" y="807" on="0"/>
        <pt x="59" y="821" on="0"/>
        <pt x="84" y="821" on="1"/>
        <pt x="148" y="821" on="0"/>
        <pt x="299" y="819" on="0"/>
        <pt x="363" y="819" on="1"/>
        <pt x="416" y="819" on="0"/>
        <pt x="520" y="821" on="0"/>
        <pt x="573" y="821" on="1"/>
        <pt x="594" y="821" on="0"/>
        <pt x="607" y="799" on="0"/>
        <pt x="607" y="773" on="1"/>
        <pt x="607" y="655" on="1"/>
        <pt x="607" y="624" on="0"/>
        <pt x="587" y="597" on="0"/>
        <pt x="561" y="597" on="1"/>
        <pt x="548" y="597" on="0"/>
        <pt x="532" y="608" on="0"/>
        <pt x="523" y="626" on="0"/>
        <pt x="519" y="646" on="0"/>
        <pt x="519" y="655" on="1"/>
        <pt x="519" y="696" on="1"/>
        <pt x="519" y="723" on="0"/>
        <pt x="500" y="737" on="0"/>
        <pt x="480" y="737" on="1"/>
        <pt x="230" y="737" on="1"/>
        <pt x="230" y="464" on="1"/>
        <pt x="245" y="463" on="0"/>
        <pt x="265" y="462" on="0"/>
        <pt x="283" y="462" on="0"/>
        <pt x="302" y="462" on="0"/>
        <pt x="316" y="462" on="1"/>
        <pt x="327" y="462" on="0"/>
        <pt x="355" y="463" on="0"/>
        <pt x="381" y="463" on="0"/>
        <pt x="401" y="464" on="0"/>
        <pt x="404" y="464" on="1"/>
        <pt x="409" y="464" on="0"/>
        <pt x="415" y="477" on="0"/>
        <pt x="418" y="494" on="0"/>
        <pt x="418" y="510" on="0"/>
        <pt x="418" y="513" on="1"/>
        <pt x="418" y="536" on="0"/>
        <pt x="433" y="566" on="0"/>
        <pt x="462" y="566" on="1"/>
        <pt x="489" y="566" on="0"/>
        <pt x="503" y="540" on="0"/>
        <pt x="503" y="519" on="1"/>
        <pt x="503" y="494" on="0"/>
        <pt x="501" y="440" on="0"/>
        <pt x="501" y="415" on="1"/>
        <pt x="501" y="390" on="0"/>
        <pt x="503" y="328" on="0"/>
        <pt x="503" y="304" on="1"/>
        <pt x="503" y="283" on="0"/>
        <pt x="482" y="266" on="0"/>
        <pt x="462" y="266" on="1"/>
        <pt x="445" y="266" on="0"/>
        <pt x="421" y="286" on="0"/>
        <pt x="420" y="305" on="1"/>
        <pt x="418" y="346" on="0"/>
        <pt x="392" y="374" on="0"/>
        <pt x="378" y="376" on="1"/>
        <pt x="364" y="378" on="0"/>
        <pt x="333" y="380" on="0"/>
        <pt x="319" y="380" on="1"/>
        <pt x="305" y="380" on="0"/>
        <pt x="284" y="380" on="0"/>
        <pt x="265" y="379" on="0"/>
        <pt x="244" y="378" on="0"/>
        <pt x="230" y="377" on="1"/>
        <pt x="230" y="359" on="0"/>
        <pt x="230" y="314" on="0"/>
        <pt x="229" y="268" on="0"/>
        <pt x="229" y="223" on="0"/>
        <pt x="229" y="205" on="1"/>
        <pt x="229" y="190" on="0"/>
        <pt x="230" y="150" on="0"/>
        <pt x="231" y="112" on="0"/>
        <pt x="232" y="82" on="0"/>
        <pt x="232" y="78" on="1"/>
        <pt x="353" y="78" on="1"/>
        <pt x="374" y="78" on="0"/>
        <pt x="406" y="64" on="0"/>
        <pt x="406" y="41" on="1"/>
        <pt x="406" y="28" on="0"/>
        <pt x="397" y="12" on="0"/>
        <pt x="384" y="3" on="0"/>
        <pt x="367" y="0" on="0"/>
        <pt x="359" y="0" on="1"/>
        <pt x="83" y="0" on="1"/>
        <pt x="61" y="0" on="0"/>
        <pt x="40" y="14" on="0"/>
        <pt x="40" y="31" on="1"/>
        <pt x="40" y="51" on="0"/>
        <pt x="61" y="68" on="0"/>
        <pt x="78" y="70" on="1"/>
        <pt x="104" y="72" on="0"/>
        <pt x="134" y="90" on="0"/>
      </contour>
    </TTGlyph>
    <TTGlyph name="G" xMin="34" yMin="-14" xMax="623" yMax="838">
      <contour>
        <pt x="509" y="245" on="1"/>
        <pt x="484" y="245" on="0"/>
        <pt x="446" y="243" on="0"/>
        <pt x="409" y="240" on="0"/>
        <pt x="369" y="238" on="0"/>
        <pt x="342" y="238" on="1"/>
        <pt x="321" y="238" on="0"/>
        <pt x="297" y="260" on="0"/>
        <pt x="297" y="273" on="1"/>
        <pt x="297" y="301" on="0"/>
        <pt x="328" y="322" on="0"/>
        <pt x="348" y="322" on="1"/>
        <pt x="379" y="322" on="0"/>
        <pt x="427" y="324" on="0"/>
        <pt x="471" y="327" on="0"/>
        <pt x="515" y="330" on="0"/>
        <pt x="542" y="330" on="1"/>
        <pt x="574" y="330" on="0"/>
        <pt x="623" y="305" on="0"/>
        <pt x="623" y="273" on="1"/>
        <pt x="623" y="256" on="0"/>
        <pt x="621" y="200" on="0"/>
        <pt x="621" y="164" on="1"/>
        <pt x="621" y="114" on="0"/>
        <pt x="623" y="56" on="0"/>
        <pt x="623" y="36" on="1"/>
        <pt x="623" y="17" on="0"/>
        <pt x="599" y="-4" on="0"/>
        <pt x="582" y="-4" on="1"/>
        <pt x="564" y="-4" on="0"/>
        <pt x="541" y="10" on="0"/>
        <pt x="541" y="32" on="1"/>
        <pt x="541" y="52" on="0"/>
        <pt x="543" y="90" on="0"/>
        <pt x="543" y="98" on="1"/>
        <pt x="527" y="68" on="0"/>
        <pt x="480" y="25" on="0"/>
        <pt x="425" y="-2" on="0"/>
        <pt x="364" y="-14" on="0"/>
        <pt x="334" y="-14" on="1"/>
        <pt x="281" y="-14" on="0"/>
        <pt x="174" y="29" on="0"/>
        <pt x="88" y="128" on="0"/>
        <pt x="34" y="288" on="0"/>
        <pt x="34" y="404" on="1"/>
        <pt x="34" y="491" on="0"/>
        <pt x="80" y="649" on="0"/>
        <pt x="162" y="768" on="0"/>
        <pt x="278" y="838" on="0"/>
        <pt x="347" y="838" on="1"/>
        <pt x="374" y="838" on="0"/>
        <pt x="429" y="825" on="0"/>
        <pt x="479" y="795" on="0"/>
        <pt x="521" y="745" on="0"/>
        <pt x="535" y="709" on="1"/>
        <pt x="530" y="795" on="1"/>
        <pt x="530" y="809" on="0"/>
        <pt x="547" y="826" on="0"/>
        <pt x="568" y="826" on="1"/>
        <pt x="594" y="826" on="0"/>
        <pt x="615" y="799" on="0"/>
        <pt x="615" y="787" on="1"/>
        <pt x="615" y="766" on="0"/>
        <pt x="614" y="733" on="0"/>
        <pt x="612" y="701" on="0"/>
        <pt x="611" y="668" on="0"/>
        <pt x="611" y="648" on="1"/>
        <pt x="611" y="622" on="0"/>
        <pt x="613" y="550" on="0"/>
        <pt x="613" y="524" on="1"/>
        <pt x="613" y="500" on="0"/>
        <pt x="591" y="468" on="0"/>
        <pt x="568" y="468" on="1"/>
        <pt x="551" y="468" on="0"/>
        <pt x="522" y="491" on="0"/>
        <pt x="522" y="521" on="1"/>
        <pt x="522" y="572" on="0"/>
        <pt x="502" y="659" on="0"/>
        <pt x="458" y="723" on="0"/>
        <pt x="388" y="759" on="0"/>
        <pt x="338" y="759" on="1"/>
        <pt x="295" y="759" on="0"/>
        <pt x="220" y="703" on="0"/>
        <pt x="163" y="606" on="0"/>
        <pt x="130" y="477" on="0"/>
        <pt x="130" y="404" on="1"/>
        <pt x="130" y="342" on="0"/>
        <pt x="153" y="221" on="0"/>
        <pt x="204" y="126" on="0"/>
        <pt x="286" y="67" on="0"/>
        <pt x="344" y="67" on="1"/>
        <pt x="381" y="67" on="0"/>
        <pt x="450" y="98" on="0"/>
        <pt x="502" y="145" on="0"/>
        <pt x="534" y="201" on="0"/>
        <pt x="534" y="225" on="1"/>
        <pt x="534" y="238" on="0"/>
        <pt x="523" y="245" on="0"/>
      </contour>
    </TTGlyph>
    <TTGlyph name="Gbreve" xMin="34" yMin="-14" xMax="623" yMax="971">
      <contour>
        <pt x="509" y="245" on="1"/>
        <pt x="484" y="245" on="0"/>
        <pt x="446" y="243" on="0"/>
        <pt x="409" y="240" on="0"/>
        <pt x="369" y="238" on="0"/>
        <pt x="342" y="238" on="1"/>
        <pt x="321" y="238" on="0"/>
        <pt x="297" y="260" on="0"/>
        <pt x="297" y="273" on="1"/>
        <pt x="297" y="301" on="0"/>
        <pt x="328" y="322" on="0"/>
        <pt x="348" y="322" on="1"/>
        <pt x="379" y="322" on="0"/>
        <pt x="427" y="324" on="0"/>
        <pt x="471" y="327" on="0"/>
        <pt x="515" y="330" on="0"/>
        <pt x="542" y="330" on="1"/>
        <pt x="574" y="330" on="0"/>
        <pt x="623" y="305" on="0"/>
        <pt x="623" y="273" on="1"/>
        <pt x="623" y="256" on="0"/>
        <pt x="621" y="200" on="0"/>
        <pt x="621" y="164" on="1"/>
        <pt x="621" y="114" on="0"/>
        <pt x="623" y="56" on="0"/>
        <pt x="623" y="36" on="1"/>
        <pt x="623" y="17" on="0"/>
        <pt x="599" y="-4" on="0"/>
        <pt x="582" y="-4" on="1"/>
        <pt x="564" y="-4" on="0"/>
        <pt x="541" y="10" on="0"/>
        <pt x="541" y="32" on="1"/>
        <pt x="541" y="52" on="0"/>
        <pt x="543" y="90" on="0"/>
        <pt x="543" y="98" on="1"/>
        <pt x="527" y="68" on="0"/>
        <pt x="480" y="25" on="0"/>
        <pt x="425" y="-2" on="0"/>
        <pt x="364" y="-14" on="0"/>
        <pt x="334" y="-14" on="1"/>
        <pt x="281" y="-14" on="0"/>
        <pt x="174" y="29" on="0"/>
        <pt x="88" y="128" on="0"/>
        <pt x="34" y="288" on="0"/>
        <pt x="34" y="404" on="1"/>
        <pt x="34" y="491" on="0"/>
        <pt x="80" y="649" on="0"/>
        <pt x="162" y="768" on="0"/>
        <pt x="278" y="838" on="0"/>
        <pt x="347" y="838" on="1"/>
        <pt x="374" y="838" on="0"/>
        <pt x="429" y="825" on="0"/>
        <pt x="479" y="795" on="0"/>
        <pt x="521" y="745" on="0"/>
        <pt x="535" y="709" on="1"/>
        <pt x="530" y="795" on="1"/>
        <pt x="530" y="809" on="0"/>
        <pt x="547" y="826" on="0"/>
        <pt x="568" y="826" on="1"/>
        <pt x="594" y="826" on="0"/>
        <pt x="615" y="799" on="0"/>
        <pt x="615" y="787" on="1"/>
        <pt x="615" y="766" on="0"/>
        <pt x="614" y="733" on="0"/>
        <pt x="612" y="701" on="0"/>
        <pt x="611" y="668" on="0"/>
        <pt x="611" y="648" on="1"/>
        <pt x="611" y="622" on="0"/>
        <pt x="613" y="550" on="0"/>
        <pt x="613" y="524" on="1"/>
        <pt x="613" y="500" on="0"/>
        <pt x="591" y="468" on="0"/>
        <pt x="568" y="468" on="1"/>
        <pt x="551" y="468" on="0"/>
        <pt x="522" y="491" on="0"/>
        <pt x="522" y="521" on="1"/>
        <pt x="522" y="572" on="0"/>
        <pt x="502" y="659" on="0"/>
        <pt x="458" y="723" on="0"/>
        <pt x="388" y="759" on="0"/>
        <pt x="338" y="759" on="1"/>
        <pt x="295" y="759" on="0"/>
        <pt x="220" y="703" on="0"/>
        <pt x="163" y="606" on="0"/>
        <pt x="130" y="477" on="0"/>
        <pt x="130" y="404" on="1"/>
        <pt x="130" y="342" on="0"/>
        <pt x="153" y="221" on="0"/>
        <pt x="204" y="126" on="0"/>
        <pt x="286" y="67" on="0"/>
        <pt x="344" y="67" on="1"/>
        <pt x="381" y="67" on="0"/>
        <pt x="450" y="98" on="0"/>
        <pt x="502" y="145" on="0"/>
        <pt x="534" y="201" on="0"/>
        <pt x="534" y="225" on="1"/>
        <pt x="534" y="238" on="0"/>
        <pt x="523" y="245" on="0"/>
      </contour>
      <contour>
        <pt x="482" y="941" on="1"/>
        <pt x="482" y="921" on="0"/>
        <pt x="459" y="892" on="0"/>
        <pt x="423" y="872" on="0"/>
        <pt x="380" y="862" on="0"/>
        <pt x="361" y="862" on="1"/>
        <pt x="296" y="862" on="0"/>
        <pt x="229" y="909" on="0"/>
        <pt x="229" y="941" on="1"/>
        <pt x="229" y="954" on="0"/>
        <pt x="244" y="971" on="0"/>
        <pt x="261" y="971" on="1"/>
        <pt x="278" y="971" on="0"/>
        <pt x="297" y="959" on="0"/>
        <pt x="297" y="942" on="1"/>
        <pt x="297" y="936" on="0"/>
        <pt x="308" y="927" on="0"/>
        <pt x="326" y="921" on="0"/>
        <pt x="347" y="919" on="0"/>
        <pt x="356" y="919" on="1"/>
        <pt x="385" y="919" on="0"/>
        <pt x="412" y="934" on="0"/>
        <pt x="412" y="942" on="1"/>
        <pt x="412" y="953" on="0"/>
        <pt x="431" y="971" on="0"/>
        <pt x="444" y="971" on="1"/>
        <pt x="459" y="971" on="0"/>
        <pt x="482" y="961" on="0"/>
      </contour>
    </TTGlyph>
    <TTGlyph name="Gcircumflex" xMin="34" yMin="-14" xMax="623" yMax="972">
      <contour>
        <pt x="464" y="830" on="1"/>
        <pt x="459" y="830" on="0"/>
        <pt x="431" y="837" on="0"/>
        <pt x="396" y="851" on="0"/>
        <pt x="359" y="869" on="0"/>
        <pt x="344" y="880" on="1"/>
        <pt x="329" y="869" on="0"/>
        <pt x="292" y="851" on="0"/>
        <pt x="258" y="837" on="0"/>
        <pt x="230" y="830" on="0"/>
        <pt x="225" y="830" on="1"/>
        <pt x="219" y="830" on="0"/>
        <pt x="212" y="839" on="0"/>
        <pt x="212" y="844" on="1"/>
        <pt x="212" y="864" on="0"/>
        <pt x="248" y="909" on="0"/>
        <pt x="294" y="947" on="0"/>
        <pt x="337" y="972" on="0"/>
        <pt x="344" y="972" on="1"/>
        <pt x="353" y="972" on="0"/>
        <pt x="397" y="946" on="0"/>
        <pt x="442" y="908" on="0"/>
        <pt x="477" y="867" on="0"/>
        <pt x="477" y="851" on="1"/>
        <pt x="477" y="844" on="0"/>
        <pt x="472" y="830" on="0"/>
      </contour>
      <contour>
        <pt x="509" y="245" on="1"/>
        <pt x="484" y="245" on="0"/>
        <pt x="446" y="243" on="0"/>
        <pt x="409" y="240" on="0"/>
        <pt x="369" y="238" on="0"/>
        <pt x="342" y="238" on="1"/>
        <pt x="321" y="238" on="0"/>
        <pt x="297" y="260" on="0"/>
        <pt x="297" y="273" on="1"/>
        <pt x="297" y="301" on="0"/>
        <pt x="328" y="322" on="0"/>
        <pt x="348" y="322" on="1"/>
        <pt x="379" y="322" on="0"/>
        <pt x="427" y="324" on="0"/>
        <pt x="471" y="327" on="0"/>
        <pt x="515" y="330" on="0"/>
        <pt x="542" y="330" on="1"/>
        <pt x="574" y="330" on="0"/>
        <pt x="623" y="305" on="0"/>
        <pt x="623" y="273" on="1"/>
        <pt x="623" y="256" on="0"/>
        <pt x="621" y="200" on="0"/>
        <pt x="621" y="164" on="1"/>
        <pt x="621" y="114" on="0"/>
        <pt x="623" y="56" on="0"/>
        <pt x="623" y="36" on="1"/>
        <pt x="623" y="17" on="0"/>
        <pt x="599" y="-4" on="0"/>
        <pt x="582" y="-4" on="1"/>
        <pt x="564" y="-4" on="0"/>
        <pt x="541" y="10" on="0"/>
        <pt x="541" y="32" on="1"/>
        <pt x="541" y="52" on="0"/>
        <pt x="543" y="90" on="0"/>
        <pt x="543" y="98" on="1"/>
        <pt x="527" y="68" on="0"/>
        <pt x="480" y="25" on="0"/>
        <pt x="425" y="-2" on="0"/>
        <pt x="364" y="-14" on="0"/>
        <pt x="334" y="-14" on="1"/>
        <pt x="281" y="-14" on="0"/>
        <pt x="174" y="29" on="0"/>
        <pt x="88" y="128" on="0"/>
        <pt x="34" y="288" on="0"/>
        <pt x="34" y="404" on="1"/>
        <pt x="34" y="491" on="0"/>
        <pt x="80" y="649" on="0"/>
        <pt x="162" y="768" on="0"/>
        <pt x="278" y="838" on="0"/>
        <pt x="347" y="838" on="1"/>
        <pt x="374" y="838" on="0"/>
        <pt x="429" y="825" on="0"/>
        <pt x="479" y="795" on="0"/>
        <pt x="521" y="745" on="0"/>
        <pt x="535" y="709" on="1"/>
        <pt x="530" y="795" on="1"/>
        <pt x="530" y="809" on="0"/>
        <pt x="547" y="826" on="0"/>
        <pt x="568" y="826" on="1"/>
        <pt x="594" y="826" on="0"/>
        <pt x="615" y="799" on="0"/>
        <pt x="615" y="787" on="1"/>
        <pt x="615" y="766" on="0"/>
        <pt x="614" y="733" on="0"/>
        <pt x="612" y="701" on="0"/>
        <pt x="611" y="668" on="0"/>
        <pt x="611" y="648" on="1"/>
        <pt x="611" y="622" on="0"/>
        <pt x="613" y="550" on="0"/>
        <pt x="613" y="524" on="1"/>
        <pt x="613" y="500" on="0"/>
        <pt x="591" y="468" on="0"/>
        <pt x="568" y="468" on="1"/>
        <pt x="551" y="468" on="0"/>
        <pt x="522" y="491" on="0"/>
        <pt x="522" y="521" on="1"/>
        <pt x="522" y="572" on="0"/>
        <pt x="502" y="659" on="0"/>
        <pt x="458" y="723" on="0"/>
        <pt x="388" y="759" on="0"/>
        <pt x="338" y="759" on="1"/>
        <pt x="295" y="759" on="0"/>
        <pt x="220" y="703" on="0"/>
        <pt x="163" y="606" on="0"/>
        <pt x="130" y="477" on="0"/>
        <pt x="130" y="404" on="1"/>
        <pt x="130" y="342" on="0"/>
        <pt x="153" y="221" on="0"/>
        <pt x="204" y="126" on="0"/>
        <pt x="286" y="67" on="0"/>
        <pt x="344" y="67" on="1"/>
        <pt x="381" y="67" on="0"/>
        <pt x="450" y="98" on="0"/>
        <pt x="502" y="145" on="0"/>
        <pt x="534" y="201" on="0"/>
        <pt x="534" y="225" on="1"/>
        <pt x="534" y="238" on="0"/>
        <pt x="523" y="245" on="0"/>
      </contour>
    </TTGlyph>
    <TTGlyph name="Gcommaaccent" xMin="36" yMin="-249" xMax="625" yMax="838">
      <contour>
        <pt x="300" y="-107" on="1"/>
        <pt x="300" y="-86" on="0"/>
        <pt x="327" y="-49" on="0"/>
        <pt x="360" y="-49" on="1"/>
        <pt x="384" y="-49" on="0"/>
        <pt x="428" y="-87" on="0"/>
        <pt x="428" y="-130" on="1"/>
        <pt x="428" y="-160" on="0"/>
        <pt x="407" y="-205" on="0"/>
        <pt x="380" y="-234" on="0"/>
        <pt x="353" y="-249" on="0"/>
        <pt x="347" y="-249" on="1"/>
        <pt x="342" y="-249" on="0"/>
        <pt x="321" y="-243" on="0"/>
        <pt x="321" y="-226" on="1"/>
        <pt x="321" y="-216" on="0"/>
        <pt x="336" y="-187" on="0"/>
        <pt x="336" y="-157" on="1"/>
        <pt x="336" y="-151" on="0"/>
        <pt x="325" y="-142" on="0"/>
        <pt x="311" y="-132" on="0"/>
        <pt x="300" y="-119" on="0"/>
      </contour>
      <contour>
        <pt x="511" y="245" on="1"/>
        <pt x="486" y="245" on="0"/>
        <pt x="448" y="243" on="0"/>
        <pt x="411" y="240" on="0"/>
        <pt x="371" y="238" on="0"/>
        <pt x="344" y="238" on="1"/>
        <pt x="323" y="238" on="0"/>
        <pt x="299" y="260" on="0"/>
        <pt x="299" y="273" on="1"/>
        <pt x="299" y="301" on="0"/>
        <pt x="330" y="322" on="0"/>
        <pt x="350" y="322" on="1"/>
        <pt x="381" y="322" on="0"/>
        <pt x="429" y="324" on="0"/>
        <pt x="473" y="327" on="0"/>
        <pt x="517" y="330" on="0"/>
        <pt x="544" y="330" on="1"/>
        <pt x="576" y="330" on="0"/>
        <pt x="625" y="305" on="0"/>
        <pt x="625" y="273" on="1"/>
        <pt x="625" y="256" on="0"/>
        <pt x="623" y="200" on="0"/>
        <pt x="623" y="164" on="1"/>
        <pt x="623" y="114" on="0"/>
        <pt x="625" y="56" on="0"/>
        <pt x="625" y="36" on="1"/>
        <pt x="625" y="17" on="0"/>
        <pt x="601" y="-4" on="0"/>
        <pt x="584" y="-4" on="1"/>
        <pt x="566" y="-4" on="0"/>
        <pt x="543" y="10" on="0"/>
        <pt x="543" y="32" on="1"/>
        <pt x="543" y="52" on="0"/>
        <pt x="545" y="90" on="0"/>
        <pt x="545" y="98" on="1"/>
        <pt x="529" y="68" on="0"/>
        <pt x="482" y="25" on="0"/>
        <pt x="427" y="-2" on="0"/>
        <pt x="366" y="-14" on="0"/>
        <pt x="336" y="-14" on="1"/>
        <pt x="283" y="-14" on="0"/>
        <pt x="176" y="29" on="0"/>
        <pt x="90" y="128" on="0"/>
        <pt x="36" y="288" on="0"/>
        <pt x="36" y="404" on="1"/>
        <pt x="36" y="491" on="0"/>
        <pt x="82" y="649" on="0"/>
        <pt x="164" y="768" on="0"/>
        <pt x="280" y="838" on="0"/>
        <pt x="349" y="838" on="1"/>
        <pt x="376" y="838" on="0"/>
        <pt x="431" y="825" on="0"/>
        <pt x="481" y="795" on="0"/>
        <pt x="523" y="745" on="0"/>
        <pt x="537" y="709" on="1"/>
        <pt x="532" y="795" on="1"/>
        <pt x="532" y="809" on="0"/>
        <pt x="549" y="826" on="0"/>
        <pt x="570" y="826" on="1"/>
        <pt x="596" y="826" on="0"/>
        <pt x="617" y="799" on="0"/>
        <pt x="617" y="787" on="1"/>
        <pt x="617" y="766" on="0"/>
        <pt x="616" y="733" on="0"/>
        <pt x="614" y="701" on="0"/>
        <pt x="613" y="668" on="0"/>
        <pt x="613" y="648" on="1"/>
        <pt x="613" y="622" on="0"/>
        <pt x="615" y="550" on="0"/>
        <pt x="615" y="524" on="1"/>
        <pt x="615" y="500" on="0"/>
        <pt x="593" y="468" on="0"/>
        <pt x="570" y="468" on="1"/>
        <pt x="553" y="468" on="0"/>
        <pt x="524" y="491" on="0"/>
        <pt x="524" y="521" on="1"/>
        <pt x="524" y="572" on="0"/>
        <pt x="504" y="659" on="0"/>
        <pt x="460" y="723" on="0"/>
        <pt x="390" y="759" on="0"/>
        <pt x="340" y="759" on="1"/>
        <pt x="297" y="759" on="0"/>
        <pt x="222" y="703" on="0"/>
        <pt x="165" y="606" on="0"/>
        <pt x="132" y="477" on="0"/>
        <pt x="132" y="404" on="1"/>
        <pt x="132" y="342" on="0"/>
        <pt x="155" y="221" on="0"/>
        <pt x="206" y="126" on="0"/>
        <pt x="288" y="67" on="0"/>
        <pt x="346" y="67" on="1"/>
        <pt x="383" y="67" on="0"/>
        <pt x="452" y="98" on="0"/>
        <pt x="504" y="145" on="0"/>
        <pt x="536" y="201" on="0"/>
        <pt x="536" y="225" on="1"/>
        <pt x="536" y="238" on="0"/>
        <pt x="525" y="245" on="0"/>
      </contour>
    </TTGlyph>
</ttFont>
